<svg width="250" height="58" viewBox="0 0 250 58" fill="none" xmlns="http://www.w3.org/2000/svg">
<path d="M62.3765 43.1702V4.80566H85.1141V9.61133H67.078V21.4034H83.2903V26.2091H67.078V38.2434H86.3706V43.0491H62.3765V43.1702Z" fill="#E43225"/>
<path d="M110.284 43.1702L102.461 32.9935L94.6793 43.1702H89.1672L99.8672 29.5609L88.5997 15.467H94.8009L102.502 26.0071L110.324 15.467H116.404L105.704 29.5205L115.796 43.1299H110.284V43.1702Z" fill="#E43225"/>
<path d="M123.375 39.0511V57.9507H118.673V29.6821C118.673 22.4534 124.186 14.7805 132.819 14.7805C141.533 14.7805 148.099 20.2726 148.099 29.3186C148.099 38.1223 141.452 44.2202 133.872 44.2202C130.184 44.1798 125.239 42.5645 123.375 39.0511ZM143.154 29.3186C143.154 23.1399 139.141 19.465 132.008 19.8284C128.563 19.9496 123.294 22.4534 123.74 31.257C123.861 34.1243 126.861 39.4953 133.386 39.4953C139.02 39.4953 143.154 36.305 143.154 29.3186Z" fill="#E43225"/>
<path d="M152.111 43.1703V15.467H156.813V18.4554C159.123 15.8304 162.69 14.9016 166.459 14.9016V19.9496C165.891 19.8284 160.258 19.1419 156.813 26.4918V43.3318H152.111V43.1703Z" fill="#E43225"/>
<path d="M167.756 29.3186C167.756 21.3226 173.511 14.7805 181.415 14.7805C191.304 14.7805 194.952 21.3226 194.952 29.6821V31.9839H172.903C173.268 37.2338 177.97 39.9799 182.306 39.8992C185.508 39.778 187.697 38.8492 190.007 36.5877L193.128 39.778C190.25 42.5241 186.562 44.3414 182.104 44.3414C173.714 44.1798 167.756 38.0011 167.756 29.3186ZM181.05 19.465C176.551 19.465 173.106 23.3418 172.903 27.5821H190.007C190.048 23.463 187.048 19.465 181.05 19.465Z" fill="#E43225"/>
<path d="M197.384 39.253L200.829 36.1435C200.707 36.1435 202.572 37.9607 202.774 38.0819C203.585 38.7684 204.395 39.2126 205.409 39.4549C208.408 40.2626 213.799 40.0203 214.244 35.9012C214.488 33.5993 212.745 32.3474 210.799 31.5397C208.286 30.6109 205.53 30.2878 202.977 29.1167C200.099 27.8648 198.275 25.6841 198.275 22.4938C198.275 14.1343 210.232 12.7613 215.622 16.6381C215.866 16.8804 218.5 19.2631 218.378 19.2631L214.933 22.0092C213.191 19.9496 211.61 18.8996 207.922 18.8996C206.098 18.8996 203.544 19.7073 203.098 21.6457C202.409 24.3918 205.53 25.4418 207.597 26.0071C210.353 26.6937 213.353 27.1379 215.744 28.6321C219.068 30.6917 219.878 35.1743 218.622 38.6069C217.244 42.403 213.11 43.8568 209.421 43.9779C205.044 44.2202 201.275 42.8472 198.154 39.7376C197.951 39.8184 197.384 39.253 197.384 39.253Z" fill="#E43225"/>
<path d="M221.621 39.253L225.066 36.1435C224.944 36.1435 226.809 37.9607 227.012 38.0819C227.822 38.7684 228.633 39.2126 229.646 39.4549C232.645 40.2626 238.036 40.0203 238.482 35.9012C238.725 33.5993 236.982 32.3474 235.037 31.5397C232.524 30.6109 229.768 30.2878 227.214 29.1167C224.336 27.8648 222.513 25.6841 222.513 22.4938C222.513 14.1343 234.469 12.7613 239.86 16.6381C240.103 16.8804 242.737 19.2631 242.616 19.2631L239.171 22.0092C237.428 19.9496 235.847 18.8996 232.159 18.8996C230.335 18.8996 227.782 19.7073 227.336 21.6457C226.647 24.3918 229.768 25.4418 231.835 26.0071C234.591 26.6937 237.59 27.1379 239.981 28.6321C243.305 30.6917 244.115 35.1743 242.859 38.6069C241.481 42.403 237.347 43.8568 233.659 43.9779C229.281 44.2202 225.512 42.8472 222.391 39.7376C222.188 39.8184 221.621 39.253 221.621 39.253Z" fill="#E43225"/>
<path d="M244.034 15.467V12.4786H242.981V11.9132H245.737V12.4786H244.723V15.467H244.034Z" fill="#E43225"/>
<path d="M249.182 15.467V12.7209L248.128 15.467H247.885L246.831 12.7209V15.467H246.264V11.9132H247.196L248.128 14.3362L249.06 11.9132H249.992V15.467H249.182Z" fill="#E43225"/>
<path d="M30.4384 43.1702L26.9933 34.0031H8.38982L4.94472 43.1702H0L14.9558 4.80566H20.3463L35.1805 43.1702H30.4384ZM17.4687 10.2979L10.4569 29.3186H25.0479L17.4687 10.2979Z" fill="#F7971D"/>
<path d="M38.2608 43.1702V4.80566H43.084V43.1702H38.2608Z" fill="#F7971D"/>
<path d="M50.3389 43.1702V16.0323H55.1621V43.1702H50.3389Z" fill="#F7971D"/>
<path d="M59.742 7.22869C59.742 7.10754 59.742 7.10754 59.742 6.98639C59.742 6.86524 59.742 6.86524 59.742 6.74409C56.0537 6.62294 53.095 3.63454 52.9734 0C52.8518 0 52.7302 0 52.6086 0C52.487 0 52.3654 0 52.2439 0C52.1223 3.67492 49.123 6.62294 45.4753 6.74409C45.4753 6.86524 45.4753 6.86524 45.4753 6.98639C45.4753 7.10754 45.4753 7.10754 45.4753 7.22869C49.1635 7.34984 52.1223 10.3382 52.2439 13.9728C52.3654 13.9728 52.487 13.9728 52.6086 13.9728C52.7302 13.9728 52.8518 13.9728 52.9734 13.9728C53.095 10.2979 56.0537 7.30946 59.742 7.22869Z" fill="#F7971D"/>
</svg>
