<svg width="250" height="57" viewBox="0 0 250 57" fill="none" xmlns="http://www.w3.org/2000/svg">
<path d="M11.2613 0H45.045C51.2643 0 56.3063 5.04197 56.3063 11.2613V45.045C56.3063 51.2643 51.2643 56.3063 45.045 56.3063H11.2613C5.04197 56.3063 0 51.2643 0 45.045V11.2613C0 5.04197 5.04197 0 11.2613 0Z" fill="url(#paint0_linear)"/>
<path fill-rule="evenodd" clip-rule="evenodd" d="M49.3844 19.1447C46.0766 19.1447 43.1682 22.0065 43.1682 25.1554V31.1505C43.1682 34.2992 46.0766 37.1629 49.3844 37.1629H50.6757V43.262C50.6757 47.8037 48.2267 50.6764 43.6862 50.6764H13.5754C9.03433 50.6764 5.63062 47.804 5.63062 43.262V37.1629H7.87697C11.1847 37.1629 13.1381 34.2995 13.1381 31.1505V25.155C13.1381 22.0065 11.1847 19.1447 7.87697 19.1447H5.63062V13.0439C5.63062 8.50194 9.03433 5.63118 13.5751 5.63118H43.6862C48.2267 5.63118 50.6757 8.50224 50.6757 13.0439V19.1447H49.3844ZM40.1651 35.6959V25.1145C40.1651 19.3291 35.9655 14.6399 30.1922 14.6399H27.0676C21.2958 14.6399 16.1411 19.3291 16.1411 25.1145V35.6956C16.1411 41.4823 21.2958 46.1715 27.0676 46.1715H30.1922C35.9655 46.1715 40.1651 41.4823 40.1651 35.6956V35.6959ZM38.6636 25.3517V35.4598C38.6636 40.5469 34.6591 44.6697 29.7192 44.6697H26.5871C21.6471 44.6697 17.6426 40.5469 17.6426 35.4598V25.3517C17.6426 20.2644 21.6471 16.1413 26.5871 16.1413H29.7192C34.6591 16.1413 38.6636 20.2644 38.6636 25.3517ZM35.6606 31.1505V25.1565C35.6606 22.0062 32.8498 19.1444 29.5405 19.1444H27.7207C24.4114 19.1444 20.6456 22.0062 20.6456 25.1561V31.1501C20.6456 34.3003 24.4114 37.1625 27.7207 37.1625H29.5405C32.8498 37.1625 35.6606 34.3003 35.6606 31.1505ZM28.7395 34.1591C28.7395 34.1591 29.4737 34.1967 29.4737 34.9249C29.4737 35.6486 28.7395 35.6606 28.7395 35.6606H28.5717C25.4512 35.6606 22.1468 33.6441 22.1468 30.4369V28.1862C22.1468 28.1862 22.1404 27.3618 22.8911 27.3618C23.6449 27.3618 23.6483 28.1862 23.6483 28.1862V30.4369C23.6483 32.8198 26.2755 34.1591 28.5717 34.1591H28.7395Z" fill="white"/>
<path d="M89.137 42.5417H85.4778V40.2155C85.1618 40.4392 84.7098 40.7522 84.1678 41.155C83.6257 41.5574 83.0837 41.8709 82.5416 42.0946C81.9091 42.4076 81.2316 42.6314 80.4185 42.8551C79.6051 43.0338 78.7019 43.1682 77.6175 43.1682C75.6299 43.1682 73.9587 42.5417 72.6032 41.2444C71.2481 39.9471 70.5706 38.2917 70.5706 36.3232C70.5706 34.6678 70.932 33.3701 71.6546 32.3412C72.3776 31.3123 73.3712 30.5518 74.6813 29.97C75.9913 29.3885 77.6175 28.9857 79.4696 28.8067C81.3217 28.5829 83.3547 28.4489 85.4778 28.3592V27.7778C85.4778 26.9726 85.3423 26.2567 85.0263 25.7196C84.7098 25.1828 84.3033 24.7353 83.7613 24.4223C83.2192 24.1092 82.6317 23.9302 81.8641 23.8408C81.1411 23.7511 80.3731 23.7064 79.56 23.7064C78.6115 23.7064 77.5274 23.8408 76.3528 24.0646C75.1783 24.3329 73.9587 24.6907 72.6937 25.1381H72.5131V21.4248C73.2357 21.2458 74.2748 21.0221 75.6299 20.7984C76.9853 20.5747 78.3405 20.4405 79.6505 20.4405C81.1862 20.4405 82.5416 20.5747 83.6708 20.7984C84.8003 21.0668 85.7939 21.4695 86.6524 22.0959C87.4655 22.6775 88.098 23.438 88.5495 24.4223C89.0015 25.3618 89.182 26.5251 89.182 27.9122V42.5417H89.137ZM85.4778 37.2177V31.1779C84.3483 31.2226 83.0383 31.357 81.5026 31.4463C79.9666 31.5807 78.792 31.7597 77.8885 32.0281C76.8498 32.3412 75.9913 32.7887 75.3138 33.4148C74.6813 34.0413 74.3198 34.8915 74.3198 36.0097C74.3198 37.2624 74.6813 38.2019 75.4493 38.8284C76.2173 39.4549 77.3465 39.768 78.9275 39.768C80.2376 39.768 81.4121 39.4996 82.4512 39.0075C83.5807 38.5154 84.5743 37.8889 85.4778 37.2177Z" fill="#2196F3"/>
<path d="M114.795 20.8879L105.941 42.5417H102.237L93.4737 20.8879H97.4489L104.225 38.1126L110.911 20.8879H114.795Z" fill="#2196F3"/>
<path d="M123.559 17.264H119.403V13.5059H123.559V17.264ZM123.333 42.5417H119.674V20.8879H123.333V42.5417Z" fill="#2196F3"/>
<path d="M147.546 42.5417H143.887V40.2155C143.571 40.4392 143.119 40.7522 142.577 41.155C142.035 41.5574 141.493 41.8709 140.951 42.0946C140.319 42.4076 139.641 42.6314 138.828 42.8551C138.015 43.0338 137.111 43.1682 136.027 43.1682C134.039 43.1682 132.368 42.5417 131.013 41.2444C129.658 39.9471 128.98 38.2917 128.98 36.3232C128.98 34.6678 129.341 33.3701 130.064 32.3412C130.787 31.3123 131.781 30.5518 133.091 29.97C134.401 29.3885 136.027 28.9857 137.879 28.8067C139.731 28.628 141.764 28.4489 143.887 28.3592V27.7778C143.887 26.9726 143.752 26.2567 143.435 25.7196C143.119 25.1828 142.713 24.7353 142.171 24.4223C141.629 24.1092 141.041 23.9302 140.273 23.8408C139.551 23.7511 138.783 23.7064 137.97 23.7064C137.021 23.7064 135.937 23.8408 134.762 24.0646C133.588 24.3329 132.368 24.6907 131.103 25.1381H130.922V21.4248C131.645 21.2458 132.684 21.0221 134.039 20.7984C135.395 20.5747 136.75 20.4405 138.06 20.4405C139.596 20.4405 140.951 20.5747 142.08 20.7984C143.21 21.0668 144.203 21.4695 145.062 22.0959C145.875 22.6775 146.508 23.438 146.959 24.4223C147.411 25.3618 147.592 26.5251 147.592 27.9122V42.5417H147.546ZM143.932 37.2177V31.1779C142.803 31.2226 141.493 31.357 139.957 31.4463C138.421 31.5807 137.247 31.7597 136.343 32.0281C135.304 32.3412 134.446 32.7887 133.768 33.4148C133.091 34.0413 132.774 34.8915 132.774 36.0097C132.774 37.2624 133.136 38.2019 133.904 38.8284C134.672 39.4549 135.801 39.768 137.382 39.768C138.692 39.768 139.867 39.4996 140.906 39.0075C141.945 38.5154 142.984 37.8889 143.932 37.2177Z" fill="#2196F3"/>
<path d="M170.269 36.3232C170.269 38.2917 169.456 39.902 167.784 41.1997C166.113 42.497 163.899 43.0788 161.008 43.0788C159.382 43.0788 157.891 42.8998 156.581 42.497C155.226 42.0946 154.096 41.6918 153.193 41.2444V37.173H153.374C154.548 38.0233 155.813 38.7391 157.259 39.2312C158.659 39.7233 160.059 39.9917 161.324 39.9917C162.95 39.9917 164.215 39.7233 165.119 39.2312C166.022 38.6941 166.474 37.8889 166.474 36.7703C166.474 35.9204 166.248 35.2939 165.751 34.8465C165.255 34.3994 164.306 34.0413 162.905 33.7282C162.363 33.5938 161.686 33.4598 160.872 33.3254C160.014 33.1914 159.246 33.0124 158.569 32.8333C156.672 32.3412 155.316 31.5807 154.503 30.5965C153.69 29.6122 153.283 28.4043 153.283 27.0173C153.283 26.1224 153.464 25.2725 153.825 24.5116C154.187 23.7064 154.774 23.0354 155.497 22.409C156.22 21.7827 157.168 21.3353 158.298 20.9774C159.427 20.6194 160.692 20.4405 162.092 20.4405C163.402 20.4405 164.712 20.6194 166.068 20.9326C167.423 21.2458 168.507 21.6485 169.41 22.0959V25.9884H169.184C168.236 25.3172 167.107 24.7353 165.751 24.2432C164.396 23.7511 163.086 23.5275 161.821 23.5275C160.466 23.5275 159.337 23.7958 158.433 24.2883C157.53 24.7804 157.033 25.5409 157.033 26.5698C157.033 27.4647 157.304 28.1355 157.891 28.5829C158.433 29.0304 159.337 29.3885 160.556 29.7016C161.234 29.8359 162.002 30.0146 162.815 30.149C163.673 30.283 164.351 30.4621 164.938 30.5965C166.655 30.9989 167.965 31.67 168.868 32.6096C169.772 33.4598 170.269 34.7124 170.269 36.3232Z" fill="#2196F3"/>
<path d="M192.494 42.5417H188.835V40.2155C188.519 40.4392 188.067 40.7522 187.525 41.155C186.983 41.5574 186.441 41.8709 185.899 42.0946C185.266 42.4076 184.589 42.6314 183.776 42.8551C182.962 43.0338 182.059 43.1682 180.975 43.1682C178.987 43.1682 177.316 42.5417 175.961 41.2444C174.605 39.9471 173.928 38.2917 173.928 36.3232C173.928 34.6678 174.289 33.3701 175.012 32.3412C175.735 31.3123 176.729 30.5518 178.039 29.97C179.348 29.3885 180.975 28.9857 182.827 28.8067C184.679 28.5829 186.712 28.4489 188.835 28.3592V27.7778C188.835 26.9726 188.699 26.2567 188.383 25.7196C188.067 25.1828 187.66 24.7353 187.118 24.4223C186.576 24.1092 185.989 23.9302 185.221 23.8408C184.499 23.7511 183.731 23.7064 182.917 23.7064C181.968 23.7064 180.884 23.8408 179.71 24.0646C178.535 24.3329 177.316 24.6907 176.051 25.1381H175.87V21.4248C176.593 21.2458 177.632 21.0221 178.987 20.7984C180.342 20.5747 181.697 20.4405 183.008 20.4405C184.544 20.4405 185.899 20.5747 187.028 20.7984C188.157 21.0668 189.151 21.4695 190.009 22.0959C190.822 22.6775 191.455 23.438 191.907 24.4223C192.359 25.4065 192.539 26.5251 192.539 27.9122V42.5417H192.494ZM188.835 37.2177V31.1779C187.706 31.2226 186.396 31.357 184.86 31.4463C183.324 31.5807 182.149 31.7597 181.246 32.0281C180.207 32.3412 179.348 32.7887 178.671 33.4148C178.039 34.0413 177.677 34.8915 177.677 36.0097C177.677 37.2624 178.039 38.2019 178.806 38.8284C179.574 39.4549 180.704 39.768 182.285 39.768C183.595 39.768 184.77 39.4996 185.808 39.0075C186.847 38.5154 187.932 37.8889 188.835 37.2177Z" fill="#2196F3"/>
<path d="M203.291 42.5417H199.631V12.3874H203.291V42.5417Z" fill="#2196F3"/>
<path d="M228.813 32.1175H212.732C212.732 33.4598 212.913 34.6227 213.319 35.6073C213.726 36.5916 214.268 37.3968 214.991 38.0233C215.668 38.6494 216.481 39.0968 217.385 39.4099C218.333 39.7233 219.327 39.8573 220.456 39.8573C221.947 39.8573 223.438 39.5443 224.929 38.9628C226.419 38.381 227.503 37.7995 228.136 37.2177H228.317V41.1997C227.097 41.7365 225.832 42.1392 224.522 42.497C223.212 42.8551 221.857 43.0338 220.456 43.0338C216.843 43.0338 213.997 42.0495 211.964 40.1257C209.931 38.2019 208.892 35.4283 208.892 31.8491C208.892 28.3145 209.886 25.4962 211.828 23.438C213.771 21.38 216.346 20.3063 219.508 20.3063C222.444 20.3063 224.703 21.1563 226.329 22.8564C227.91 24.5567 228.723 26.9726 228.723 30.1043V32.1175H228.813ZM225.245 29.2988C225.245 27.375 224.748 25.8986 223.799 24.8697C222.851 23.8408 221.405 23.3038 219.417 23.3038C217.43 23.3038 215.894 23.8855 214.72 25.0488C213.545 26.2117 212.913 27.6434 212.732 29.3438H225.245V29.2988Z" fill="#2196F3"/>
<path d="M250 36.3232C250 38.2917 249.187 39.902 247.515 41.1997C245.844 42.497 243.631 43.0788 240.739 43.0788C239.113 43.0788 237.622 42.8998 236.312 42.497C234.957 42.0946 233.828 41.6918 232.924 41.2444V37.173H233.105C234.28 38.0233 235.544 38.7391 236.99 39.2312C238.39 39.7233 239.791 39.9917 241.056 39.9917C242.682 39.9917 243.947 39.7233 244.85 39.2312C245.754 38.6941 246.205 37.8889 246.205 36.7703C246.205 35.9204 245.98 35.2939 245.483 34.8465C244.986 34.3994 244.037 34.0413 242.637 33.7282C242.095 33.5938 241.417 33.4598 240.604 33.3254C239.745 33.1914 238.977 33.0124 238.3 32.8333C236.403 32.3412 235.048 31.5807 234.234 30.5965C233.421 29.6122 233.015 28.4043 233.015 27.0173C233.015 26.1224 233.196 25.2725 233.557 24.5116C233.918 23.7064 234.506 23.0354 235.228 22.409C235.951 21.7827 236.9 21.3353 238.029 20.9774C239.158 20.6194 240.423 20.4405 241.824 20.4405C243.134 20.4405 244.444 20.6194 245.799 20.9326C247.154 21.2458 248.238 21.6485 249.142 22.0959V25.9884H248.961C248.012 25.3172 246.883 24.7353 245.528 24.2432C244.173 23.7511 242.863 23.5275 241.598 23.5275C240.243 23.5275 239.113 23.7958 238.21 24.2883C237.306 24.7804 236.809 25.5409 236.809 26.5698C236.809 27.4647 237.08 28.1355 237.667 28.5829C238.21 29.0304 239.113 29.3885 240.333 29.7016C241.011 29.8359 241.779 30.0146 242.592 30.149C243.45 30.283 244.127 30.4621 244.715 30.5965C246.431 30.9989 247.741 31.67 248.645 32.6096C249.548 33.4598 250 34.7124 250 36.3232Z" fill="#2196F3"/>
<defs>
<linearGradient id="paint0_linear" x1="28.1532" y1="0" x2="28.1532" y2="56.3063" gradientUnits="userSpaceOnUse">
<stop stop-color="#2199F8"/>
<stop offset="1" stop-color="#229AFA"/>
</linearGradient>
</defs>
</svg>
