<svg width="168" height="115" viewBox="0 0 168 115" fill="none" xmlns="http://www.w3.org/2000/svg">
<path d="M164.201 76.0384C163.133 77.323 161.767 78.5931 160.041 79.7279C155.42 82.7626 148.833 85.2072 140.971 87.1143C125.294 90.9157 104.135 93.0861 83.8902 93.0861C63.6473 93.0861 42.4825 90.9138 26.8097 87.1143C18.9416 85.2072 12.3546 82.7644 7.73771 79.7279C6.01833 78.5985 4.65438 77.3374 3.59172 76.0583C1.67208 73.7597 0.504776 70.7702 0.504776 67.5281L0.508382 26.0284C0.508382 23.1219 1.46098 20.3922 3.05767 18.1965C4.18889 16.6882 5.7459 15.1763 7.73771 13.8647C12.3564 10.8283 18.9416 8.38901 26.8097 6.47838C42.4825 2.67879 63.6473 0.504761 83.8902 0.504761C104.133 0.504761 125.294 2.67879 140.971 6.47838C148.833 8.3872 155.42 10.8283 160.041 13.8647C162.013 15.1619 163.588 16.6666 164.728 18.1839C166.339 20.3868 167.283 23.0858 167.283 26.0068C167.283 26.0068 167.261 67.4361 167.261 67.5516C167.261 70.7756 166.11 73.7381 164.201 76.0384Z" fill="white"/>
<path d="M167.769 67.6368L167.765 67.6296L167.79 26.009C167.79 23.8963 167.31 21.8251 166.374 19.9289C166.197 19.5735 166.004 19.2253 165.797 18.8843C165.591 18.5451 165.374 18.215 165.142 17.8992L165.131 17.8848C164.213 16.6634 163.114 15.5646 161.921 14.6102C161.667 14.4063 161.407 14.2115 161.144 14.0184C160.875 13.8236 160.599 13.6305 160.315 13.4447L160.312 13.4429C156.447 10.9044 151.812 9.10026 147.416 7.72909C146.394 7.40975 145.366 7.11206 144.334 6.8288C143.259 6.53292 142.169 6.25146 141.067 5.98264L141.078 5.98626C133.812 4.22538 126.357 3.00937 118.94 2.10187C117.363 1.91062 115.785 1.732 114.203 1.56782C104.159 0.521399 94.0102 0.00360835 83.9123 0H83.8888C69.6575 0 55.123 0.992297 41.0685 3.18257C38.5787 3.57046 36.0962 3.99986 33.6226 4.48158C31.3097 4.93262 29.0039 5.42877 26.7054 5.98626L26.6928 5.98986C21.6826 7.20408 16.5118 8.7683 11.8534 10.9965C11.074 11.3681 10.3055 11.7614 9.55132 12.1818C8.86573 12.5643 8.19277 12.9684 7.53244 13.3942L7.52883 13.3996L7.45486 13.4483C6.09993 14.3414 4.83519 15.3914 3.73645 16.5876C3.5416 16.7987 3.35577 17.017 3.17175 17.2371C2.99313 17.4518 2.81091 17.6809 2.62869 17.9227L2.63772 17.91C1.9377 18.8717 1.37479 19.9127 0.943589 21.0186C0.856988 21.2369 0.781219 21.4589 0.707248 21.6826C0.250791 23.0574 0.0126282 24.4971 0.00180319 25.9441L0.00542332 25.9513L0 67.5267C0 69.8667 0.589971 72.1616 1.71939 74.2094C1.93228 74.5937 2.16322 74.9689 2.41039 75.3316C2.65756 75.6924 2.92277 76.0424 3.20422 76.378C4.05399 77.3992 5.01742 78.3247 6.06203 79.1438C6.28395 79.317 6.50947 79.4866 6.7386 79.6508C6.97495 79.8204 7.21491 79.9845 7.45667 80.1451L7.49094 80.1686C11.3483 82.698 15.9706 84.4968 20.3583 85.8662C21.3813 86.1837 22.4097 86.4832 23.4417 86.7664C24.5187 87.0623 25.6085 87.3438 26.7126 87.6108L26.7018 87.6072C33.9654 89.3699 41.4221 90.5859 48.8372 91.4916C50.4141 91.6828 51.9946 91.8614 53.575 92.0256C63.6189 93.0702 73.7692 93.588 83.8671 93.5916H83.8906C98.1201 93.5916 112.655 92.6012 126.709 90.4109C129.199 90.023 131.681 89.5936 134.155 89.1119C136.468 88.6608 138.775 88.1647 141.074 87.6072L141.085 87.6036C146.099 86.3894 151.257 84.8233 155.922 82.5988C156.702 82.2271 157.47 81.8302 158.224 81.4099C158.912 81.0292 159.587 80.6268 160.243 80.1992L160.247 80.192L160.321 80.1433C161.501 79.3675 162.601 78.4744 163.592 77.4677C163.769 77.2873 163.94 77.1033 164.108 76.9174C164.27 76.737 164.427 76.5512 164.566 76.3906L164.579 76.3708C165.414 75.364 166.111 74.231 166.634 73.0331C166.735 72.7967 166.83 72.5604 166.919 72.3186C167.474 70.8193 167.756 69.2353 167.769 67.6368ZM1.01756 26.1046L1.01395 26.0974V26.0216C1.01395 24.6559 1.23587 23.2973 1.66526 22.0001C1.73382 21.7945 1.8096 21.5888 1.88718 21.3867C2.2859 20.3601 2.82174 19.3841 3.46944 18.4892C3.62279 18.2835 3.78517 18.0796 3.94935 17.8812C4.12255 17.6737 4.30116 17.4716 4.48518 17.2732C5.51176 16.1564 6.68448 15.1731 7.94921 14.336L7.95282 14.3288L8.02679 14.2801C8.68351 13.8489 9.36007 13.4465 10.0457 13.0622C10.7818 12.6527 11.5323 12.2684 12.2937 11.9094C16.8907 9.71368 21.9821 8.17291 26.9273 6.97314L26.9328 6.97133L26.9472 6.96773C29.2241 6.41745 31.5171 5.9231 33.8157 5.47567C36.2784 4.99576 38.7501 4.56457 41.2272 4.18028C55.233 1.99723 69.7026 1.01574 83.8563 1.01755L83.9068 1.01214C93.9705 1.01214 104.099 1.52993 114.109 2.57275C115.682 2.73512 117.253 2.91735 118.825 3.1086C126.204 4.01068 133.644 5.22308 140.895 6.98215L140.879 6.97674C141.953 7.23655 143.013 7.50898 144.078 7.80125C145.097 8.0809 146.113 8.3804 147.122 8.69433C151.421 10.0348 155.973 11.7957 159.751 14.2746L159.772 14.2873C160.038 14.4623 160.299 14.6427 160.557 14.8303C160.808 15.0107 161.053 15.2002 161.295 15.395C162.416 16.2935 163.457 17.3327 164.335 18.5L164.332 18.4928C164.548 18.7887 164.75 19.09 164.941 19.4039C165.133 19.7196 165.308 20.0444 165.472 20.3746C166.34 22.13 166.78 24.0497 166.783 26.0072L166.758 67.4762L166.762 67.4834V67.5592C166.762 69.0639 166.495 70.5577 165.975 71.9686C165.894 72.1905 165.806 72.4124 165.714 72.6343C165.234 73.7421 164.595 74.7795 163.837 75.6906L163.825 75.7086C163.677 75.8873 163.516 76.0677 163.363 76.2391C163.204 76.4159 163.04 76.5873 162.876 76.7605C161.936 77.7203 160.898 78.5629 159.792 79.2827L159.767 79.3026C159.11 79.7338 158.427 80.1469 157.741 80.5294C157.007 80.9389 156.254 81.3196 155.495 81.6859C150.901 83.8798 145.808 85.4205 140.866 86.6185L140.843 86.6239C138.566 87.176 136.273 87.6685 133.976 88.116C131.514 88.5959 129.042 89.0271 126.565 89.4132C112.559 91.5962 98.0913 92.5759 83.9375 92.5741L83.887 92.5795C73.8215 92.5795 63.6928 92.0617 53.6833 91.0189C52.11 90.8565 50.5368 90.6761 48.9653 90.483C41.5881 89.581 34.1458 88.3686 26.8949 86.6095L26.9111 86.6149C25.8358 86.3551 24.7767 86.0827 23.7105 85.7904C22.6911 85.5107 21.6754 85.2131 20.665 84.8973C16.3603 83.5568 11.8011 81.7905 8.01776 79.3044L7.98709 79.2845C7.76518 79.1384 7.54687 78.9886 7.33218 78.8335C7.11387 78.6783 6.89917 78.5141 6.68808 78.35C5.69759 77.5742 4.78468 76.6991 3.98002 75.7303C3.72202 75.42 3.47846 75.0952 3.25113 74.7615C3.022 74.4259 2.80911 74.0813 2.61246 73.7259C1.56423 71.8261 1.01937 69.6971 1.01576 67.5285L1.01756 26.1046Z" fill="#133D8D"/>
<path d="M163.135 26.009L163.112 67.5537C163.112 69.7729 162.325 71.808 161.008 73.3902C160.207 74.3573 159.146 75.3532 157.761 76.2607C153.725 78.911 147.665 81.2186 139.995 83.0805C124.717 86.7862 103.895 88.935 83.8924 88.935C63.8913 88.935 43.0675 86.7862 27.7879 83.0805C20.1147 81.2204 14.0599 78.911 10.0204 76.2607C8.64739 75.355 7.58654 74.3663 6.78729 73.4047C5.46122 71.8188 4.65656 69.7855 4.65656 67.5555L4.66377 26.0288C4.66377 24.0226 5.30426 22.1661 6.4012 20.6614C7.23473 19.5482 8.41826 18.3881 10.0204 17.3327C14.0617 14.6805 20.1165 12.373 27.7897 10.5129C43.0693 6.80711 63.8949 4.65472 83.8942 4.65472C103.897 4.65472 124.717 6.80711 139.997 10.5129C147.666 12.373 153.727 14.6805 157.763 17.3327C159.365 18.3863 160.561 19.5464 161.396 20.656C162.5 22.1661 163.135 23.9937 163.135 26.009Z" fill="#133D8D"/>
<path d="M152.516 32.2154C152.061 32.6718 151.838 33.2239 151.838 33.8626C151.838 34.5157 152.06 35.0678 152.511 35.5242C152.965 35.9825 153.516 36.2116 154.16 36.2116C154.813 36.2116 155.359 35.9825 155.814 35.5242C156.265 35.0678 156.491 34.5157 156.491 33.8626C156.491 33.2239 156.267 32.6718 155.814 32.2154C155.356 31.7589 154.809 31.528 154.16 31.528C153.519 31.528 152.974 31.7589 152.516 32.2154ZM156.085 35.7858C155.556 36.3163 154.91 36.5833 154.16 36.5833C153.413 36.5833 152.769 36.3163 152.249 35.7858C151.722 35.2554 151.459 34.6149 151.459 33.8626C151.459 33.1211 151.728 32.4824 152.254 31.9538C152.779 31.4288 153.42 31.1653 154.161 31.1653C154.912 31.1653 155.558 31.4288 156.087 31.9538C156.613 32.4824 156.875 33.1193 156.88 33.8626C156.879 34.6149 156.612 35.2536 156.085 35.7858ZM154.674 32.8414C154.806 32.9136 154.869 33.0579 154.869 33.2744C154.869 33.5018 154.768 33.6587 154.566 33.7399C154.457 33.7796 154.291 33.8031 154.068 33.8031H153.595V32.726H154.039C154.333 32.7278 154.546 32.7675 154.674 32.8414ZM154.113 32.3705C154.481 32.3705 154.751 32.4048 154.925 32.4788C155.233 32.6069 155.383 32.8577 155.383 33.2311C155.383 33.4963 155.285 33.6948 155.092 33.8193C154.99 33.886 154.847 33.9312 154.659 33.9618C154.894 33.9997 155.069 34.0971 155.175 34.2559C155.28 34.4111 155.334 34.5644 155.334 34.7142V34.9307C155.334 35.001 155.338 35.075 155.343 35.1544C155.347 35.2302 155.356 35.2825 155.372 35.3077L155.388 35.3438H154.894C154.894 35.3348 154.894 35.3258 154.89 35.3168C154.887 35.3059 154.887 35.2933 154.881 35.2843L154.869 35.1887V34.9505C154.869 34.6077 154.777 34.3786 154.591 34.2703C154.481 34.2072 154.286 34.1747 154.006 34.1747H153.595V35.3456H153.068V32.3742H154.113V32.3705Z" fill="white"/>
<path d="M139.51 40.1393V62.668C139.51 63.525 140.269 64.2214 141.207 64.2214C142.142 64.2214 142.902 63.525 142.902 62.668V40.1393C142.902 39.2805 142.142 38.5859 141.207 38.5859C140.269 38.5859 139.51 39.2805 139.51 40.1393ZM152.897 51.4028C152.884 57.7174 152.355 62.9188 151.802 64.5462C151.657 64.9738 151.466 65.3887 151.235 65.7947C148.928 67.4978 145.092 68.0643 141.207 68.1076C137.318 68.0643 133.484 67.4978 131.176 65.7947C130.945 65.3887 130.758 64.9738 130.61 64.5462C130.059 62.917 129.533 57.7156 129.518 51.4028C129.533 45.0899 130.059 39.8885 130.61 38.2593C130.758 37.8318 130.945 37.4186 131.176 37.0145C133.484 35.3113 137.319 34.743 141.207 34.7033C145.092 34.743 148.926 35.3113 151.235 37.0145C151.466 37.4186 151.657 37.8318 151.802 38.2593C152.355 39.8885 152.882 45.0881 152.897 51.4028Z" fill="white"/>
<path d="M50.0226 20.9249V37.2887C52.1696 36.0619 54.8596 35.5982 55.998 35.5982C57.7409 35.5982 59.2203 36.1142 60.4381 37.1462C61.6722 38.18 62.4227 39.3726 62.6861 40.7293C62.9658 42.0644 63.1029 44.5217 63.1065 48.0921V70.8771C59.8572 71.3588 57.1058 71.3588 53.7067 70.8771V47.5491C53.7067 45.3354 53.7013 44.4242 53.7013 43.8108C53.7013 42.5623 52.599 41.9579 51.8791 41.9579C51.1881 41.9579 49.9883 42.4451 49.9883 43.7008C49.9883 44.4639 50.0244 45.2469 50.0244 47.1792L50.0533 64.6509C46.131 65.1091 43.3941 65.1091 40.0762 64.6509L40.0509 20.9249C43.5095 20.4431 46.8328 20.4431 50.0226 20.9249Z" fill="white"/>
<path d="M37.5287 54.6557C37.3843 59.4674 37.2472 63.2328 36.789 64.5733C36.6446 65.0045 36.4552 65.4176 36.2242 65.8236C33.9167 67.5249 30.0792 68.0932 26.1948 68.1329C22.3104 68.0932 18.4747 67.5231 16.1636 65.8236C15.9345 65.4176 15.7486 65.0027 15.6007 64.5733C15.045 62.9459 14.52 57.7462 14.5092 51.4316C14.5182 45.1152 15.045 39.9138 15.6007 38.2882C15.7486 37.8588 15.9345 37.4439 16.1636 37.0397C18.4747 35.3366 22.3104 34.7665 26.1948 34.7286C30.081 34.7665 33.9167 35.3366 36.2242 37.0397C36.4552 37.4439 36.6446 37.8588 36.789 38.2882C37.2544 39.6504 37.397 43.3038 37.5341 48.2274H27.8926V40.1646C27.8926 39.3076 27.133 38.613 26.193 38.613C25.2585 38.613 24.4971 39.3094 24.4971 40.1646V62.6951C24.4971 63.5521 25.2585 64.2503 26.193 64.2503C27.133 64.2503 27.8926 63.5521 27.8926 62.6951V54.6557C27.8926 54.6557 37.5287 54.6557 37.5287 54.6557Z" fill="white"/>
<path d="M101.797 57.7336C101.649 62.5454 101.512 66.3089 101.052 67.6548C100.909 68.0788 100.72 68.4937 100.485 68.8979C98.1779 70.6028 94.3476 71.1711 90.4578 71.2108C86.5716 71.1693 82.7395 70.601 80.4284 68.8979C80.1993 68.4955 80.0098 68.0788 79.8655 67.6548C79.3116 66.0202 78.7848 60.8242 78.7703 54.5096C78.783 48.1931 79.3116 42.9935 79.8655 41.3661C80.0098 40.9367 80.1993 40.5218 80.4284 40.1176C82.7395 38.4127 86.5716 37.8444 90.4578 37.8065C94.3476 37.8444 98.1779 38.4127 100.485 40.1176C100.72 40.5218 100.909 40.9367 101.052 41.3661C101.517 42.7301 101.66 46.3835 101.802 51.3053H92.1555V43.2443C92.1555 42.3855 91.3942 41.6927 90.4578 41.6927C89.5196 41.6927 88.7619 42.3855 88.7619 43.2443V65.773C88.7619 66.6336 89.5214 67.3246 90.4578 67.3246C91.396 67.3246 92.1555 66.6318 92.1555 65.773V57.7336H101.797Z" fill="white"/>
<path d="M127.077 51.4244C126.929 56.2379 126.792 60.0015 126.336 61.3438C126.19 61.7732 126.002 62.1899 125.771 62.5923C123.46 64.2954 119.63 64.8637 115.74 64.9034C111.857 64.8637 108.021 64.2954 105.712 62.5923C105.481 62.1899 105.292 61.7732 105.147 61.3438C104.59 59.7128 104.067 54.5168 104.052 48.2003C104.065 41.8875 104.59 36.6861 105.147 35.0605C105.292 34.6311 105.481 34.2144 105.712 33.812C108.021 32.1089 111.857 31.5388 115.74 31.5009C119.63 31.5388 123.46 32.1089 125.771 33.812C126.002 34.2144 126.19 34.6329 126.336 35.0605C126.798 36.4227 126.942 40.0779 127.083 44.9979H117.436V36.9369C117.436 36.0781 116.678 35.3853 115.738 35.3853C114.803 35.3853 114.042 36.0799 114.042 36.9369V59.4656C114.042 60.3208 114.803 61.0172 115.738 61.0172C116.676 61.0172 117.436 60.3208 117.436 59.4656V51.4244H127.077Z" fill="white"/>
<path d="M76.1254 32.0421V64.5299C72.8166 65.0874 69.7855 65.0477 66.0617 64.5299V32.0421C69.3038 31.3998 72.5225 31.3998 76.1254 32.0421Z" fill="white"/>
<path d="M11.7957 110.656H15.5159C18.3196 110.656 19.2361 109.337 19.2361 108.146C19.2361 107.065 18.4477 106.405 17.5312 106.203V106.167C18.4116 105.911 19.016 105.324 19.016 104.316C19.016 103.197 18.1175 101.988 15.4059 101.988H11.7957V110.656V110.656ZM14.179 108.915V107.063H15.6458C16.4343 107.063 16.8005 107.412 16.8005 107.998C16.8005 108.657 16.3422 108.915 15.6278 108.915H14.179ZM14.179 105.488V103.729H15.4257C16.2683 103.729 16.5804 104.059 16.5804 104.59C16.5804 105.194 16.1781 105.488 15.4816 105.488H14.179ZM28.3346 107.027V106.459C28.3346 103.545 26.8678 101.768 24.3401 101.768C21.7385 101.768 20.3096 103.765 20.3096 106.385C20.3096 108.658 21.5744 110.841 24.8904 110.841C25.9892 110.841 27.0699 110.6 28.0423 110.013L27.3098 108.326C26.6874 108.693 25.991 108.913 25.0925 108.913C23.7917 108.913 22.8571 108.234 22.8012 107.026L28.3346 107.027ZM22.7813 105.358C22.7813 104.46 23.2937 103.636 24.3023 103.636C25.383 103.636 25.8051 104.496 25.8412 105.358H22.7813ZM32.5022 110.841C35.2139 110.841 36.4047 109.409 36.4047 107.998C36.4047 107.155 35.9464 106.459 34.9758 106.165V106.127C35.7822 105.835 36.2026 105.119 36.2026 104.314C36.2026 102.847 34.8838 101.766 32.6303 101.766C31.5677 101.766 30.487 102.023 29.5145 102.481L30.1749 104.166C30.7793 103.874 31.6958 103.636 32.4283 103.636C33.3448 103.636 33.8031 103.984 33.8031 104.496C33.8031 105.064 33.3809 105.467 32.062 105.467C31.952 105.467 31.2736 105.467 30.7973 105.431V107.154C31.1996 107.098 31.786 107.098 31.988 107.098C33.3448 107.098 33.9853 107.336 33.9853 107.996C33.9853 108.655 33.3809 108.985 32.3002 108.985C31.4197 108.985 30.5772 108.819 29.6607 108.399V110.25C30.413 110.6 31.3837 110.841 32.5022 110.841ZM37.2743 113.755H39.5458V110.656H44.897V113.755H47.1684V108.676H45.9416V101.988H40.2981C39.6017 105.524 39.0712 107.247 37.8787 108.676H37.2743V113.755ZM43.468 108.676H40.5182V108.64C41.1966 107.486 41.727 105.911 42.0572 104.004H43.468V108.676ZM56.3029 107.027V106.459C56.3029 103.545 54.8361 101.768 52.3085 101.768C49.7069 101.768 48.278 103.765 48.278 106.385C48.278 108.658 49.5427 110.841 52.8588 110.841C53.9575 110.841 55.0382 110.6 56.0107 110.013L55.2782 108.326C54.6557 108.693 53.9593 108.913 53.0608 108.913C51.76 108.913 50.8255 108.234 50.7695 107.026L56.3029 107.027ZM50.7515 105.358C50.7515 104.46 51.2639 103.636 52.2724 103.636C53.3531 103.636 53.7753 104.496 53.8114 105.358H50.7515ZM68.6381 110.841C69.8469 110.841 70.9655 110.472 71.6799 109.959L70.9835 108.274C70.3431 108.64 69.7567 108.86 68.9863 108.86C67.5935 108.86 66.677 107.98 66.677 106.351C66.677 104.884 67.5754 103.731 69.0964 103.731C69.9389 103.731 70.5992 103.987 71.2217 104.464V102.392C70.7634 102.1 69.9948 101.77 68.8203 101.77C66.2728 101.77 64.1475 103.621 64.1475 106.369C64.1475 108.915 65.7604 110.841 68.6381 110.841ZM79.5047 115H81.9782V110.675C82.3805 110.785 82.8027 110.84 83.2249 110.84C86.0285 110.84 87.7876 108.913 87.7876 106.311C87.7876 103.581 86.1566 101.766 82.9326 101.766C81.6318 101.766 80.4591 102.005 79.5065 102.335V115H79.5047ZM81.98 108.62V103.912C82.2542 103.82 82.5104 103.801 82.8225 103.801C84.3435 103.801 85.26 104.626 85.26 106.311C85.26 107.832 84.5275 108.803 83.0426 108.803C82.6205 108.804 82.3083 108.73 81.98 108.62ZM96.9041 107.027V106.459C96.9041 103.545 95.4373 101.768 92.9097 101.768C90.3081 101.768 88.8792 103.765 88.8792 106.385C88.8792 108.658 90.1439 110.841 93.46 110.841C94.5587 110.841 95.6394 110.6 96.6118 110.013L95.8794 108.326C95.2569 108.693 94.5605 108.913 93.662 108.913C92.3612 108.913 91.4266 108.234 91.3707 107.026L96.9041 107.027ZM91.3509 105.358C91.3509 104.46 91.8633 103.636 92.8718 103.636C93.9525 103.636 94.3747 104.496 94.4108 105.358H91.3509ZM102.337 110.841C105.268 110.841 106.753 108.896 106.753 106.275C106.753 104.096 105.58 102.281 103.015 102.281C102.044 102.281 101.182 102.593 100.559 102.939H100.523C100.633 102.261 100.853 101.692 101.146 101.382C101.676 100.76 102.593 100.63 106.129 99.8611V97.6817C102.116 98.5062 100.834 98.6343 99.679 99.771C98.5983 100.76 98.0119 103.087 98.0119 105.14C98.0119 109.245 99.789 110.841 102.337 110.841ZM102.409 108.859C101.2 108.859 100.448 107.668 100.448 105.248C100.448 105.138 100.448 104.936 100.466 104.718C101.108 104.388 101.876 104.168 102.517 104.168C103.854 104.168 104.222 105.322 104.222 106.477C104.224 107.742 103.747 108.859 102.409 108.859ZM115.886 107.027V106.459C115.886 103.545 114.419 101.768 111.891 101.768C109.29 101.768 107.859 103.765 107.859 106.385C107.859 108.658 109.124 110.841 112.44 110.841C113.539 110.841 114.619 110.6 115.592 110.013L114.859 108.326C114.237 108.693 113.54 108.913 112.642 108.913C111.341 108.913 110.407 108.234 110.351 107.026L115.886 107.027ZM110.334 105.358C110.334 104.46 110.847 103.636 111.855 103.636C112.936 103.636 113.358 104.496 113.394 105.358H110.334ZM117.342 110.656H119.815V107.155H122.949V110.656H125.423V101.988H122.949V104.974H119.815V101.988H117.342V110.656ZM127.301 110.656H129.774V107.173H130.983C131.221 107.173 131.441 107.412 131.662 107.944L132.688 110.656H135.364L133.807 107.321C133.551 106.771 133.238 106.459 132.818 106.295V106.259C133.459 105.855 133.533 104.738 133.973 104.188C134.119 104.004 134.303 103.913 134.577 103.913C134.761 103.913 134.943 103.949 135.09 104.005V101.898C134.815 101.806 134.357 101.77 134.101 101.77C133.314 101.77 132.8 102.064 132.47 102.522C131.699 103.549 131.737 105.308 130.693 105.308H129.776V101.992H127.303L127.301 110.656ZM140.522 110.841C143.161 110.841 144.957 108.915 144.957 106.293C144.957 103.672 143.161 101.766 140.522 101.766C137.864 101.766 136.069 103.672 136.069 106.293C136.069 108.915 137.882 110.841 140.522 110.841ZM140.522 108.859C139.221 108.859 138.599 107.76 138.599 106.293C138.599 104.826 139.221 103.746 140.522 103.746C141.823 103.746 142.427 104.826 142.427 106.293C142.427 107.76 141.823 108.859 140.522 108.859ZM146.431 110.656H148.832V107.265C148.832 106.551 148.794 105.891 148.778 105.561H148.832C148.978 105.891 149.272 106.403 149.601 106.935L150.681 108.676H151.726L152.807 106.935C153.137 106.423 153.429 105.909 153.595 105.561H153.651C153.633 105.891 153.595 106.531 153.595 107.228V110.654H155.996V101.986H153.577L152.44 103.82C151.928 104.662 151.47 105.543 151.231 105.999H151.195C150.939 105.523 150.499 104.662 149.987 103.82L148.832 101.986H146.431V110.656Z" fill="#133D8D"/>
<path d="M70.3232 28.0658C75.2774 28.0658 79.2935 23.9398 79.2935 18.85C79.2935 13.7603 75.2774 9.63431 70.3232 9.63431C65.369 9.63431 61.3528 13.7603 61.3528 18.85C61.3528 23.9398 65.369 28.0658 70.3232 28.0658Z" fill="url(#paint0_radial)"/>
<defs>
<radialGradient id="paint0_radial" cx="0" cy="0" r="1" gradientUnits="userSpaceOnUse" gradientTransform="translate(70.3225 18.8493) scale(9.09431)">
<stop stop-color="#EC2127"/>
<stop offset="1" stop-color="#C12126"/>
</radialGradient>
</defs>
</svg>
