<svg width="113" height="113" viewBox="0 0 113 113" fill="none" xmlns="http://www.w3.org/2000/svg">
<path d="M56.5 113C87.7041 113 113 87.7041 113 56.5C113 25.2959 87.7041 0 56.5 0C25.2959 0 0 25.2959 0 56.5C0 87.7041 25.2959 113 56.5 113Z" fill="#D92A13"/>
<path d="M39.2473 59.5772C35.7665 60.233 33.4964 61.3933 32.4371 61.9986C32.0335 62.2509 31.8821 62.7554 32.0335 63.2094L33.7487 68.0018C33.7487 68.0018 34.1018 68.9603 33.7487 69.8178C33.1433 71.2808 31.529 71.2808 30.8732 70.625C28.1995 67.9513 24.4665 54.0786 23.6594 51.1022C23.5585 50.7491 23.508 50.3455 23.5585 49.9924C23.5585 49.942 23.5585 49.942 23.5585 49.7402C23.962 47.9241 25.5763 48.3277 26.0808 48.7817C27.0393 49.6897 28.1491 52.7165 28.6536 54.2803C28.8554 54.8353 29.4103 55.0875 29.9652 54.8857L36.4728 52.4643C36.9772 52.2625 37.2295 51.758 37.0781 51.2536C36.3719 48.7312 33.7991 41.7192 27.0897 42.4254C25.425 42.6272 23.9116 42.8795 22.6504 43.2326C17.3536 44.6451 14.2763 48.3277 15.1339 53.7254C16.1429 60.4853 21.1371 73.9545 25.3746 76.729C28.6536 78.8478 40.9121 74.6103 41.921 70.2719C42.2237 69.0107 42.3245 65.1768 40.458 60.0817C40.2562 59.779 39.7518 59.5268 39.2473 59.5772Z" fill="white"/>
<path d="M55.1884 68.8594L47.8737 71.3817C47.3692 71.5835 46.7638 71.2808 46.6125 70.7763L35.9683 40.1049C35.7665 39.6004 36.0692 38.9951 36.5737 38.8437L43.8884 36.3214C44.3929 36.1196 44.9982 36.4223 45.1496 36.9268L55.7938 67.5982C55.9955 68.1027 55.7433 68.6576 55.1884 68.8594Z" fill="white"/>
<path d="M89.6937 59.0728C89.8955 58.871 90.4 58.3161 90.5009 58.0134C90.6018 57.7611 90.7531 57.2567 90.8036 56.7522C90.9549 55.592 90.7531 54.0281 90.5009 52.9183L85.0527 25.5763C84.8509 24.6179 84.0942 23.6594 83.0853 23.8612L78.2424 25.5259C77.2839 25.7277 76.6281 26.6357 76.8299 27.6446L81.1683 44.0902C81.3196 44.9478 80.5629 45.2 80.1089 44.4433L71.7853 29.0067C71.2808 28.1491 70.2214 27.8464 69.3638 28.3509L64.7732 30.2678C63.9156 30.7723 63.6129 31.8317 64.1174 32.6893C64.1174 32.6893 75.1147 49.5384 79.4531 57.6098C79.8062 58.2656 79.3018 58.8205 79.1 58.9214L76.6281 60.0817C75.9219 60.4348 75.6696 61.2924 76.0228 61.9986L76.8299 63.6634C77.183 64.3696 78.0406 64.6219 78.7469 64.2687L83.0348 62.604C83.1357 62.5536 83.287 62.5031 83.3879 62.4527L86.1121 61.0906C86.1121 61.0402 89.2397 59.4763 89.6937 59.0728Z" fill="white"/>
<path d="M43.2326 34.4549L36.0692 36.9268C35.5647 37.1286 34.9594 36.8259 34.808 36.3214L33.8496 33.5469C33.6478 33.0424 33.9505 32.4371 34.4549 32.2857L41.6183 29.8138C42.1228 29.6121 42.7281 29.9147 42.8795 30.4192L43.8379 33.1938C44.0397 33.6982 43.7371 34.2531 43.2326 34.4549Z" fill="white"/>
<path d="M71.7348 62.8058C72.0375 62.5536 72.1384 62.2004 72.0375 61.8473C71.7853 60.7879 71.2808 58.2656 70.7259 58.2152C70.2214 58.1647 69.2125 58.5179 68.708 58.6692C68.5063 58.7196 68.0522 58.8205 67.9513 58.4674L60.4348 36.7754C60.3339 36.5737 60.7879 36.3719 60.9897 36.3214L61.5446 36.1196C62.2509 35.8674 62.6545 35.1107 62.4022 34.4045L61.6455 32.2353C61.3933 31.529 60.6366 31.1254 59.9303 31.3777L59.3754 31.5795C59.1737 31.6299 58.9719 31.529 58.9214 31.3777L57.2062 26.3835C56.8531 25.3241 55.6929 24.7692 54.6335 25.1223L49.2862 26.9888C48.2268 27.342 47.6719 28.5022 48.025 29.5616L49.7402 34.5558C49.7906 34.7576 49.6897 34.9594 49.5384 35.0098L49.2862 35.1107C48.5799 35.3629 48.1763 36.1196 48.4286 36.8259L49.1853 38.9951C49.4375 39.7013 50.1942 40.1049 50.9004 39.8527L51.1527 39.7518C51.3545 39.7013 51.5562 39.8022 51.6067 39.9536L59.1232 61.696C60.1321 64.5714 63.2598 66.0848 66.1353 65.1263L68.5062 64.3192C69.1116 64.067 70.8772 63.512 71.7348 62.8058Z" fill="white"/>
<path d="M47.0161 85.2545C45.4018 85.5571 44.3929 86.1121 43.8884 86.4147C43.6866 86.5156 43.6362 86.7679 43.6866 86.9696L44.4937 89.1893C44.4937 89.1893 44.6451 89.6433 44.4937 90.0469C44.2415 90.7027 43.4848 90.7027 43.1821 90.4505C41.921 89.2397 40.1553 82.8835 39.8022 81.471C39.7518 81.3196 39.7518 81.1179 39.7518 80.9665C39.7518 80.9161 39.7518 80.9161 39.7518 80.8656C39.9031 80.0585 40.6598 80.2098 40.9121 80.4116C41.3661 80.8152 41.8705 82.2277 42.1228 82.9339C42.2237 83.1862 42.4759 83.2871 42.7281 83.2366L45.7045 82.1268C45.9062 82.0259 46.0576 81.7737 46.0071 81.5719C45.654 80.4116 44.4433 77.183 41.3661 77.5362C40.6094 77.6371 39.9031 77.7379 39.2978 77.9397C36.8763 78.646 35.4638 80.3107 35.8674 82.7826C36.3719 85.9103 38.7429 92.0647 40.6598 93.3259C42.1732 94.2844 47.7728 92.2665 48.2772 90.2991C48.4286 89.6938 48.4286 87.9281 47.571 85.6076C47.4701 85.3554 47.2179 85.204 47.0161 85.2545Z" fill="white"/>
<path d="M58.417 80.5125C56.6009 75.1652 56.5 71.7348 50.7996 73.7022C45.8054 75.4174 48.1763 79.1 49.6393 83.1357C51.1527 87.2723 51.5563 90.7531 56.3487 89.2397C61.3429 87.6759 59.9304 84.8509 58.417 80.5125ZM55.4911 86.3643C54.583 86.7679 53.9777 84.5482 53.0696 81.9754C52.2121 79.4531 51.2031 77.637 52.313 77.1326C53.3219 76.6786 54.0786 78.7973 54.9866 81.3701C55.8442 83.9429 56.4496 85.9607 55.4911 86.3643Z" fill="white"/>
<path d="M78.0911 80.1594L73.5005 67.6991C73.45 67.5982 73.1978 67.346 72.9455 67.1947C72.5924 66.9424 72.1888 66.892 71.7853 67.0433C69.1116 67.8 69.9188 68.4054 68.6576 68.9098C67.4469 69.3639 66.6397 68.8089 65.4795 69.1621C64.067 69.6161 63.2598 71.1799 62.5536 71.1295C61.696 71.1799 60.6871 71.1295 60.3339 71.1799C60.0817 71.2304 59.1737 71.6844 59.0223 71.7853C58.6188 72.0375 58.5179 72.088 58.4674 72.6429C58.417 73.1473 59.1737 74.6607 59.2241 74.7616L62.9067 85.4563C63.1085 86.0112 63.6634 86.2634 64.2183 86.1121L65.4795 85.6581C66.0344 85.4563 66.2866 84.9014 66.1353 84.3464L63.0076 75.3165C62.8058 74.7616 63.1085 74.2067 63.613 73.9545L64.4705 73.6014C65.0254 73.3491 65.6308 73.6518 65.8326 74.2067L69.0107 83.5393C69.2125 84.0942 69.7674 84.3464 70.3223 84.1951L71.5835 83.7411C72.1384 83.5393 72.3906 82.9844 72.2393 82.4295L68.7585 72.2898C68.7585 72.2898 68.6071 71.9871 68.9098 71.6844C69.0107 71.5835 69.3638 71.3817 69.717 71.2304C70.171 71.0286 70.7763 70.8268 71.1799 71.079C71.2304 71.079 71.2304 71.1799 71.2808 71.1799L71.3312 71.2304L74.812 81.2692C75.0138 81.8241 75.5687 82.0764 76.1237 81.925L77.4353 81.471C77.9902 81.2692 78.2929 80.7143 78.0911 80.1594Z" fill="white"/>
</svg>
