<svg width="250" height="68" viewBox="0 0 250 68" fill="none" xmlns="http://www.w3.org/2000/svg">
<path d="M42.2858 54.9923H33.8842V10.5541H42.3141C49.3981 10.5541 62.6301 17.0715 62.6301 32.7732C62.6301 47.9305 50.4907 54.9923 42.2858 54.9923ZM37.217 51.6594H42.2858C49.1465 51.6594 59.2973 45.6569 59.2973 32.7732C59.2973 19.4267 48.236 13.8869 42.3141 13.8869H37.217V51.6594Z" fill="#FF161F"/>
<path d="M37.217 54.9923H21.7681V51.6594H33.8841V13.8869H21.7681V10.5541H37.217V54.9923Z" fill="#FF161F"/>
<path d="M28.8849 12.2205H25.552V53.3259H28.8849V12.2205Z" fill="#FF161F"/>
<path d="M71.9344 67.2128H10.2763C4.60991 67.2128 0 62.6029 0 56.9365V10.2763C0 4.60991 4.60991 0 10.2763 0H71.9344C77.6008 0 82.2107 4.60991 82.2107 10.2763V56.9365C82.2107 62.6029 77.6008 67.2128 71.9344 67.2128ZM10.2763 1.66643C5.52867 1.66643 1.66643 5.52867 1.66643 10.2763V56.9365C1.66643 61.6841 5.52867 65.5464 10.2763 65.5464H71.9344C76.682 65.5464 80.5443 61.6841 80.5443 56.9365V10.2763C80.5443 5.52867 76.682 1.66643 71.9344 1.66643H10.2763Z" fill="#FF161F"/>
<path d="M110.743 51.8861L108.716 49.988L109.665 48.9742C114.489 43.8227 115.643 26.4546 115.681 20.1972L115.689 18.8085L118.467 18.8251L118.458 20.2138C118.453 21.1765 118.241 43.8789 111.692 50.8729L110.743 51.8861Z" fill="#FF161F"/>
<path d="M141.369 58.2557H138.592V51.9372H106.652V58.2557H103.874V49.1598H141.369V58.2557Z" fill="#FF161F"/>
<path d="M133.148 51.6778L132.708 18.3819C132.695 17.4026 131.88 16.5799 131.311 16.2838H111.685V13.5064H131.829L132.052 13.5848C133.693 14.1597 135.454 16.0233 135.485 18.3452L135.925 51.6411L133.148 51.6778Z" fill="#FF161F"/>
<path d="M170.323 51.85H156.229C153.536 51.85 151.301 49.7075 151.244 47.0729L151.243 46.9923V13.9214H154.021V46.9923C154.045 48.1488 155.035 49.072 156.229 49.072H170.323V51.85Z" fill="#FF161F"/>
<path d="M170.404 13.9219H153.486V16.6993H170.404V13.9219Z" fill="#FF161F"/>
<path d="M167.06 30.9218H156.922V33.6064H167.06V30.9218Z" fill="#FF161F"/>
<path d="M183.829 13.8869H181.121V51.5555H183.829V13.8869Z" fill="#FF161F"/>
<path d="M187.165 33.6653L185.268 31.7328L202.773 13.9797H206.154L187.165 33.6653Z" fill="#FF161F"/>
<path d="M187.217 29.898L185.268 31.7789L204.442 51.5556H208.199L187.217 29.898Z" fill="#FF161F"/>
<path d="M217.979 51.5556H214.97L232.282 13.9797L250 51.5556H246.945L232.398 20.8304L217.979 51.5556Z" fill="#FF161F"/>
<path d="M223.406 37.0782H241.008" stroke="#FF161F" stroke-width="5" stroke-miterlimit="10"/>
</svg>
