<svg width="250" height="45" viewBox="0 0 250 45" fill="none" xmlns="http://www.w3.org/2000/svg">
<path d="M28.841 13.3078H22.6544V37.5645H39.3893V32.3126H28.841V13.3078Z" fill="#FD0028"/>
<path d="M52.0296 13.3078H43.7956V37.609H52.6082C57.7265 37.609 60.8421 35.0276 61.9548 33.9149C64.1357 31.734 65.1148 29.0635 65.1148 25.5029C65.1148 21.8088 63.9576 18.8268 61.7322 16.6459C59.3288 14.376 56.1688 13.3078 52.0296 13.3078ZM56.7029 30.5768C55.1006 32.1346 52.9642 32.3571 51.3174 32.3571H49.9822V18.5597H51.5845C53.2758 18.5597 55.1896 18.7377 56.7029 20.1175C57.9046 21.2747 58.6167 23.233 58.6167 25.5029C58.6167 28.1734 57.593 29.7312 56.7029 30.5768Z" fill="#FD0028"/>
<path d="M90.5287 16.4679C88.2143 14.198 84.7872 12.9073 81.2266 12.9073C77.6215 12.9073 74.2389 14.198 71.9245 16.4679C69.5656 18.7378 68.2304 22.0313 68.2304 25.4584C68.2304 28.841 69.5656 32.1346 71.9245 34.4045C74.2389 36.6744 77.666 37.9651 81.2266 37.9651C84.8317 37.9651 88.2143 36.6744 90.5287 34.4045C92.8876 32.0901 94.2229 28.841 94.2229 25.4584C94.2229 22.0313 92.8876 18.7378 90.5287 16.4679ZM86.0335 30.1763C84.7872 31.4225 83.185 32.0901 81.2266 32.0901C79.3573 32.0901 77.666 31.4225 76.3753 30.1318C75.4851 29.2861 74.4614 27.8174 74.4614 25.592C74.4614 23.7226 75.1736 21.9868 76.3753 20.7851C77.577 19.5389 79.3573 18.8268 81.2266 18.8268C82.9624 18.8268 84.7872 19.5389 86.0335 20.7851C87.2797 21.9868 87.9918 23.7226 87.9918 25.4584C87.9473 27.1942 87.2352 28.93 86.0335 30.1763Z" fill="#FD0028"/>
<path d="M195.389 16.4679C193.075 14.198 189.647 12.9073 186.087 12.9073C182.482 12.9073 179.099 14.198 176.785 16.4679C174.426 18.7378 173.091 22.0313 173.091 25.4584C173.091 28.841 174.426 32.1346 176.785 34.4045C179.099 36.6744 182.526 37.9651 186.087 37.9651C189.692 37.9651 193.075 36.6744 195.389 34.4045C197.748 32.0901 199.083 28.841 199.083 25.4584C199.128 22.0313 197.748 18.7378 195.389 16.4679ZM190.894 30.1763C189.647 31.4225 188.045 32.0901 186.087 32.0901C184.218 32.0901 182.526 31.4225 181.236 30.1318C180.345 29.2861 179.322 27.8174 179.322 25.592C179.322 23.7226 180.034 21.9868 181.236 20.7851C182.437 19.5389 184.218 18.8268 186.087 18.8268C187.823 18.8268 189.647 19.5389 190.894 20.7851C192.14 21.9868 192.852 23.7226 192.852 25.4584C192.852 27.1942 192.14 28.93 190.894 30.1763Z" fill="#FD0028"/>
<path d="M166.993 33.9149C169.129 31.734 170.153 29.0635 170.153 25.5029C170.153 21.8088 168.996 18.8268 166.771 16.6459C164.412 14.376 161.296 13.3078 157.112 13.3078H148.878V37.609H157.691C162.765 37.5645 165.88 34.9831 166.993 33.9149ZM155.065 32.3126V18.5152H156.667C158.359 18.5152 160.272 18.6932 161.786 20.073C163.032 21.2302 163.699 23.1885 163.699 25.4584C163.699 28.1734 162.676 29.6866 161.83 30.5323C160.228 32.0901 158.092 32.3126 156.445 32.3126H155.065Z" fill="#FD0028"/>
<path d="M129.785 13.3078L120.482 37.609H127.025L128.672 33.5143L128.894 32.9357C130.274 33.3363 131.698 33.5143 133.167 33.5143C134.636 33.5143 136.06 33.3363 137.44 32.9357L137.662 33.5143L139.176 37.609H145.763L136.639 13.3078H129.785ZM135.793 28.1289C134.947 28.3514 134.057 28.4404 133.167 28.4404C132.277 28.4404 131.431 28.3514 130.586 28.1289L133.123 20.5626L135.793 28.1289Z" fill="#FD0028"/>
<path d="M113.45 27.7728C114.518 27.1497 115.409 26.126 115.987 24.9243C116.521 23.8116 116.833 22.5209 116.833 21.1857C116.833 20.251 116.699 19.3164 116.477 18.5152C115.854 16.3343 114.385 14.643 112.293 13.8419C111.18 13.3968 109.89 13.2633 107.486 13.2633H97.917V18.5152V24.9243V37.5645H103.881V29.8202C103.881 29.8202 105.572 29.9537 106.195 29.9537C106.73 29.9537 107.308 29.9092 107.842 29.8647L112.249 37.5645H118.88L113.094 28.0399C113.228 27.9509 113.317 27.8618 113.45 27.7728ZM110.78 21.6308C110.78 22.877 110.246 23.8116 109.4 24.3012C108.376 24.8798 107.308 24.9688 106.195 24.9688C105.394 24.9688 104.638 24.8353 103.881 24.6128V18.5152H106.552C106.819 18.5152 108.376 18.5152 109.177 18.8268C110.201 19.2719 110.78 20.073 110.78 21.6308Z" fill="#FD0028"/>
<path d="M0 37.5645H16.7349V32.3126H6.18658V27.9954H16.3343V22.7434H6.18658V18.5152H16.7349V13.3078H0V37.5645Z" fill="#FD0028"/>
<path d="M245.416 6.23108H205.314V9.34662H245.416V6.23108Z" fill="#FD0028"/>
<path d="M243.769 41.5702H205.314V44.6858H243.769V41.5702Z" fill="#FD0028"/>
<path d="M243.813 5.6525H240.698V44.6858H243.813V5.6525Z" fill="#FD0028"/>
<path d="M208.43 6.23108H205.314V44.7303H208.43V6.23108Z" fill="#FD0028"/>
<path d="M243.813 0H240.698V10.3703H243.813V0Z" fill="#FD0028"/>
<path d="M250 6.23108H239.14V9.34662H250V6.23108Z" fill="#FD0028"/>
<path d="M232.019 19.3609H228.636L223.963 31.5115H227.257L228.058 29.4641L228.147 29.1526C228.859 29.3306 229.526 29.4641 230.283 29.4641C230.995 29.4641 231.707 29.3751 232.419 29.1971L232.508 29.5086L233.265 31.556H236.559L232.019 19.3609ZM230.283 26.9272C229.838 26.9272 229.437 26.8827 228.992 26.7937L230.283 23.0105L231.574 26.7937C231.173 26.8827 230.728 26.9272 230.283 26.9272Z" fill="#FD0028"/>
<path d="M219.69 19.3609V26.2151V26.8382C219.69 27.9064 218.889 28.7965 217.865 28.841C217.821 28.841 217.732 28.841 217.687 28.841C217.643 28.841 217.554 28.841 217.509 28.841C216.486 28.752 215.685 27.8619 215.685 26.8382L215.64 26.0815V19.3609H212.524V26.037V26.3041C212.524 28.485 213.637 29.8202 214.082 30.2653C215.017 31.1999 216.13 31.6005 217.643 31.6005C219.156 31.6005 220.313 31.1554 221.203 30.2653C221.649 29.7757 222.761 28.485 222.761 26.3041V26.126V19.3609H219.69Z" fill="#FD0028"/>
</svg>
