<svg width="219" height="72" viewBox="0 0 219 72" fill="none" xmlns="http://www.w3.org/2000/svg">
<path d="M36.2623 67.7005C32.2713 67.7005 21.0111 67.1144 20.0129 67.0497C18.0888 66.9844 16.4495 65.8127 15.9507 64.1203L5.97341 30.0765C5.54578 28.6444 6.04458 27.1473 7.25631 26.1058L33.0554 5.27582C33.8388 4.62492 34.8371 4.29944 35.9058 4.29944C36.9746 4.29944 37.9729 4.62492 38.7563 5.27582L64.5554 26.1058C65.7671 27.0822 66.2659 28.5793 65.8383 30.0765L55.861 64.1203C55.3622 65.8127 53.7229 66.9844 51.7988 67.0497C50.8006 67.0497 40.1104 67.7005 36.2623 67.7005Z" fill="url(#paint0_radial)"/>
<path d="M34.5046 6.72502C34.8785 6.72502 35.2524 6.85033 35.4763 7.03834L62.535 27.092C62.9833 27.4053 63.1334 27.9066 62.9833 28.3453L52.5189 61.1204C52.3694 61.6845 51.7717 62.0604 51.0238 62.0604C51.0238 62.0604 38.8398 62.6873 34.8035 62.6873C30.5433 62.6873 17.8359 62.0604 17.8359 62.0604C17.1631 62.0604 16.5653 61.6845 16.3408 61.1204L5.87637 28.3453C5.72693 27.9066 5.87638 27.4053 6.32471 27.092L33.3834 7.03834C33.7573 6.85033 34.1313 6.72502 34.5046 6.72502ZM34.5046 1.71161C32.7106 1.71161 30.9166 2.27562 29.5716 3.27833L2.51288 23.3319C0.344955 24.8986 -0.477316 27.3426 0.269911 29.6613L10.735 62.4363C11.5572 65.1308 14.4724 67.0109 17.7615 67.0736C19.1065 67.1364 30.6927 67.7005 34.9529 67.7005H35.0279C39.0643 67.7005 50.2015 67.1364 51.5472 67.0736C54.8363 67.0109 57.6764 65.0687 58.4986 62.4363L68.9637 29.6613C69.7109 27.3426 68.8136 24.8986 66.7207 23.3319L39.662 3.27833C38.0925 2.27562 36.2986 1.71161 34.5046 1.71161Z" fill="black"/>
<path opacity="0.08" d="M33.3181 1L3.62305 27.719L14.9447 71H51.6914L63.0131 27.719L33.3181 1Z" fill="white" stroke="black" stroke-miterlimit="10"/>
<path d="M49.7939 24.7152C49.9466 23.9463 49.2608 23.3055 48.3461 23.3055C43.087 23.1774 27.1584 22.7929 23.3479 23.3696C18.7753 24.0104 20.2995 29.1366 20.2995 29.1366L28.5306 54.9601C28.607 55.2163 28.9117 55.4085 29.2927 55.4085H39.1244C39.6575 55.4085 39.9622 55.0242 39.8865 54.5752L36.6854 45.3483C36.5327 44.9638 36.9138 44.5153 37.4475 44.5153H43.3924C43.7734 44.5153 44.0781 44.323 44.1545 44.0026L45.3733 38.8764C45.4497 38.492 45.1449 38.1075 44.6112 38.1075H35.4659C35.1612 38.1075 34.8565 37.9153 34.7038 37.659L32.8749 32.5327C32.7222 32.1482 33.1033 31.6997 33.637 31.6997H47.965C48.3461 31.6997 48.6508 31.4434 48.7271 31.1871L49.7939 24.7152Z" fill="black"/>
<path d="M73.5584 39.4288L71.294 49.6506C71.2293 49.9741 70.9059 50.2329 70.5824 50.2329H53.2441C52.7912 50.2329 52.4678 49.8447 52.5325 49.3918L54.7968 39.17C54.8615 38.8465 55.185 38.5878 55.5084 38.5878H72.8467C73.2996 38.5878 73.6877 38.9759 73.5584 39.4288Z" fill="#FF1922"/>
<path d="M56.0907 45.0573H55.185C55.0556 45.0573 54.9909 44.9926 54.9909 44.8632V43.9575C54.9909 43.8281 55.0556 43.7634 55.185 43.7634H56.0907C56.2201 43.7634 56.2848 43.8281 56.2848 43.9575V44.8632C56.2848 44.9926 56.2201 45.0573 56.0907 45.0573Z" fill="white"/>
<path d="M58.7432 41.2403V46.6746C58.7432 46.6746 58.8079 47.5804 59.5195 47.5804C60.4253 47.5804 62.172 47.5804 62.172 47.5804C62.172 47.5804 62.9484 47.5804 62.9484 46.5453C62.9484 45.3161 62.9484 41.2403 62.9484 41.2403" stroke="white" stroke-width="2" stroke-miterlimit="10" stroke-linecap="round" stroke-linejoin="round"/>
<path d="M65.2127 41.2403L65.6009 42.4048H69.6766L70.0648 41.2403" stroke="white" stroke-width="1.5" stroke-miterlimit="10" stroke-linecap="round" stroke-linejoin="round"/>
<path d="M66.0537 43.9575L67.6711 47.451L69.4179 43.9575H66.0537Z" stroke="white" stroke-width="1.5" stroke-miterlimit="10" stroke-linecap="round" stroke-linejoin="round"/>
<path d="M100.02 22.577H94.3448V37.9408H92.9461V22.577H87.2827V21.3829H100.02V22.577ZM114.622 30.5603C114.622 32.0842 114.356 33.4222 113.825 34.5747C113.302 35.727 112.552 36.614 111.574 37.2358C110.596 37.8574 109.466 38.1683 108.185 38.1683C106.251 38.1683 104.69 37.4784 103.499 36.0985C102.309 34.7111 101.714 32.8423 101.714 30.492V28.7862C101.714 27.2775 101.98 25.9432 102.51 24.7832C103.048 23.6157 103.807 22.721 104.785 22.0994C105.763 21.4701 106.889 21.1555 108.162 21.1555C109.436 21.1555 110.558 21.4625 111.528 22.0766C112.506 22.6907 113.26 23.5588 113.792 24.6809C114.322 25.8029 114.599 27.1031 114.622 28.5815V30.5603ZM113.223 28.7635C113.223 26.7695 112.771 25.2078 111.869 24.0782C110.967 22.9485 109.731 22.3837 108.162 22.3837C106.623 22.3837 105.395 22.9523 104.477 24.0895C103.568 25.2191 103.113 26.7999 103.113 28.8317V30.5603C103.113 32.5239 103.568 34.0819 104.477 35.2342C105.387 36.379 106.623 36.9514 108.185 36.9514C109.769 36.9514 111.005 36.3866 111.892 35.257C112.779 34.1198 113.223 32.539 113.223 30.5148V28.7635ZM129.064 22.577H123.39V37.9408H121.99V22.577H116.328V21.3829H129.064V22.577ZM148.681 32.7778C148.491 34.5215 147.866 35.8559 146.805 36.7808C145.751 37.7058 144.344 38.1683 142.585 38.1683C141.357 38.1683 140.269 37.8612 139.322 37.2471C138.381 36.633 137.654 35.7649 137.139 34.6429C136.623 33.5132 136.361 32.2244 136.354 30.7764V28.627C136.354 27.1562 136.611 25.8522 137.127 24.715C137.643 23.5777 138.381 22.7021 139.345 22.088C140.315 21.4664 141.429 21.1555 142.688 21.1555C144.462 21.1555 145.861 21.6369 146.884 22.5997C147.916 23.555 148.515 24.878 148.681 26.5687H147.271C146.922 23.7559 145.394 22.3496 142.688 22.3496C141.187 22.3496 139.989 22.9106 139.094 24.0327C138.207 25.1547 137.764 26.7051 137.764 28.6839V30.7081C137.764 32.6186 138.196 34.1425 139.06 35.2797C139.932 36.4169 141.107 36.9855 142.585 36.9855C144.049 36.9855 145.152 36.6368 145.895 35.9393C146.638 35.2342 147.097 34.1804 147.271 32.7778H148.681ZM161.02 33.3009H153.503L151.797 37.9408H150.33L156.596 21.3829H157.926L164.193 37.9408H162.737L161.02 33.3009ZM153.935 32.1069H160.576L157.256 23.0888L153.935 32.1069ZM168.491 21.3829L174.598 35.9961L180.728 21.3829H182.593V37.9408H181.194V30.7309L181.308 23.339L175.144 37.9408H174.064L167.923 23.3958L168.036 30.6854V37.9408H166.638V21.3829H168.491ZM188.211 28.5701H192.316C193.446 28.5701 194.423 28.7597 195.25 29.1387C196.076 29.5103 196.706 30.0485 197.138 30.7536C197.577 31.4511 197.797 32.2775 197.797 33.2328C197.797 34.696 197.308 35.8483 196.331 36.6899C195.353 37.5238 193.999 37.9408 192.27 37.9408H186.812V21.3829H188.211V28.5701ZM188.211 29.7642V36.7581H192.305C193.586 36.7581 194.587 36.4434 195.307 35.8142C196.027 35.1774 196.388 34.3093 196.388 33.21C196.388 32.1637 196.039 31.3336 195.341 30.7195C194.643 30.0978 193.666 29.7794 192.407 29.7642H188.211ZM201.926 37.9408H200.527V21.3829H201.926V37.9408ZM217.119 21.3829H218.518V37.9408H217.119V23.7711L207.691 37.9408H206.281V21.3829H207.691V35.5413L217.119 21.3829ZM215.777 17.3117C215.777 18.1835 215.477 18.8886 214.879 19.4269C214.287 19.9652 213.491 20.2344 212.49 20.2344C211.505 20.2344 210.709 19.969 210.102 19.4383C209.503 18.9 209.204 18.1912 209.204 17.3117H210.364C210.364 17.9409 210.549 18.4224 210.921 18.756C211.3 19.0895 211.823 19.2563 212.49 19.2563C213.157 19.2563 213.677 19.082 214.048 18.7332C214.427 18.3845 214.617 17.9107 214.617 17.3117H215.777ZM93.3078 44.8753L99.1452 60.3867L104.969 44.8753H109.514V65.1127H106.011V58.4414L106.359 49.518L100.382 65.1127H97.8662L91.9039 49.5316L92.2513 58.4414V65.1127H88.7487V44.8753H93.3078ZM125.262 60.401H117.423L115.783 65.1127H112.127L119.772 44.8753H122.927L130.586 65.1127H126.916L125.262 60.401ZM118.409 57.5654H124.275L121.343 49.1699L118.409 57.5654ZM145.833 47.711H136.493V65.1127H132.99V44.8753H145.833V47.711ZM157.23 60.401H149.391L147.751 65.1127H144.095L151.74 44.8753H154.896L162.554 65.1127H158.885L157.23 60.401ZM150.378 57.5654H156.244L153.311 49.1699L150.378 57.5654ZM174.98 50.3933C174.98 49.485 174.637 48.7623 173.951 48.2247C173.266 47.6878 172.335 47.4189 171.158 47.4189C170.147 47.4189 169.304 47.6878 168.628 48.2247C167.952 48.7533 167.613 49.4391 167.613 50.282H164.111C164.111 49.1796 164.417 48.1976 165.028 47.3355C165.639 46.4738 166.488 45.8066 167.572 45.334C168.655 44.8521 169.851 44.6112 171.158 44.6112C173.474 44.6112 175.272 45.1162 176.55 46.1262C177.838 47.1362 178.483 48.5495 178.483 50.3655C178.483 51.2829 178.204 52.1258 177.649 52.8951C177.092 53.6643 176.314 54.2711 175.313 54.7162C176.444 55.105 177.306 55.6983 177.898 56.4953C178.501 57.2827 178.802 58.2647 178.802 59.4415C178.802 61.2582 178.107 62.7035 176.717 63.7787C175.327 64.8442 173.474 65.3767 171.158 65.3767C169.731 65.3767 168.438 65.1218 167.279 64.6126C166.13 64.1028 165.264 63.408 164.681 62.5275C164.106 61.647 163.819 60.6371 163.819 59.4972H167.321C167.321 60.3686 167.682 61.1049 168.406 61.7072C169.128 62.3004 170.046 62.5967 171.158 62.5967C172.399 62.5967 173.396 62.3049 174.146 61.7214C174.906 61.1372 175.285 60.3777 175.285 59.4415C175.285 58.3023 174.952 57.4774 174.285 56.9676C173.627 56.4488 172.659 56.1893 171.38 56.1893H169.003V53.4094H171.255C173.738 53.4094 174.98 52.404 174.98 50.3933ZM194.467 44.8753H197.983V65.1127H194.467V50.6993L185.585 65.1127H182.069V44.8753H185.585V59.3031L194.467 44.8753ZM218.262 65.1127H214.76V56.1201H205.711V65.1127H202.195V44.8753H205.711V53.2981H214.76V44.8753H218.262V65.1127Z" fill="black"/>
<defs>
<radialGradient id="paint0_radial" cx="0" cy="0" r="1" gradientUnits="userSpaceOnUse" gradientTransform="translate(36.2966 37.1567) scale(25.0979 22.9236)">
<stop stop-color="#FFDA00"/>
<stop offset="1" stop-color="#FFC600"/>
</radialGradient>
</defs>
</svg>
