<svg width="250" height="71" viewBox="0 0 250 71" fill="none" xmlns="http://www.w3.org/2000/svg">
<path d="M250 1H0.0500946V69.6235H250V1Z" fill="black" stroke="white" stroke-miterlimit="10"/>
<path d="M198.507 30.9539C198.507 29.2509 197.105 27.8483 195.402 27.8483C193.699 27.8483 192.296 29.2509 192.296 30.9539C192.296 32.657 193.699 34.0595 195.402 34.0595C197.105 34.0595 198.507 32.657 198.507 30.9539Z" fill="#B82134"/>
<path d="M148.317 45.6303C148.317 51.5911 145.261 53.6949 143.408 53.6949C140.102 53.6949 138.199 50.0884 138.199 42.9255C138.199 34.911 139.802 31.9557 143.007 31.9557C144.61 31.9557 148.317 33.6087 148.317 40.2206V45.6303V45.6303ZM153.827 21.4869H144.36V22.4887H148.267V35.1114C146.764 32.0058 144.46 30.9038 141.405 30.9038C136.145 30.9038 132.038 36.9647 132.038 43.2761C132.038 50.1384 135.544 54.9972 142.206 54.9972C144.911 54.9972 147.065 53.3442 148.217 50.439V54.2959H156.532V53.3442H153.827C153.827 53.3943 153.827 21.4869 153.827 21.4869Z" fill="white"/>
<path d="M99.2286 42.7752C99.2286 50.5892 97.8261 54.1957 93.869 54.1957C89.8618 54.1957 88.5093 50.5392 88.5093 42.7752C88.5093 34.9611 89.9118 31.3045 93.869 31.3045C97.8762 31.3546 99.2286 35.0112 99.2286 42.7752ZM93.869 30.6033C87.3572 30.6033 81.8473 36.1132 81.8473 42.8253C81.8473 49.5374 87.3072 55.0473 93.869 55.0473C100.381 55.0473 105.891 49.5374 105.891 42.8253C105.891 36.1132 100.431 30.6033 93.869 30.6033Z" fill="white"/>
<path d="M124.374 42.7752C124.374 50.5892 122.971 54.1957 119.014 54.1957C115.057 54.1957 113.655 50.5392 113.655 42.7752C113.655 34.9611 115.057 31.3045 119.014 31.3045C123.021 31.3546 124.374 35.0112 124.374 42.7752ZM119.014 30.6033C112.503 30.6033 106.993 36.1132 106.993 42.8253C106.993 49.5374 112.452 55.0473 119.014 55.0473C125.526 55.0473 131.036 49.5374 131.036 42.8253C131.036 36.1132 125.576 30.6033 119.014 30.6033Z" fill="white"/>
<path d="M201.012 53.4444V54.346H189.992V53.4444H192.697V36.6642H190.393V35.6624H198.257V53.4444H201.012Z" fill="white"/>
<path d="M204.969 32.4065H202.264V31.3046H210.579V35.9128C212.332 32.1561 215.087 30.6534 218.143 30.6534C221.148 30.6534 224.504 32.8574 224.504 37.7161V53.3943H227.209V54.2959H216.289V53.3943H218.894V36.0631C218.894 33.4083 217.642 32.4065 215.889 32.4065C212.783 32.4065 210.579 36.4638 210.579 40.3709V53.3943H213.234V54.2959H202.264V53.3943H204.969V32.4065Z" fill="white"/>
<path d="M242.837 46.3817V47.3835H247.245C246.343 51.1903 242.887 54.0455 239.732 54.0455C233.721 54.0455 233.37 47.6339 233.37 43.1759V41.9237H248.597C248.197 35.7125 244.139 30.7035 238.028 30.7035C232.168 30.7035 227.459 36.1633 227.459 43.0256C227.459 50.439 232.619 55.0473 239.481 55.0473C243.238 55.0473 247.546 51.7413 248.197 47.133L248.297 46.3817H242.837ZM238.079 31.5049C241.084 31.5049 242.687 35.3618 242.687 41.022H233.42C233.42 35.3618 235.073 31.5049 238.079 31.5049Z" fill="white"/>
<path d="M183.38 29.5013V30.5532H187.688L181.978 45.981L176.668 30.5532H179.774V29.5013H167.201V30.5532H170.106L171.96 35.7125L168.103 45.981L162.392 29.5013H153.326V30.5532H156.231L164.947 54.9972H165.899L172.511 37.2152L178.822 54.9972H179.774L188.74 30.8537L189.191 29.5013C189.191 29.5013 183.38 29.5013 183.38 29.5013Z" fill="white"/>
<path d="M69.0242 35.8628V36.8646H74.4841V53.9954C73.7828 54.0455 73.0816 54.0956 72.3302 54.0956C66.6199 54.0956 63.5143 50.6894 63.5143 38.1168C63.5143 25.444 66.8704 22.088 73.1316 22.088C73.9832 22.088 75.0852 22.1381 77.1389 22.5889V27.1972H78.1407V21.8876C75.6361 21.2865 74.0834 21.1863 73.1316 21.1863C60.7093 21.1863 53.897 29.8018 53.897 38.1168C53.897 47.083 60.4588 55.0473 71.4286 55.0473C74.6844 55.0473 77.8401 54.4462 80.1443 52.8433V52.693C80.1443 52.693 80.1443 52.693 80.1944 52.693V35.8628H69.0242V35.8628Z" fill="white"/>
<path d="M198.507 30.9539C198.507 29.2509 197.105 27.8483 195.402 27.8483C193.699 27.8483 192.296 29.2509 192.296 30.9539C192.296 32.657 193.699 34.0595 195.402 34.0595C197.105 34.0595 198.507 32.657 198.507 30.9539Z" fill="#B82134"/>
<path d="M148.317 45.6303C148.317 51.5911 145.261 53.6949 143.408 53.6949C140.102 53.6949 138.199 50.0884 138.199 42.9255C138.199 34.911 139.802 31.9557 143.007 31.9557C144.61 31.9557 148.317 33.6087 148.317 40.2206V45.6303V45.6303ZM153.827 21.4869H144.36V22.4887H148.267V35.1114C146.764 32.0058 144.46 30.9038 141.405 30.9038C136.145 30.9038 132.038 36.9647 132.038 43.2761C132.038 50.1384 135.544 54.9972 142.206 54.9972C144.911 54.9972 147.065 53.3442 148.217 50.439V54.2959H156.532V53.3442H153.827C153.827 53.3943 153.827 21.4869 153.827 21.4869Z" fill="white"/>
<path d="M99.2286 42.7752C99.2286 50.5892 97.8261 54.1957 93.869 54.1957C89.8618 54.1957 88.5093 50.5392 88.5093 42.7752C88.5093 34.9611 89.9118 31.3045 93.869 31.3045C97.8762 31.3546 99.2286 35.0112 99.2286 42.7752ZM93.869 30.6033C87.3572 30.6033 81.8473 36.1132 81.8473 42.8253C81.8473 49.5374 87.3072 55.0473 93.869 55.0473C100.381 55.0473 105.891 49.5374 105.891 42.8253C105.891 36.1132 100.431 30.6033 93.869 30.6033Z" fill="white"/>
<path d="M124.374 42.7752C124.374 50.5892 122.971 54.1957 119.014 54.1957C115.057 54.1957 113.655 50.5392 113.655 42.7752C113.655 34.9611 115.057 31.3045 119.014 31.3045C123.021 31.3546 124.374 35.0112 124.374 42.7752ZM119.014 30.6033C112.503 30.6033 106.993 36.1132 106.993 42.8253C106.993 49.5374 112.452 55.0473 119.014 55.0473C125.526 55.0473 131.036 49.5374 131.036 42.8253C131.036 36.1132 125.576 30.6033 119.014 30.6033Z" fill="white"/>
<path d="M201.012 53.4444V54.346H189.992V53.4444H192.697V36.6642H190.393V35.6624H198.257V53.4444H201.012Z" fill="white"/>
<path d="M204.969 32.4065H202.264V31.3046H210.579V35.9128C212.332 32.1561 215.087 30.6534 218.143 30.6534C221.148 30.6534 224.504 32.8574 224.504 37.7161V53.3943H227.209V54.2959H216.289V53.3943H218.894V36.0631C218.894 33.4083 217.642 32.4065 215.889 32.4065C212.783 32.4065 210.579 36.4638 210.579 40.3709V53.3943H213.234V54.2959H202.264V53.3943H204.969V32.4065Z" fill="white"/>
<path d="M242.837 46.3817V47.3835H247.245C246.343 51.1903 242.887 54.0455 239.732 54.0455C233.721 54.0455 233.37 47.6339 233.37 43.1759V41.9237H248.597C248.197 35.7125 244.139 30.7035 238.028 30.7035C232.168 30.7035 227.459 36.1633 227.459 43.0256C227.459 50.439 232.619 55.0473 239.481 55.0473C243.238 55.0473 247.546 51.7413 248.197 47.133L248.297 46.3817H242.837ZM238.079 31.5049C241.084 31.5049 242.687 35.3618 242.687 41.022H233.42C233.42 35.3618 235.073 31.5049 238.079 31.5049Z" fill="white"/>
<path d="M183.38 29.5013V30.5532H187.688L181.978 45.981L176.668 30.5532H179.774V29.5013H167.201V30.5532H170.106L171.96 35.7125L168.103 45.981L162.392 29.5013H153.326V30.5532H156.231L164.947 54.9972H165.899L172.511 37.2152L178.822 54.9972H179.774L188.74 30.8537L189.191 29.5013C189.191 29.5013 183.38 29.5013 183.38 29.5013Z" fill="white"/>
<path d="M69.0242 35.8628V36.8646H74.4841V53.9954C73.7828 54.0455 73.0816 54.0956 72.3302 54.0956C66.6199 54.0956 63.5143 50.6894 63.5143 38.1168C63.5143 25.444 66.8704 22.088 73.1316 22.088C73.9832 22.088 75.0852 22.1381 77.1389 22.5889V27.1972H78.1407V21.8876C75.6361 21.2865 74.0834 21.1863 73.1316 21.1863C60.7093 21.1863 53.897 29.8018 53.897 38.1168C53.897 47.083 60.4588 55.0473 71.4286 55.0473C74.6844 55.0473 77.8401 54.4462 80.1443 52.8433V52.693C80.1443 52.693 80.1443 52.693 80.1944 52.693V35.8628H69.0242V35.8628Z" fill="white"/>
<path d="M198.507 30.9539C198.507 29.2509 197.105 27.8483 195.402 27.8483C193.699 27.8483 192.296 29.2509 192.296 30.9539C192.296 32.657 193.699 34.0595 195.402 34.0595C197.105 34.0595 198.507 32.657 198.507 30.9539Z" fill="#ED5435"/>
<path d="M148.317 45.6303C148.317 51.5911 145.261 53.6949 143.408 53.6949C140.102 53.6949 138.199 50.0884 138.199 42.9255C138.199 34.911 139.802 31.9557 143.007 31.9557C144.61 31.9557 148.317 33.6087 148.317 40.2206V45.6303V45.6303ZM153.827 21.4869H144.36V22.4887H148.267V35.1114C146.764 32.0058 144.46 30.9038 141.405 30.9038C136.145 30.9038 132.038 36.9647 132.038 43.2761C132.038 50.1384 135.544 54.9972 142.206 54.9972C144.911 54.9972 147.065 53.3442 148.217 50.439V54.2959H156.532V53.3442H153.827C153.827 53.3943 153.827 21.4869 153.827 21.4869Z" fill="white"/>
<path d="M99.2286 42.7752C99.2286 50.5892 97.8261 54.1957 93.869 54.1957C89.8618 54.1957 88.5093 50.5392 88.5093 42.7752C88.5093 34.9611 89.9118 31.3045 93.869 31.3045C97.8762 31.3546 99.2286 35.0112 99.2286 42.7752ZM93.869 30.6033C87.3572 30.6033 81.8473 36.1132 81.8473 42.8253C81.8473 49.5374 87.3072 55.0473 93.869 55.0473C100.381 55.0473 105.891 49.5374 105.891 42.8253C105.891 36.1132 100.431 30.6033 93.869 30.6033Z" fill="white"/>
<path d="M124.374 42.7752C124.374 50.5892 122.971 54.1957 119.014 54.1957C115.057 54.1957 113.655 50.5392 113.655 42.7752C113.655 34.9611 115.057 31.3045 119.014 31.3045C123.021 31.3546 124.374 35.0112 124.374 42.7752ZM119.014 30.6033C112.503 30.6033 106.993 36.1132 106.993 42.8253C106.993 49.5374 112.452 55.0473 119.014 55.0473C125.526 55.0473 131.036 49.5374 131.036 42.8253C131.036 36.1132 125.576 30.6033 119.014 30.6033Z" fill="white"/>
<path d="M201.012 53.4444V54.346H189.992V53.4444H192.697V36.6642H190.393V35.6624H198.257V53.4444H201.012Z" fill="white"/>
<path d="M204.969 32.4065H202.264V31.3046H210.579V35.9128C212.332 32.1561 215.087 30.6534 218.143 30.6534C221.148 30.6534 224.504 32.8574 224.504 37.7161V53.3943H227.209V54.2959H216.289V53.3943H218.894V36.0631C218.894 33.4083 217.642 32.4065 215.889 32.4065C212.783 32.4065 210.579 36.4638 210.579 40.3709V53.3943H213.234V54.2959H202.264V53.3943H204.969V32.4065Z" fill="white"/>
<path d="M242.837 46.3817V47.3835H247.245C246.343 51.1903 242.887 54.0455 239.732 54.0455C233.721 54.0455 233.37 47.6339 233.37 43.1759V41.9237H248.597C248.197 35.7125 244.139 30.7035 238.028 30.7035C232.168 30.7035 227.459 36.1633 227.459 43.0256C227.459 50.439 232.619 55.0473 239.481 55.0473C243.238 55.0473 247.546 51.7413 248.197 47.133L248.297 46.3817H242.837ZM238.079 31.5049C241.084 31.5049 242.687 35.3618 242.687 41.022H233.42C233.42 35.3618 235.073 31.5049 238.079 31.5049Z" fill="white"/>
<path d="M183.38 29.5013V30.5532H187.688L181.978 45.981L176.668 30.5532H179.774V29.5013H167.201V30.5532H170.106L171.96 35.7125L168.103 45.981L162.392 29.5013H153.326V30.5532H156.231L164.947 54.9972H165.899L172.511 37.2152L178.822 54.9972H179.774L188.74 30.8537L189.191 29.5013C189.191 29.5013 183.38 29.5013 183.38 29.5013Z" fill="white"/>
<path d="M69.0242 35.8628V36.8646H74.4841V53.9954C73.7828 54.0455 73.0816 54.0956 72.3302 54.0956C66.6199 54.0956 63.5143 50.6894 63.5143 38.1168C63.5143 25.444 66.8704 22.088 73.1316 22.088C73.9832 22.088 75.0852 22.1381 77.1389 22.5889V27.1972H78.1407V21.8876C75.6361 21.2865 74.0834 21.1863 73.1316 21.1863C60.7093 21.1863 53.897 29.8018 53.897 38.1168C53.897 47.083 60.4588 55.0473 71.4286 55.0473C74.6844 55.0473 77.8401 54.4462 80.1443 52.8433V52.693C80.1443 52.693 80.1443 52.693 80.1944 52.693V35.8628H69.0242V35.8628Z" fill="white"/>
<path d="M16.8303 24.0415C17.5316 24.8429 18.333 25.5943 19.1344 26.2955C21.3384 25.4941 23.8429 25.4941 26.2472 26.2955C26.7982 26.4959 27.2991 26.6462 27.6999 26.8465C27.6498 26.5961 27.6498 26.3456 27.6498 26.0451C27.6498 23.4905 29.7536 21.3867 32.3082 21.3867C34.8627 21.3867 36.9665 23.4905 36.9665 26.0451C36.9665 28.0988 35.6141 29.8519 33.8109 30.453C35.2635 31.3546 35.7143 31.5049 37.3673 31.8555C40.3226 32.4065 42.3262 31.2044 43.4783 29.7017L44.0292 28.199L47.1849 19.884C47.1849 19.884 32.759 11.1182 21.2382 12.671C15.2274 13.4725 12.7229 13.3222 9.1665 11.9698C7.36325 11.2685 3.90703 10.0162 1.75316 9.1647L0.851533 11.6191L0 13.8231C2.15388 14.6245 5.6101 15.9269 7.41334 16.6281C10.8195 17.9305 12.8732 19.4833 16.8303 24.0415Z" fill="white"/>
<path d="M35.2635 26.0451C35.2635 24.3921 33.911 23.0397 32.2581 23.0397C30.6051 23.0397 29.2527 24.3921 29.2527 26.0451C29.2527 27.6981 30.6051 29.0505 32.2581 29.0505C33.911 29.0505 35.2635 27.6981 35.2635 26.0451Z" fill="white"/>
<path d="M33.4602 39.1186C34.3118 39.319 35.1633 39.2689 35.7644 39.2689C41.6249 39.2689 47.3352 34.5103 47.5356 28.8L44.8307 28.4494C43.879 31.2545 40.9738 33.759 36.6159 33.3082C34.2617 33.0577 33.7608 32.7572 31.3064 31.4548C28.351 29.7518 27.4494 29.2008 24.9449 28.5496C19.5352 27.1972 14.977 30.6534 14.426 34.5604C14.3258 35.2617 14.3759 36.013 14.5762 36.7143L16.6299 36.564C16.6299 36.4638 16.6299 36.3636 16.6299 36.2635C16.8303 35.0112 17.8822 34.0595 19.2847 33.6588C21.4386 33.208 24.995 34.1096 25.2454 36.1132C25.2454 37.8664 24.2937 39.6696 24.2937 39.6696C24.2937 39.6696 19.3348 50.8397 9.26668 45.1795L6.71208 49.337C6.71208 49.337 19.1845 56.8004 30.1042 48.3352C28.9521 47.2332 27.5496 46.2314 25.9968 45.3298C36.2152 48.7359 39.5211 57.652 40.2224 59.8559L44.9309 59.7558C45.3817 57.2513 44.8808 45.8307 33.4602 39.1186Z" fill="white"/>
</svg>
