<svg width="250" height="72" viewBox="0 0 250 72" fill="none" xmlns="http://www.w3.org/2000/svg">
<path d="M250 0H0V72H250V0Z" fill="white"/>
<path d="M250 0H0V72H250V0Z" fill="#4F9E9C"/>
<path d="M64.6036 56.2065H67.105C67.5393 56.2065 67.9557 56.2464 68.3561 56.3281C68.7546 56.4102 69.1111 56.5431 69.4243 56.7292C69.7379 56.9139 69.9871 57.1626 70.1754 57.4726C70.3614 57.7825 70.4554 58.1667 70.4554 58.6228C70.4554 59.2427 70.2889 59.7463 69.9546 60.1323C69.6214 60.5182 69.1464 60.777 68.5296 60.912C69.2579 61.0449 69.8164 61.326 70.2054 61.7544C70.5939 62.1839 70.7886 62.7336 70.7886 63.4007C70.7886 63.7715 70.7182 64.1254 70.5764 64.458C70.4354 64.7928 70.2382 65.0779 69.9854 65.3155C69.7625 65.5269 69.5161 65.6881 69.2425 65.8041C68.9693 65.9164 68.6871 66.0039 68.3936 66.0607C68.1004 66.118 67.7993 66.154 67.4911 66.1673C67.1832 66.1806 66.8825 66.1885 66.5896 66.1885H64.6036V56.2065ZM65.5886 60.5527H66.8014C67.1654 60.5527 67.5043 60.5225 67.8175 60.4617C68.13 60.4008 68.4036 60.2943 68.6364 60.1459C68.8686 59.9998 69.0532 59.8018 69.1893 59.5545C69.3264 59.3057 69.395 58.9954 69.395 58.6228C69.395 58.3182 69.3282 58.0637 69.1979 57.8585C69.0661 57.6533 68.8925 57.4913 68.675 57.3714C68.4564 57.2537 68.2096 57.1698 67.9311 57.1227C67.6539 57.0751 67.3625 57.0503 67.0596 57.0503H65.5889V60.5527H65.5886ZM66.7257 65.3159C67.0696 65.3159 67.4168 65.295 67.7646 65.2533C68.1139 65.2093 68.4289 65.1183 68.7129 64.9739C68.9954 64.8313 69.2254 64.6279 69.4025 64.3669C69.5789 64.1045 69.6668 63.7549 69.6668 63.3157C69.6668 62.8762 69.5661 62.5284 69.3646 62.2717C69.1618 62.0133 68.9014 61.8214 68.5829 61.6921C68.2654 61.5629 67.9089 61.483 67.5146 61.4488C67.12 61.4142 66.7361 61.3991 66.3618 61.3991C66.3014 61.3991 66.2589 61.3991 66.2332 61.3991C66.2082 61.3991 66.175 61.3991 66.135 61.3991C66.0939 61.3991 66.0336 61.3991 65.9525 61.3991C65.8714 61.3991 65.7504 61.4031 65.5889 61.4124V65.3159H66.7257ZM73.3975 64.8879C73.7096 65.0779 74.0943 65.2227 74.5493 65.3155C75.0043 65.4127 75.4239 65.4599 75.8075 65.4599C76.1311 65.4599 76.4568 65.4221 76.785 65.3461C77.1143 65.2698 77.4093 65.1503 77.6721 64.9887C77.9357 64.827 78.1496 64.6121 78.3164 64.3443C78.4843 64.0779 78.5679 63.7492 78.5679 63.3575C78.5679 62.9201 78.4664 62.5738 78.2643 62.3211C78.0614 62.0683 77.8146 61.8743 77.5214 61.7415C77.2286 61.6083 76.9079 61.5229 76.5586 61.4848C76.2089 61.4448 75.8943 61.4257 75.6104 61.4257H75.035V60.5527H75.5204C75.8236 60.5527 76.1389 60.5265 76.4679 60.4692C76.7961 60.4123 77.1021 60.3058 77.3846 60.1557C77.6682 60.0016 77.9004 59.7942 78.0825 59.5321C78.2646 59.2697 78.3554 58.9392 78.3554 58.5396C78.3554 58.2523 78.2922 58.0072 78.1668 57.8016C78.0404 57.5964 77.8696 57.4272 77.6586 57.2944C77.4468 57.1612 77.2007 57.0604 76.9232 56.9938C76.6446 56.9272 76.3546 56.893 76.0504 56.893C75.6975 56.893 75.3514 56.9308 75.0129 57.0071C74.6736 57.0849 74.3779 57.1745 74.1264 57.2811L73.9586 56.3778C74.1411 56.3109 74.3332 56.2561 74.5354 56.2144C74.7364 56.1705 74.9375 56.1341 75.1346 56.1057C75.3304 56.0794 75.5186 56.0603 75.6943 56.0488C75.8718 56.0394 76.0254 56.0355 76.1572 56.0355C76.5922 56.0355 77.0086 56.0812 77.4086 56.1705C77.8075 56.2619 78.1586 56.4081 78.4621 56.6079C78.7657 56.8077 79.0082 57.0679 79.19 57.3876C79.3725 57.7069 79.4629 58.0889 79.4629 58.5396C79.4629 59.1577 79.2732 59.6711 78.8946 60.0761C78.515 60.4811 77.9968 60.7644 77.3404 60.9257V60.9541C77.6836 60.9829 78 61.0683 78.2875 61.2051C78.5764 61.344 78.8232 61.5229 79.0304 61.7415C79.2371 61.9596 79.3961 62.2167 79.5079 62.5075C79.6186 62.7966 79.6747 63.1105 79.6747 63.4432C79.6747 63.9015 79.5768 64.3122 79.3796 64.6733C79.1818 65.0365 78.9089 65.3407 78.56 65.5819C78.2118 65.8253 77.7975 66.0118 77.3175 66.1392C76.8364 66.2685 76.3136 66.3333 75.7479 66.3333C75.2321 66.3333 74.7647 66.2893 74.3454 66.204C73.9257 66.1187 73.5743 66.0193 73.2914 65.9034L73.3975 64.8879ZM81.7204 56.2065H82.8418L86.2536 62.4427H86.2993L89.5593 56.2065H90.6818L86.0264 64.7874C85.9354 64.9602 85.8246 65.1373 85.6929 65.3159C85.5607 65.4984 85.41 65.6601 85.2386 65.8044C85.0664 65.9452 84.8761 66.0633 84.6704 66.1543C84.4621 66.2458 84.2322 66.2893 83.9804 66.2893C83.6061 66.2893 83.2472 66.2476 82.9036 66.1605L83.0104 65.3159C83.11 65.3465 83.2293 65.3749 83.365 65.4034C83.5025 65.4318 83.6657 65.4451 83.8586 65.4451C84.0807 65.4451 84.2679 65.4109 84.4196 65.3407C84.5707 65.2662 84.7075 65.1636 84.8293 65.025C84.95 64.8861 85.0632 64.7172 85.17 64.5174C85.2764 64.3155 85.3943 64.0879 85.5264 63.8309L85.7075 63.4716L81.7204 56.2065ZM99.2932 57.0658H96.14V66.1889H95.1097V57.0658H91.955V56.2065H99.2936V57.0658H99.2932ZM107.935 57.0658H104.782V66.1889H103.751V57.0658H100.596V56.2065H107.935V57.0658H107.935ZM115.305 66.1885V61.8268H114.166C113.915 61.8268 113.699 61.8361 113.523 61.8552C113.346 61.8743 113.181 61.9254 113.03 62.0075C112.879 62.0874 112.732 62.2145 112.59 62.3841C112.449 62.5569 112.288 62.8002 112.105 63.1159L110.362 66.1885H109.21L111.226 62.6271C111.408 62.2944 111.6 62.0356 111.803 61.8495C112.004 61.663 112.251 61.5359 112.545 61.4689V61.4405C112.221 61.4027 111.911 61.3188 111.613 61.1896C111.314 61.0621 111.055 60.8929 110.832 60.6841C110.61 60.4728 110.432 60.2273 110.301 59.9483C110.17 59.665 110.104 59.3493 110.104 58.9957C110.104 58.5393 110.183 58.1361 110.34 57.7865C110.495 57.4387 110.716 57.1479 110.999 56.9139C111.281 56.6817 111.617 56.5049 112.007 56.385C112.396 56.2655 112.828 56.2065 113.303 56.2065H116.351V66.1889H115.305V66.1885ZM115.305 57.0658H113.909C113.546 57.0658 113.199 57.0885 112.87 57.1363C112.543 57.1839 112.254 57.2807 112.007 57.4215C111.759 57.5658 111.56 57.7638 111.408 58.0165C111.256 58.2675 111.18 58.6001 111.18 59.0091C111.18 59.3532 111.256 59.6517 111.408 59.9026C111.56 60.1575 111.757 60.3605 112 60.5185C112.242 60.6762 112.515 60.7925 112.818 60.8685C113.122 60.9448 113.424 60.9826 113.728 60.9826H115.305V57.0658H115.305ZM129.42 61.8858V62.7567H123.385V61.8858H129.42ZM136.591 66.1885V56.2061H137.638V65.3328H142.99V56.2061H144.036V65.3328H145.295V68.9076H144.248V66.1885H136.591ZM148.024 56.2065H153.209V57.0658H149.04V60.5985H152.997V61.4693H149.04V65.3328H153.392V66.1885H148.024V56.2065H148.024ZM163.474 56.2065L167.339 64.989L171.313 56.2065H172.814V66.1889H171.798V57.123L167.734 66.1889H166.839L162.868 57.123V66.1889H161.913V56.2065H163.474ZM176.483 56.2065H177.529V64.7741H177.575L182.942 56.2065H184.139V66.1889H183.093V57.6231H183.047L177.68 66.1889H176.483V56.2065Z" fill="white"/>
<path d="M64.6036 56.2064H67.105C67.5393 56.2064 67.9557 56.2464 68.3561 56.3281C68.7547 56.4102 69.1111 56.543 69.4243 56.7292C69.7379 56.9138 69.9872 57.1626 70.1754 57.4726C70.3614 57.7825 70.4554 58.1666 70.4554 58.6228C70.4554 59.2427 70.2889 59.7463 69.9547 60.1322C69.6214 60.5182 69.1464 60.777 68.5297 60.912C69.2579 61.0448 69.8164 61.326 70.2054 61.7544C70.5939 62.1839 70.7886 62.7336 70.7886 63.4007C70.7886 63.7715 70.7182 64.1254 70.5764 64.458C70.4354 64.7928 70.2382 65.0779 69.9854 65.3155C69.7625 65.5268 69.5161 65.6881 69.2425 65.804C68.9693 65.9164 68.6872 66.0038 68.3936 66.0607C68.1004 66.118 67.7993 66.154 67.4911 66.1673C67.1832 66.1806 66.8825 66.1885 66.5897 66.1885H64.6036V56.2064ZM65.5886 60.5527H66.8014C67.1654 60.5527 67.5043 60.5225 67.8175 60.4616C68.13 60.4008 68.4036 60.2942 68.6364 60.1459C68.8686 59.9998 69.0532 59.8018 69.1893 59.5544C69.3264 59.3057 69.395 58.9954 69.395 58.6228C69.395 58.3182 69.3282 58.0637 69.1979 57.8585C69.0661 57.6533 68.8925 57.4913 68.675 57.3714C68.4564 57.2537 68.2097 57.1698 67.9311 57.1226C67.6539 57.0751 67.3625 57.0503 67.0597 57.0503H65.5889V60.5527H65.5886ZM66.7257 65.3159C67.0697 65.3159 67.4168 65.295 67.7647 65.2532C68.1139 65.2093 68.4289 65.1182 68.7129 64.9739C68.9954 64.8313 69.2254 64.6279 69.4025 64.3669C69.5789 64.1045 69.6668 63.7549 69.6668 63.3157C69.6668 62.8762 69.5661 62.5284 69.3647 62.2717C69.1618 62.0132 68.9014 61.8214 68.5829 61.6921C68.2654 61.5629 67.9089 61.483 67.5147 61.4488C67.12 61.4142 66.7361 61.3991 66.3618 61.3991C66.3014 61.3991 66.2589 61.3991 66.2332 61.3991C66.2082 61.3991 66.175 61.3991 66.135 61.3991C66.0939 61.3991 66.0336 61.3991 65.9525 61.3991C65.8714 61.3991 65.7504 61.403 65.5889 61.4124V65.3159H66.7257ZM73.3975 64.8878C73.7097 65.0779 74.0943 65.2226 74.5493 65.3155C75.0043 65.4127 75.4239 65.4599 75.8075 65.4599C76.1311 65.4599 76.4568 65.4221 76.785 65.3461C77.1143 65.2698 77.4093 65.1503 77.6722 64.9886C77.9357 64.827 78.1497 64.6121 78.3164 64.3442C78.4843 64.0778 78.5679 63.7492 78.5679 63.3575C78.5679 62.9201 78.4664 62.5738 78.2643 62.321C78.0614 62.0683 77.8147 61.8743 77.5214 61.7414C77.2286 61.6082 76.9079 61.5229 76.5586 61.4848C76.2089 61.4448 75.8943 61.4257 75.6104 61.4257H75.035V60.5527H75.5204C75.8236 60.5527 76.1389 60.5264 76.4679 60.4692C76.7961 60.4123 77.1022 60.3058 77.3847 60.1556C77.6682 60.0016 77.9004 59.7942 78.0825 59.5321C78.2647 59.2697 78.3554 58.9392 78.3554 58.5396C78.3554 58.2523 78.2922 58.0072 78.1668 57.8016C78.0404 57.5964 77.8697 57.4272 77.6586 57.2944C77.4468 57.1612 77.2007 57.0604 76.9232 56.9938C76.6447 56.9272 76.3547 56.893 76.0504 56.893C75.6975 56.893 75.3514 56.9308 75.0129 57.0071C74.6736 57.0848 74.3779 57.1745 74.1264 57.281L73.9586 56.3778C74.1411 56.3108 74.3332 56.2561 74.5354 56.2144C74.7364 56.1704 74.9375 56.1341 75.1347 56.1056C75.3304 56.0794 75.5186 56.0603 75.6943 56.0488C75.8718 56.0394 76.0254 56.0354 76.1572 56.0354C76.5922 56.0354 77.0086 56.0812 77.4086 56.1704C77.8075 56.2619 78.1586 56.408 78.4622 56.6078C78.7657 56.8076 79.0082 57.0679 79.19 57.3876C79.3725 57.7069 79.4629 58.0889 79.4629 58.5396C79.4629 59.1577 79.2732 59.6711 78.8947 60.0761C78.515 60.4811 77.9968 60.7644 77.3404 60.9257V60.9541C77.6836 60.9829 78 61.0682 78.2875 61.205C78.5764 61.344 78.8232 61.5229 79.0304 61.7414C79.2372 61.9596 79.3961 62.2166 79.5079 62.5075C79.6186 62.7966 79.6747 63.1105 79.6747 63.4432C79.6747 63.9014 79.5768 64.3122 79.3797 64.6733C79.1818 65.0365 78.9089 65.3407 78.56 65.5819C78.2118 65.8253 77.7975 66.0118 77.3175 66.1392C76.8364 66.2684 76.3136 66.3332 75.7479 66.3332C75.2322 66.3332 74.7647 66.2893 74.3454 66.204C73.9257 66.1187 73.5743 66.0193 73.2914 65.9034L73.3975 64.8878ZM81.7204 56.2064H82.8418L86.2536 62.4427H86.2993L89.5593 56.2064H90.6818L86.0264 64.7874C85.9354 64.9602 85.8247 65.1373 85.6929 65.3159C85.5607 65.4984 85.41 65.66 85.2386 65.8044C85.0664 65.9452 84.8761 66.0632 84.6704 66.1543C84.4622 66.2458 84.2322 66.2893 83.9804 66.2893C83.6061 66.2893 83.2472 66.2476 82.9036 66.1604L83.0104 65.3159C83.11 65.3465 83.2293 65.3749 83.365 65.4034C83.5025 65.4318 83.6657 65.4451 83.8586 65.4451C84.0807 65.4451 84.2679 65.4109 84.4197 65.3407C84.5707 65.2662 84.7075 65.1636 84.8293 65.025C84.95 64.886 85.0632 64.7172 85.17 64.5174C85.2764 64.3154 85.3943 64.0879 85.5264 63.8309L85.7075 63.4716L81.7204 56.2064ZM99.2932 57.0658H96.14V66.1889H95.1097V57.0658H91.955V56.2064H99.2936V57.0658H99.2932ZM107.935 57.0658H104.782V66.1889H103.751V57.0658H100.596V56.2064H107.935V57.0658H107.935ZM115.305 66.1885V61.8268H114.166C113.915 61.8268 113.699 61.8361 113.523 61.8552C113.346 61.8743 113.181 61.9254 113.03 62.0075C112.879 62.0874 112.732 62.2145 112.59 62.384C112.449 62.5568 112.288 62.8002 112.105 63.1159L110.362 66.1885H109.21L111.226 62.627C111.408 62.2944 111.6 62.0356 111.803 61.8494C112.004 61.663 112.251 61.5359 112.545 61.4689V61.4405C112.221 61.4027 111.911 61.3188 111.613 61.1896C111.314 61.0621 111.055 60.8929 110.832 60.6841C110.61 60.4728 110.432 60.2273 110.301 59.9483C110.17 59.665 110.104 59.3492 110.104 58.9957C110.104 58.5392 110.183 58.136 110.34 57.7865C110.495 57.4387 110.716 57.1478 110.999 56.9138C111.281 56.6816 111.617 56.5049 112.007 56.385C112.396 56.2655 112.828 56.2064 113.303 56.2064H116.351V66.1889H115.305V66.1885ZM115.305 57.0658H113.909C113.546 57.0658 113.199 57.0884 112.87 57.1363C112.543 57.1838 112.254 57.2807 112.007 57.4214C111.759 57.5658 111.56 57.7638 111.408 58.0165C111.256 58.2674 111.18 58.6001 111.18 59.009C111.18 59.3532 111.256 59.6516 111.408 59.9026C111.56 60.1574 111.757 60.3605 112 60.5185C112.242 60.6762 112.515 60.7925 112.818 60.8684C113.122 60.9448 113.424 60.9826 113.728 60.9826H115.305V57.0658H115.305ZM136.591 66.1885V56.2061H137.638V65.3328H142.99V56.2061H144.036V65.3328H145.295V68.9076H144.248V66.1885H136.591ZM148.024 56.2064H153.209V57.0658H149.04V60.5984H152.997V61.4693H149.04V65.3328H153.392V66.1885H148.024V56.2064H148.024ZM163.474 56.2064L167.339 64.989L171.313 56.2064H172.814V66.1889H171.798V57.123L167.734 66.1889H166.839L162.868 57.123V66.1889H161.913V56.2064H163.474ZM176.483 56.2064H177.529V64.7741H177.575L182.942 56.2064H184.139V66.1889H183.093V57.623H183.047L177.68 66.1889H176.483V56.2064ZM16.3032 10.9494H14.2675C13.8861 10.9494 13.5714 11.2543 13.5714 11.6266V39.8758C13.5714 40.2523 13.8861 40.5533 14.2679 40.5533H16.3036C16.6875 40.5533 16.9997 40.2523 16.9997 39.8758V11.6266C16.9993 11.2543 16.6872 10.9494 16.3032 10.9494ZM53.1372 10.9494H51.1879C50.8039 10.9494 50.4914 11.2547 50.4914 11.6266V33.9977C50.4914 34.371 50.2997 34.4358 50.0614 34.1424L31.7925 11.4818C31.5543 11.1884 31.05 10.9494 30.6682 10.9494H28.8479C28.4661 10.9494 28.1518 11.2547 28.1518 11.6266V39.8758C28.1518 40.2523 28.4661 40.5533 28.8479 40.5533H30.7968C31.1807 40.5533 31.4972 40.2523 31.4972 39.8758V16.956C31.4972 16.5841 31.6872 16.519 31.9232 16.8106L50.6714 40.0205C50.9054 40.3139 51.4118 40.5533 51.7954 40.5533H53.1372C53.5229 40.5533 53.8354 40.2523 53.8354 39.8758V11.6266C53.8354 11.2543 53.5229 10.9494 53.1372 10.9494ZM83.4172 10.9494H60.9525C60.5682 10.9494 60.2539 11.2547 60.2539 11.6266V13.3574C60.2539 13.7304 60.5682 14.0346 60.9525 14.0346H69.7525C70.1364 14.0346 70.4489 14.3428 70.4489 14.7161V39.8758C70.4489 40.2523 70.7607 40.5533 71.1468 40.5533H73.2268C73.6064 40.5533 73.9229 40.2523 73.9229 39.8758V14.7157C73.9229 14.3424 74.235 14.0342 74.6147 14.0342H83.4172C83.8032 14.0342 84.1154 13.73 84.1154 13.3571V11.6266C84.1154 11.2543 83.8029 10.9494 83.4172 10.9494ZM112.008 37.508H94.66C94.2761 37.508 93.9639 37.2017 93.9639 36.8309V27.8244C93.9639 27.4511 94.2761 27.1472 94.66 27.1472H107.74C108.124 27.1472 108.436 26.843 108.436 26.4679V24.7795C108.436 24.4051 108.124 24.1024 107.74 24.1024H94.66C94.2761 24.1024 93.9639 23.7971 93.9639 23.4241V14.6725C93.9639 14.3003 94.2761 13.9943 94.66 13.9943H111.793C112.174 13.9943 112.489 13.6904 112.489 13.315V11.6276C112.489 11.2543 112.174 10.9494 111.793 10.9494H91.2347C90.8504 10.9494 90.5382 11.2547 90.5382 11.6276V39.8758C90.5382 40.2491 90.8507 40.5533 91.2347 40.5533H112.008C112.391 40.5533 112.704 40.2491 112.704 39.8758V38.1884C112.704 37.8155 112.391 37.508 112.008 37.508ZM171.656 10.9494H149.189C148.803 10.9494 148.491 11.2547 148.491 11.6266V13.3574C148.491 13.7304 148.803 14.0346 149.189 14.0346H157.991C158.373 14.0346 158.688 14.3428 158.688 14.7161V39.8758C158.688 40.2523 159 40.5533 159.381 40.5533H161.461C161.843 40.5533 162.159 40.2523 162.159 39.8758V14.7157C162.159 14.3424 162.471 14.0342 162.851 14.0342H171.656C172.037 14.0342 172.35 13.73 172.35 13.3571V11.6266C172.35 11.2543 172.038 10.9494 171.656 10.9494ZM190.871 10.44C181.638 10.44 175.344 17.5864 175.344 25.7926C175.344 33.9998 181.545 41.0612 190.786 41.0612C200.025 41.0612 206.315 33.9149 206.315 25.7087C206.315 17.5046 200.114 10.44 190.871 10.44ZM190.871 37.975C183.931 37.975 178.9 32.4756 178.9 25.7087C178.9 18.9421 183.845 13.5288 190.786 13.5288C197.728 13.5288 202.759 19.0271 202.759 25.7929C202.759 32.5606 197.815 37.975 190.871 37.975ZM138.778 32.8486H138.78L135.394 28.458C140.166 27.6106 143.633 24.736 143.633 19.7892C143.633 14.4587 139.341 10.9494 132.659 10.9494H120.3C119.918 10.9494 119.602 11.2547 119.602 11.6266V39.8758C119.602 40.2523 119.918 40.5533 120.3 40.5533H122.335C122.719 40.5533 123.029 40.2523 123.029 39.8758V14.7157C123.029 14.3424 123.344 14.0342 123.728 14.0342H132.399C137.303 14.0342 140.166 16.236 140.166 19.9145C140.166 23.6322 137.443 25.4981 133.011 26.1169C132.511 26.186 131.129 26.2094 131.182 27.7477C131.199 28.2773 131.625 28.881 131.625 28.881C131.813 29.183 132.013 29.453 132.121 29.5956L133.891 31.9014L134.612 32.8486L140.096 40.0118C140.326 40.3106 140.826 40.5529 141.208 40.5529H144.024C144.406 40.5529 144.533 40.3103 144.3 40.0118L138.778 32.8486ZM224.929 10.9494H214.259C213.873 10.9494 213.561 11.2547 213.561 11.6266V39.8758C213.561 40.2523 213.873 40.5533 214.259 40.5533H216.293C216.679 40.5533 216.989 40.2523 216.989 39.8758V14.7157C216.989 14.3424 217.303 14.0342 217.685 14.0342H224.669C229.569 14.0342 232.822 16.236 232.822 20.5074C232.822 24.1783 229.949 26.7055 225.473 27.0266H224.517C224.133 27.0266 223.821 27.3294 223.821 27.7027V29.3832C223.821 29.7583 224.133 30.0614 224.517 30.0614H225.568C231.587 29.8318 236.293 26.4064 236.293 20.3785C236.294 14.5012 231.784 10.9494 224.929 10.9494Z" fill="white"/>
</svg>
