<svg width="156" height="120" viewBox="0 0 156 120" fill="none" xmlns="http://www.w3.org/2000/svg">
<path d="M155.613 0H0V120H155.613V0Z" fill="#FFCD03"/>
<path d="M96.5288 67.2867V6.10373C96.5071 5.42554 95.8204 5.42554 95.8204 5.42554H58.8573C58.1861 5.46657 58.2735 6.00928 58.2735 6.00928V67.3208C58.2735 67.3208 58.3107 67.8248 58.8186 67.8735H64.4067C64.4601 66.3306 65.719 65.1112 67.2627 65.1112C68.8165 65.1112 70.0599 66.3306 70.1234 67.8735H75.0062C75.0697 66.3306 76.3208 65.1112 77.863 65.1112C79.4098 65.1112 80.6625 66.3306 80.7259 67.8735H84.9368C85.0034 66.3306 86.2552 65.1112 87.7982 65.1112C89.3443 65.1112 90.5985 66.3306 90.6635 67.8735H95.9272C95.928 67.8735 96.5504 67.8735 96.5288 67.2867Z" fill="#EB2227"/>
<path d="M84.1912 25.872H74.9667V33.0627H85.2798V36.7316H70.4981V12.2509H84.7347V15.9198H74.9667V22.2395H84.192V25.872H84.1912Z" fill="white"/>
<path d="M68.8684 45.593H66.3546V56.0268H68.8684V45.593Z" fill="white"/>
<path d="M88.4725 45.593H85.9556V56.0268H88.4725V45.593Z" fill="white"/>
<path d="M73.92 45.593H70.6111V54.0101H73.92V45.593Z" fill="white"/>
<path d="M78.9832 45.593H75.6859V54.0101H78.9832V45.593Z" fill="white"/>
<path d="M84.1038 45.593H80.8018V54.0101H84.1038V45.593Z" fill="white"/>
<path d="M15.7424 88.0867H18.7022V93.9257H18.761C19.0544 93.4171 19.3688 92.9463 19.6622 92.4756L22.6614 88.0867H26.3257L21.9553 93.7112L26.5602 101.294H23.0725L19.8395 95.5918L18.7029 96.9838V101.294H15.7432V88.0867H15.7424Z" fill="black"/>
<path d="M30.6139 97.9037L29.6733 101.294H26.5773L30.6139 88.0862H34.5329L38.6284 101.294H35.4155L34.3966 97.9037H30.6139ZM33.9654 95.6702L33.1424 92.8668C32.9071 92.0826 32.6725 91.104 32.4766 90.3205H32.4371C32.2413 91.104 32.0454 92.1042 31.8294 92.8668L31.0459 95.6702H33.9654Z" fill="black"/>
<path d="M39.9012 88.2628C40.8612 88.1064 42.2911 87.9887 43.879 87.9887C45.8385 87.9887 47.2103 88.2814 48.151 89.0269C48.9345 89.654 49.3657 90.5745 49.3657 91.7892C49.3657 93.4754 48.1703 94.6321 47.0338 95.0432V95.1012C47.9543 95.4721 48.4638 96.3546 48.7967 97.5694C49.2085 99.0605 49.6196 100.783 49.8743 101.294H46.8178C46.6018 100.922 46.2883 99.8447 45.8965 98.2166C45.5435 96.5714 44.9752 96.1201 43.7605 96.1007H42.8594V101.294H39.9012V88.2628ZM42.8594 93.9469H44.0354C45.5242 93.9469 46.4067 93.2006 46.4067 92.0455C46.4067 90.83 45.5838 90.2223 44.2119 90.2037C43.4872 90.2037 43.0754 90.2617 42.8594 90.3005V93.9469Z" fill="black"/>
<path d="M54.2818 97.9037L53.3411 101.294H50.2451L54.2818 88.0862H58.2008L62.2962 101.294H59.0826L58.0637 97.9037H54.2818ZM57.6317 95.6702L56.8088 92.8668C56.5734 92.0826 56.338 91.104 56.143 90.3205H56.1035C55.9076 91.104 55.7117 92.1042 55.4965 92.8668L54.7122 95.6702H57.6317Z" fill="black"/>
<path d="M63.5674 88.2628C64.3517 88.1064 65.9388 87.9887 67.4283 87.9887C69.2508 87.9887 70.3672 88.1645 71.328 88.7319C72.2485 89.2236 72.9151 90.1239 72.9151 91.3201C72.9151 92.4953 72.2291 93.5931 70.7396 94.142V94.1815C72.2485 94.5926 73.3656 95.7299 73.3656 97.4331C73.3656 98.6292 72.8175 99.5699 71.9945 100.236C71.0338 101.001 69.4273 101.43 66.8013 101.43C65.3318 101.43 64.2356 101.333 63.5682 101.235V88.2628H63.5674ZM66.5272 93.3183H67.5065C69.0751 93.3183 69.9174 92.671 69.9174 91.6917C69.9174 90.6922 69.1532 90.1627 67.8007 90.1627C67.1543 90.1627 66.7819 90.2029 66.5272 90.2401V93.3183V93.3183ZM66.5272 99.1774C66.8214 99.2161 67.1736 99.2161 67.6838 99.2161C69.0356 99.2161 70.2317 98.7067 70.2317 97.3154C70.2317 95.9823 69.0363 95.4558 67.5468 95.4558H66.528V99.1774H66.5272Z" fill="black"/>
<path d="M77.9102 97.9037L76.9695 101.294H73.8735L77.9102 88.0862H81.8299L85.9246 101.294H82.711L81.6937 97.9037H77.9102ZM81.2617 95.6702L80.4387 92.8668C80.2026 92.0826 79.9688 91.104 79.7713 90.3205H79.7342C79.5368 91.104 79.3417 92.1042 79.1257 92.8668L78.3414 95.6702H81.2617Z" fill="black"/>
<path d="M87.2949 98.2166C88.097 98.6284 89.3326 99.0395 90.6062 99.0395C91.9773 99.0395 92.7027 98.4721 92.7027 97.6088C92.7027 96.7859 92.0756 96.3152 90.4885 95.7469C88.2936 94.9843 86.8637 93.7688 86.8637 91.848C86.8637 89.5944 88.7435 87.8702 91.8596 87.8702C93.3491 87.8702 94.4469 88.183 95.2312 88.536L94.5638 90.9453C94.0343 90.6914 93.0944 90.319 91.8007 90.319C90.5078 90.319 89.8815 90.9066 89.8815 91.5926C89.8815 92.4349 90.6255 92.8073 92.3311 93.453C94.6629 94.3162 95.76 95.5309 95.76 97.3921C95.76 99.6078 94.056 101.488 90.4304 101.488C88.9207 101.488 87.432 101.097 86.6872 100.685L87.2949 98.2166Z" fill="black"/>
<path d="M96.9739 99.7069C96.9739 98.6486 97.6986 97.8837 98.7368 97.8837C99.775 97.8837 100.482 98.6292 100.482 99.7069C100.482 100.745 99.7757 101.509 98.7166 101.509C97.6978 101.509 96.9739 100.745 96.9739 99.7069Z" fill="black"/>
<path d="M111.591 100.921C111.043 101.195 109.808 101.489 108.201 101.489C103.636 101.489 101.284 98.6478 101.284 94.886C101.284 90.3786 104.498 87.8702 108.495 87.8702C110.043 87.8702 111.218 88.183 111.747 88.4579L111.14 90.8292C110.532 90.5745 109.69 90.3392 108.632 90.3392C106.26 90.3392 104.418 91.7699 104.418 94.7095C104.418 97.3549 105.986 99.0209 108.652 99.0209C109.552 99.0209 110.552 98.8243 111.141 98.589L111.591 100.921Z" fill="black"/>
<path d="M124.562 94.5531C124.562 98.8839 121.934 101.509 118.075 101.509C114.157 101.509 111.863 98.5502 111.863 94.7877C111.863 90.8292 114.391 87.8702 118.292 87.8702C122.347 87.871 124.562 90.9082 124.562 94.5531ZM115.017 94.7296C115.017 97.3154 116.233 99.1379 118.23 99.1379C120.249 99.1379 121.404 97.2171 121.404 94.6499C121.404 92.2793 120.269 90.24 118.212 90.24C116.193 90.2408 115.017 92.1624 115.017 94.7296Z" fill="black"/>
<path d="M137.198 96.2384C137.14 94.6506 137.081 92.7306 137.081 90.8098H137.021C136.61 92.4952 136.063 94.3757 135.552 95.9233L133.946 101.077H131.613L130.203 95.9636C129.771 94.416 129.321 92.5347 129.007 90.8098H128.968C128.889 92.5935 128.831 94.6328 128.732 96.2772L128.497 101.294H125.734L126.578 88.0862H130.555L131.849 92.4944C132.261 94.0235 132.672 95.6702 132.966 97.217H133.024C133.396 95.688 133.846 93.9461 134.278 92.4751L135.688 88.0862H139.588L140.314 101.294H137.395L137.198 96.2384Z" fill="black"/>
<path d="M16.8705 106.839L16.8697 108.515H17.0369L18.4909 106.84H19.3448L17.6601 108.588C18.2826 108.652 18.6573 109.067 18.9608 109.762C19.0645 110.017 19.2 110.393 19.375 110.705L18.641 110.704C18.5373 110.536 18.4018 110.233 18.2826 109.914C18.0194 109.29 17.6601 109.003 17.006 109.003H16.8697L16.8689 110.703L16.1745 110.703L16.176 106.839L16.8705 106.839Z" fill="black"/>
<path d="M23.3419 106.889C23.6137 106.84 24.1161 106.802 24.5714 106.802C25.2178 106.802 26.2877 106.905 26.287 107.768C26.287 108.247 25.9192 108.543 25.4803 108.638V108.654C26.047 108.734 26.4619 109.054 26.4619 109.613C26.4619 110.626 25.1845 110.753 24.4258 110.753C23.9946 110.753 23.5479 110.721 23.3404 110.704L23.3419 106.889ZM24.0031 110.242C24.2021 110.267 24.3461 110.275 24.5698 110.275C25.0405 110.275 25.7435 110.163 25.7435 109.606C25.7435 109.045 25.1853 108.926 24.5148 108.926H24.0039L24.0031 110.242ZM24.0124 108.461H24.5388C25.0576 108.462 25.5925 108.311 25.5925 107.856C25.5925 107.474 25.2573 107.289 24.5551 107.289C24.3236 107.289 24.1804 107.306 24.0124 107.32V108.461Z" fill="black"/>
<path d="M31.3541 106.845V108.473C31.3541 109.088 31.3456 109.471 31.313 110.021L31.337 110.03C31.5685 109.558 31.7048 109.288 31.9603 108.841L33.1665 106.846L33.9886 106.846L33.9871 110.71H33.3166L33.3174 109.073C33.3174 108.443 33.3337 108.115 33.3662 107.493H33.3422C33.0945 107.988 32.9265 108.298 32.7027 108.689C32.3357 109.288 31.9123 110.031 31.4965 110.708H30.6906L30.6914 106.845H31.3541Z" fill="black"/>
<path d="M41.0741 106.848V107.407L39.8687 107.406L39.8671 110.711H39.1734L39.1742 107.406H37.9688V106.846L41.0741 106.848Z" fill="black"/>
<path d="M45.7417 106.85L45.7409 108.526H45.9089L47.3621 106.851H48.2168L46.5321 108.598C47.1546 108.662 47.5301 109.078 47.8328 109.773C47.9365 110.028 48.072 110.402 48.2478 110.714H47.513C47.4085 110.547 47.2738 110.244 47.1538 109.924C46.8914 109.301 46.5321 109.015 45.8772 109.014H45.7417L45.7409 110.714L45.0472 110.714L45.0488 106.85H45.7417V106.85Z" fill="black"/>
<path d="M52.8766 106.853L52.8759 108.481C52.8759 109.095 52.8674 109.479 52.8356 110.029L52.8596 110.038C53.0911 109.568 53.2266 109.296 53.4828 108.849L54.6883 106.854H55.5112L55.5097 110.717H54.8384L54.8392 109.082C54.8392 108.451 54.8555 108.124 54.888 107.501H54.864C54.6163 107.995 54.4483 108.307 54.2245 108.698C53.8568 109.296 53.4341 110.039 53.0183 110.716H52.2116L52.2132 106.853H52.8766V106.853Z" fill="black"/>
<path d="M65.7406 106.857L65.7399 108.413L67.5763 108.414V106.857H68.2707L68.2699 110.721H67.5755L67.5763 108.972L65.7399 108.972L65.7391 110.719H65.0454L65.047 106.857H65.7406Z" fill="black"/>
<path d="M74.9164 110.725L74.8607 110.237H74.8367C74.6214 110.541 74.2065 110.811 73.6552 110.811C72.8725 110.81 72.4738 110.26 72.4738 109.702C72.4746 108.767 73.3045 108.256 74.7972 108.266V108.185C74.7972 107.866 74.7097 107.292 73.9192 107.292C73.56 107.292 73.1853 107.404 72.9136 107.579L72.7533 107.115C73.073 106.908 73.536 106.773 74.023 106.773C75.2044 106.773 75.4916 107.58 75.4909 108.355V109.798C75.4909 110.134 75.5063 110.46 75.5543 110.725H74.9164V110.725ZM74.8134 108.753C74.047 108.736 73.1768 108.871 73.1768 109.622C73.1768 110.077 73.4803 110.293 73.8387 110.293C74.3412 110.293 74.6617 109.974 74.7732 109.646C74.7972 109.574 74.8127 109.495 74.8127 109.423L74.8134 108.753Z" fill="black"/>
<path d="M85.7296 106.864L85.7288 108.541H85.8968L87.3499 106.864H88.2047L86.5192 108.612C87.1417 108.677 87.5172 109.092 87.8199 109.786C87.9244 110.042 88.0599 110.417 88.2341 110.73L87.5001 110.728C87.3956 110.561 87.2617 110.258 87.1409 109.938C86.8777 109.315 86.5192 109.027 85.8643 109.027H85.7288L85.728 110.728H85.0343L85.0351 106.864H85.7296V106.864Z" fill="black"/>
<path d="M95.6656 108.768C95.6656 110.196 94.6746 110.818 93.7409 110.818C92.695 110.818 91.8883 110.052 91.889 108.831C91.8898 107.537 92.736 106.779 93.8059 106.78C94.9161 106.781 95.6656 107.587 95.6656 108.768ZM92.5997 108.808C92.599 109.654 93.0867 110.292 93.7734 110.292C94.4431 110.292 94.9463 109.662 94.9471 108.791C94.9471 108.136 94.6204 107.306 93.7905 107.306C92.9597 107.306 92.5997 108.072 92.5997 108.808Z" fill="black"/>
<path d="M100.589 106.87L100.588 108.427L102.424 108.427L102.425 106.871H103.119L103.117 110.734H102.423L102.424 108.985H100.588L100.587 110.734L99.8934 110.733L99.895 106.87H100.589Z" fill="black"/>
<path d="M108.306 106.873L108.304 110.185L110.085 110.186L110.086 106.874H110.78L110.779 110.21L111.179 110.218L111.137 111.967H110.595L110.563 110.738L107.611 110.736L107.612 106.874H108.306V106.873Z" fill="black"/>
<path d="M115.734 108.935C115.75 109.885 116.357 110.275 117.06 110.276C117.561 110.277 117.865 110.189 118.129 110.076L118.248 110.58C118.001 110.691 117.578 110.82 116.963 110.819C115.774 110.818 115.063 110.035 115.065 108.87C115.065 107.704 115.752 106.787 116.877 106.788C118.138 106.788 118.473 107.899 118.473 108.609C118.473 108.753 118.457 108.863 118.449 108.935L115.734 108.935ZM117.794 108.433C117.801 107.987 117.611 107.291 116.82 107.291C116.11 107.29 115.799 107.946 115.742 108.432L117.794 108.433Z" fill="black"/>
<path d="M122.7 108.139C122.7 107.645 122.684 107.245 122.669 106.878H123.299L123.331 107.54H123.347C123.635 107.069 124.09 106.791 124.721 106.791C125.654 106.791 126.356 107.581 126.355 108.755C126.355 110.144 125.508 110.831 124.599 110.83C124.088 110.829 123.641 110.606 123.41 110.223H123.393L123.393 112.322H122.698L122.7 108.139ZM123.395 109.169C123.395 109.274 123.411 109.369 123.427 109.456C123.554 109.944 123.978 110.279 124.48 110.279C125.223 110.28 125.654 109.675 125.654 108.787C125.655 108.013 125.248 107.351 124.505 107.351C124.027 107.351 123.58 107.693 123.444 108.22C123.42 108.307 123.396 108.412 123.396 108.507V109.169H123.395Z" fill="black"/>
<path d="M133.147 106.882V107.441H131.941L131.94 110.745H131.246L131.247 107.441L130.042 107.44V106.881L133.147 106.882Z" fill="black"/>
<path d="M137.768 106.884L137.767 108.513C137.767 109.127 137.759 109.51 137.727 110.062L137.75 110.069C137.981 109.599 138.118 109.327 138.374 108.88L139.579 106.885L140.402 106.886L140.4 110.749H139.73L139.73 109.113C139.73 108.482 139.747 108.155 139.779 107.532H139.755C139.508 108.026 139.34 108.338 139.116 108.729C138.749 109.327 138.326 110.07 137.91 110.748L137.104 110.748L137.106 106.884H137.768V106.884Z" fill="black"/>
</svg>
