<svg width="250" height="62" viewBox="0 0 250 62" fill="none" xmlns="http://www.w3.org/2000/svg">
<g clip-path="url(#clip0)">
<path d="M133.143 13.2449C133.143 12.1031 132.805 10.9868 132.171 10.0368C131.537 9.08675 130.637 8.34547 129.582 7.90636C128.528 7.46726 127.367 7.34998 126.246 7.56932C125.125 7.78864 124.094 8.33476 123.283 9.13883C122.472 9.94292 121.917 10.969 121.688 12.0877C121.46 13.2064 121.568 14.3678 121.998 15.4254C122.429 16.483 123.163 17.3894 124.108 18.0306C125.053 18.6718 126.167 19.019 127.309 19.0285C128.076 19.0428 128.837 18.9033 129.548 18.6184C130.259 18.3334 130.905 17.9087 131.449 17.3695C131.993 16.8302 132.423 16.1872 132.714 15.4788C133.005 14.7703 133.151 14.0107 133.143 13.2449Z" fill="#FDDA24"/>
<path d="M148.119 13.2449C148.119 12.1031 147.781 10.9868 147.147 10.0368C146.513 9.08675 145.613 8.34547 144.558 7.90636C143.504 7.46726 142.343 7.34998 141.222 7.56932C140.101 7.78864 139.07 8.33476 138.259 9.13883C137.448 9.94292 136.893 10.969 136.665 12.0877C136.436 13.2064 136.544 14.3678 136.974 15.4254C137.405 16.483 138.139 17.3894 139.084 18.0306C140.029 18.6718 141.143 19.019 142.286 19.0285C143.05 19.038 143.809 18.8952 144.518 18.6084C145.227 18.3217 145.872 17.8968 146.415 17.3586C146.958 16.8202 147.388 16.1793 147.681 15.473C147.973 14.7667 148.122 14.0093 148.119 13.2449Z" fill="#FDDA24"/>
<path d="M92.8333 32.8088L100.191 23.9788C100.317 23.8745 100.407 23.7317 100.446 23.5721C100.486 23.4124 100.472 23.2443 100.408 23.0929C100.343 22.9417 100.232 22.8153 100.09 22.7325C99.9476 22.6498 99.7824 22.6154 99.619 22.6341H94.0952C93.8095 22.6377 93.5281 22.7059 93.2724 22.8337C93.0167 22.9615 92.7934 23.1456 92.619 23.3719L87.5714 29.9885V23.8123C87.5983 23.6499 87.5859 23.4837 87.5355 23.327C87.4852 23.1704 87.3983 23.028 87.2819 22.9118C87.1655 22.7953 87.0231 22.7084 86.8664 22.6581C86.7098 22.6078 86.5433 22.5956 86.381 22.6222H82.3809C82.2186 22.5956 82.0522 22.6078 81.8955 22.6581C81.7388 22.7084 81.5964 22.7953 81.48 22.9118C81.3636 23.028 81.2767 23.1704 81.2264 23.327C81.176 23.4837 81.1636 23.6499 81.1905 23.8123V44.2568C81.1636 44.4192 81.176 44.5856 81.2264 44.7421C81.2767 44.8987 81.3636 45.0411 81.48 45.1574C81.5964 45.2738 81.7388 45.3606 81.8955 45.411C82.0522 45.4613 82.2186 45.4736 82.3809 45.4469H86.381C86.5433 45.4736 86.7098 45.4613 86.8664 45.411C87.0231 45.3606 87.1655 45.2738 87.2819 45.1574C87.3983 45.0411 87.4852 44.8987 87.5355 44.7421C87.5859 44.5856 87.5983 44.4192 87.5714 44.2568V36.8192L94.2262 44.6495C94.3717 44.878 94.5696 45.0685 94.8036 45.2051C95.0376 45.3416 95.3009 45.4205 95.5714 45.435H101.405C101.558 45.4391 101.71 45.3985 101.84 45.3175C101.971 45.2367 102.075 45.1195 102.139 44.9801C102.204 44.841 102.226 44.6858 102.204 44.5339C102.181 44.3822 102.114 44.2403 102.012 44.1259L92.8333 32.8088Z" fill="#219FFF"/>
<path d="M136.857 22.6341H132.595C132.433 22.61 132.268 22.6241 132.113 22.6755C131.957 22.7268 131.816 22.8138 131.7 22.9295C131.584 23.0452 131.497 23.1865 131.446 23.3418C131.395 23.4971 131.381 23.6623 131.405 23.8242V44.2687C131.381 44.4306 131.395 44.5957 131.446 44.7513C131.497 44.9066 131.584 45.0478 131.7 45.1634C131.816 45.2791 131.957 45.3661 132.113 45.4174C132.268 45.4687 132.433 45.4829 132.595 45.4587H136.857C137.02 45.4884 137.188 45.478 137.346 45.4288C137.503 45.3794 137.647 45.2926 137.764 45.1754C137.881 45.0585 137.968 44.9149 138.018 44.7569C138.067 44.599 138.077 44.4314 138.048 44.2687V23.8123C138.077 23.6496 138.067 23.482 138.018 23.3241C137.968 23.1661 137.881 23.0225 137.764 22.9056C137.647 22.7884 137.503 22.7016 137.346 22.6524C137.188 22.603 137.02 22.5926 136.857 22.6223" fill="#219FFF"/>
<path d="M241.202 22.646H231.845C231.683 22.6219 231.517 22.6362 231.362 22.6873C231.207 22.7387 231.066 22.8256 230.95 22.9414C230.835 23.0571 230.747 23.1983 230.697 23.3537C230.645 23.509 230.631 23.6742 230.655 23.8361V44.2806C230.631 44.4425 230.645 44.6076 230.697 44.7631C230.747 44.9185 230.835 45.0597 230.95 45.1753C231.066 45.291 231.207 45.378 231.362 45.4293C231.517 45.4806 231.683 45.4947 231.845 45.4706H236.107C236.271 45.5002 236.438 45.4899 236.595 45.4407C236.753 45.3912 236.897 45.3044 237.014 45.1873C237.131 45.0704 237.219 44.9267 237.267 44.7688C237.317 44.6109 237.328 44.4433 237.298 44.2806V38.8542H240.952C246.083 38.8542 250 36.0337 250 30.9525C250 25.871 246 22.6222 241.214 22.6222L241.202 22.646ZM240.738 33.7609H237.298V27.8821H240.655C245.131 27.8821 245.417 33.7609 240.738 33.7609Z" fill="#219FFF"/>
<path d="M205.321 22.6341H188.714C188.552 22.6045 188.384 22.6148 188.226 22.6643C188.067 22.7135 187.924 22.8005 187.807 22.9174C187.69 23.0344 187.603 23.178 187.553 23.3359C187.505 23.4939 187.495 23.6614 187.524 23.8242V27.8108C187.502 27.9722 187.519 28.1363 187.571 28.2904C187.622 28.4447 187.71 28.5848 187.824 28.7C187.94 28.815 188.079 28.902 188.234 28.9542C188.388 29.0064 188.553 29.0224 188.714 29.0008H193.679V44.2687C193.655 44.4306 193.669 44.5957 193.721 44.7513C193.771 44.9066 193.859 45.0478 193.974 45.1634C194.09 45.2791 194.231 45.3661 194.386 45.4174C194.541 45.4687 194.707 45.4829 194.869 45.4587H199.131C199.293 45.4884 199.462 45.478 199.619 45.4288C199.778 45.3794 199.921 45.2926 200.038 45.1754C200.155 45.0585 200.241 44.9149 200.291 44.7569C200.341 44.599 200.352 44.4314 200.321 44.2687V29.0008H205.286C205.448 29.025 205.612 29.0107 205.769 28.9595C205.924 28.9082 206.066 28.8212 206.181 28.7055C206.297 28.5897 206.383 28.4485 206.434 28.2932C206.486 28.1378 206.5 27.9727 206.476 27.8108V23.848C206.505 23.6852 206.495 23.5176 206.447 23.3597C206.397 23.2018 206.31 23.0581 206.193 22.9412C206.076 22.8243 205.933 22.7373 205.774 22.688C205.616 22.6386 205.448 22.6284 205.286 22.6579" fill="#219FFF"/>
<path d="M159.869 32.9992C163.917 29.1317 161.214 22.646 155 22.646H144.559C144.398 22.6219 144.232 22.6362 144.077 22.6873C143.922 22.7387 143.78 22.8256 143.664 22.9414C143.549 23.0571 143.462 23.1983 143.411 23.3537C143.359 23.509 143.345 23.6742 143.369 23.8361V44.2806C143.347 44.4419 143.363 44.6061 143.416 44.7604C143.468 44.9145 143.555 45.0547 143.67 45.1698C143.785 45.2848 143.925 45.3719 144.08 45.4241C144.234 45.4763 144.398 45.4922 144.559 45.4706H156.048C164.191 45.4706 166.357 36.1171 159.881 33.035L159.869 32.9992ZM149.524 27.775H153.655C154.128 27.775 154.583 27.963 154.917 28.2978C155.252 28.6326 155.441 29.0866 155.441 29.56C155.441 30.0335 155.252 30.4875 154.917 30.8223C154.583 31.1571 154.128 31.3451 153.655 31.3451H149.524V27.775ZM155.012 40.3892H149.524V36.1408H155.012C158.357 36.1408 158.583 40.4011 155.012 40.4011" fill="#219FFF"/>
<path d="M125.143 22.6341H119.964L110.441 35.7244V23.8242C110.47 23.6614 110.46 23.4939 110.41 23.3359C110.361 23.178 110.274 23.0344 110.157 22.9174C110.04 22.8003 109.896 22.7135 109.738 22.6643C109.58 22.6148 109.413 22.6045 109.25 22.6341H105.369C105.207 22.61 105.042 22.6241 104.886 22.6755C104.731 22.7268 104.59 22.8138 104.474 22.9295C104.358 23.0452 104.271 23.1864 104.22 23.3418C104.169 23.4971 104.154 23.6623 104.179 23.8242V44.2687C104.154 44.4306 104.169 44.5957 104.22 44.7511C104.271 44.9066 104.358 45.0476 104.474 45.1634C104.59 45.2791 104.731 45.3661 104.886 45.4174C105.042 45.4687 105.207 45.4829 105.369 45.4587H110.524L120.048 32.5708V44.2568C120.018 44.4196 120.028 44.5871 120.078 44.7451C120.127 44.903 120.214 45.0466 120.331 45.1636C120.448 45.2807 120.592 45.3675 120.75 45.4167C120.908 45.4661 121.075 45.4765 121.238 45.4469H125.119C125.281 45.471 125.446 45.4567 125.602 45.4055C125.757 45.3542 125.898 45.2672 126.014 45.1515C126.13 45.0358 126.217 44.8945 126.268 44.7392C126.319 44.5839 126.334 44.4187 126.309 44.2568V23.8123C126.334 23.6504 126.319 23.4853 126.268 23.3299C126.217 23.1744 126.13 23.0333 126.014 22.9176C125.898 22.8019 125.757 22.7149 125.602 22.6636C125.446 22.6123 125.281 22.5981 125.119 22.6222" fill="#219FFF"/>
<path d="M176.857 40.1274C175.241 40.1274 173.69 39.4856 172.547 38.3429C171.404 37.2002 170.762 35.6505 170.762 34.0346C170.762 32.4186 171.404 30.8689 172.547 29.7262C173.69 28.5836 175.241 27.9417 176.857 27.9417C178.674 27.9623 180.428 28.6097 181.821 29.7743C181.903 29.9098 182.017 30.022 182.155 30.0998C182.293 30.1776 182.448 30.2186 182.607 30.2186C182.766 30.2186 182.921 30.1776 183.059 30.0998C183.197 30.022 183.312 29.9098 183.393 29.7743L185.964 27.2514C186.067 27.1527 186.145 27.0325 186.195 26.8994C186.245 26.7664 186.264 26.6238 186.252 26.4823C186.24 26.3409 186.195 26.204 186.122 26.0817C186.05 25.9594 185.952 25.8549 185.833 25.7758C184.671 24.5811 183.283 23.6277 181.752 22.97C180.219 22.3124 178.572 21.9638 176.905 21.944C175.314 21.944 173.738 22.2573 172.267 22.8661C170.797 23.4749 169.461 24.3672 168.335 25.4922C167.21 26.6171 166.317 27.9525 165.708 29.4224C165.099 30.8922 164.786 32.4675 164.786 34.0583C164.786 35.6493 165.099 37.2246 165.708 38.6944C166.317 40.1641 167.21 41.4995 168.335 42.6245C169.461 43.7494 170.797 44.6417 172.267 45.2505C173.738 45.8593 175.314 46.1728 176.905 46.1728C178.579 46.1578 180.236 45.8116 181.776 45.1539C183.317 44.4964 184.712 43.5402 185.881 42.3408C185.998 42.2618 186.098 42.1572 186.171 42.035C186.243 41.9127 186.286 41.7758 186.298 41.6344C186.312 41.4928 186.293 41.3504 186.243 41.2173C186.193 41.0841 186.114 40.9639 186.012 40.8652L183.44 38.3424C183.359 38.2068 183.243 38.0947 183.107 38.0169C182.969 37.939 182.814 37.898 182.655 37.898C182.497 37.898 182.341 37.939 182.203 38.0169C182.066 38.0947 181.95 38.2068 181.869 38.3424C180.483 39.483 178.748 40.1131 176.952 40.1274" fill="#219FFF"/>
<path d="M228.464 44.3043L220.643 23.5147C220.567 23.2402 220.397 23.0017 220.16 22.8422C219.926 22.6829 219.64 22.6133 219.357 22.646H214.095C213.812 22.6133 213.528 22.6829 213.291 22.8422C213.055 23.0017 212.884 23.2402 212.81 23.5147L204.988 44.3043C204.909 44.432 204.869 44.5794 204.871 44.7292C204.872 44.8792 204.917 45.0254 205 45.1505C205.083 45.2757 205.2 45.3745 205.336 45.4355C205.474 45.4965 205.626 45.517 205.774 45.4944H210.536C210.747 45.4841 210.948 45.4134 211.119 45.2912C211.29 45.1687 211.422 44.9996 211.5 44.8043L212.56 41.7579H220.821L221.881 44.8043C221.959 44.9996 222.091 45.1687 222.262 45.2912C222.433 45.4134 222.634 45.4841 222.845 45.4944H227.607C227.755 45.517 227.907 45.4965 228.045 45.4355C228.181 45.3745 228.298 45.2757 228.381 45.1505C228.464 45.0254 228.509 44.8792 228.51 44.7292C228.512 44.5794 228.472 44.432 228.393 44.3043H228.464ZM214.333 36.4741L216.655 29.7743L218.976 36.4741H214.333Z" fill="#219FFF"/>
<path d="M32.381 23.5981C31.2759 23.5981 30.216 23.1592 29.4347 22.3782C28.6533 21.597 28.2143 20.5377 28.2143 19.433V4.16507C28.2143 3.06042 28.6533 2.00101 29.4347 1.21992C30.216 0.438816 31.2759 -7.62939e-06 32.381 -7.62939e-06C33.486 -7.62939e-06 34.5459 0.438816 35.3272 1.21992C36.1086 2.00101 36.5476 3.06042 36.5476 4.16507V19.4806C36.5476 20.5852 36.1086 21.6447 35.3272 22.4257C34.5459 23.2068 33.486 23.6456 32.381 23.6456" fill="#219FFF"/>
<path d="M22.6548 30.6667C22.486 31.1872 22.2164 31.6694 21.8612 32.0857C21.506 32.5019 21.0722 32.8442 20.5847 33.0928C20.0971 33.3414 19.5653 33.4917 19.0198 33.5348C18.4741 33.578 17.9253 33.5132 17.4048 33.3443L2.88097 28.5842C2.36037 28.4155 1.87813 28.1459 1.46177 27.7908C1.04541 27.4357 0.703087 27.0022 0.45436 26.5148C0.205632 26.0274 0.0553613 25.4959 0.0121273 24.9505C-0.0311066 24.4053 0.0335475 23.8567 0.202389 23.3363C0.371232 22.8158 0.64096 22.3338 0.996174 21.9177C1.35139 21.5014 1.78514 21.1592 2.27264 20.9105C2.76016 20.662 3.29187 20.5118 3.83745 20.4686C4.38304 20.4254 4.9318 20.49 5.4524 20.6587L19.9762 25.4188C20.4969 25.5876 20.9791 25.8571 21.3955 26.212C21.8121 26.5672 22.1543 27.0007 22.4031 27.488C22.6519 27.9754 22.8021 28.5071 22.8453 29.0523C22.8885 29.5978 22.8238 30.1465 22.6548 30.6667Z" fill="#219FFF"/>
<path d="M42.119 30.6667C42.2878 31.1872 42.5574 31.6694 42.9126 32.0857C43.2678 32.5019 43.7016 32.8442 44.1891 33.0928C44.6767 33.3414 45.2085 33.4917 45.754 33.5348C46.2997 33.578 46.8485 33.5132 47.369 33.3443L61.8929 28.5842C62.8857 28.2005 63.694 27.4514 64.1517 26.4907C64.6097 25.53 64.6822 24.4308 64.3547 23.4183C64.0272 22.4058 63.3245 21.5569 62.3907 21.0459C61.4571 20.5351 60.3631 20.4008 59.3333 20.6706L44.8095 25.4307C44.2888 25.5995 43.8066 25.869 43.3902 26.2239C42.9736 26.5791 42.6314 27.0127 42.3826 27.4999C42.1338 27.9873 41.9836 28.519 41.9403 29.0644C41.8972 29.6096 41.9621 30.1583 42.131 30.6786" fill="#219FFF"/>
<path d="M12.4881 61.2147C12.0447 60.8936 11.6689 60.4884 11.3823 60.0222C11.0956 59.556 10.9037 59.0378 10.8174 58.4973C10.7312 57.9569 10.7524 57.4048 10.8797 56.8726C11.007 56.3403 11.238 55.8384 11.5595 55.3954L20.5357 43.043C21.2017 42.1965 22.17 41.6408 23.2371 41.4925C24.3041 41.3442 25.3872 41.6149 26.259 42.2477C27.1307 42.8806 27.7234 43.8263 27.9126 44.8865C28.1019 45.9467 27.8729 47.0389 27.2738 47.9339L18.2976 60.2864C17.9757 60.7287 17.5697 61.1032 17.1027 61.3886C16.6359 61.6742 16.1174 61.8648 15.5768 61.9499C15.0362 62.035 14.4842 62.0127 13.9521 61.8846C13.4201 61.7563 12.9186 61.5247 12.4762 61.2026" fill="#219FFF"/>
<path d="M52.2857 61.2147C52.7283 60.8928 53.1029 60.4868 53.3885 60.0201C53.674 59.5536 53.8648 59.0352 53.9498 58.4948C54.035 57.9545 54.0128 57.4025 53.8845 56.8707C53.7564 56.3391 53.5245 55.8377 53.2024 55.3954L44.2262 43.043C43.5602 42.1965 42.5921 41.6408 41.5248 41.4925C40.4578 41.3442 39.3747 41.6149 38.5029 42.2477C37.6312 42.8806 37.0385 43.8263 36.8493 44.8865C36.66 45.9467 36.889 47.0389 37.4881 47.9339L46.4643 60.2864C46.7864 60.7287 47.1924 61.1032 47.6591 61.3886C48.126 61.6742 48.6445 61.8648 49.1852 61.9499C49.7257 62.035 50.2778 62.0127 50.8098 61.8846C51.3417 61.7563 51.8433 61.5247 52.2857 61.2026" fill="#219FFF"/>
</g>
<defs>
<clipPath id="clip0">
<rect width="250" height="62" fill="white"/>
</clipPath>
</defs>
</svg>
