<svg width="252" height="77" viewBox="0 0 252 77" fill="none" xmlns="http://www.w3.org/2000/svg">
<path d="M251 1H1V76.1503H251V1Z" fill="#014171" stroke="white"/>
<path d="M221.359 48.8008C221.303 49.2454 221.135 50.4152 219.611 50.5671H206.228C204.704 50.4152 204.426 49.2454 204.369 48.8008V28.1407C204.425 27.6949 204.637 26.7475 206.16 26.5956H219.617C221.141 26.7475 221.303 27.6949 221.359 28.1407V48.8008ZM225.993 18.8114H199.735C195.79 19.1297 192.457 21.1306 192.012 25.6071V51.1856C192.457 55.662 195.79 58.0335 199.735 58.3518H225.993C229.938 58.0335 233.271 55.662 233.716 51.1856V25.6071C233.271 21.1306 229.938 19.1297 225.993 18.8114ZM119.725 26.5956H107.986V18.8114H143.821V26.5956H132.082V58.3518H119.725V26.5956V26.5956ZM104.28 26.5956V18.8114H72.1519V58.3518L104.707 58.3433L104.719 50.5677H84.5399L84.5419 42.0989H104.28V34.3339H84.5419V26.5956H104.28L104.28 26.5956ZM175.949 32.7243C175.949 33.58 175.736 34.3307 174.2 34.3307H159.885V26.5694H174.218C175.962 26.5694 175.949 27.7104 175.949 28.4227V32.7243V32.7243ZM179.372 42.9807C183.226 42.672 187.069 40.0483 187.069 35.7393V25.9776C186.622 21.522 183.279 19.1158 179.316 18.7986H147.528L147.529 58.3518H159.885V42.9807H164.803L172.834 58.3518H187.045L177.48 42.9807H179.371H179.372ZM46.574 58.3518L54.8528 33.5155V58.3518H67.2095V18.8114H50.5284L42.4964 38.5821L34.4644 18.8114H17.7832V58.3518H30.1399V33.5155L38.48 58.3518H46.574" fill="#FBC51D"/>
</svg>
