<svg width="115" height="115" viewBox="0 0 115 115" fill="none" xmlns="http://www.w3.org/2000/svg">
<path d="M33.5048 0.749207L22.829 16.6694L12.5276 0.749207H0.54068V46.0749H11.4039V19.2916L18.7084 30.342H26.9495L34.6286 18.7297V46.0749H45.4918V0.749207H33.5048Z" fill="#222C4A"/>
<path d="M31.4446 68.7379L22.829 82.2232L14.5879 68.7379H1.85178L17.3974 94.2102V114.251H28.2606V94.2102L44.3681 68.7379H31.4446Z" fill="#00BCF1"/>
<path d="M91.0048 68.1759C78.0813 68.1759 67.5927 78.6645 67.5927 91.588C67.5927 104.511 78.0813 115 91.0048 115C103.928 115 114.417 104.511 114.417 91.588C114.417 78.6645 103.928 68.1759 91.0048 68.1759ZM103.554 91.4007C103.554 98.3306 97.9348 103.762 91.1921 103.762C84.2621 103.762 78.8305 98.1433 78.8305 91.4007C78.8305 84.658 84.4494 79.0391 91.1921 79.0391C97.9348 79.0391 103.554 84.658 103.554 91.4007Z" fill="#222C4A"/>
<path d="M91.0048 0C78.0813 0 67.5927 10.4886 67.5927 23.4121C67.5927 36.3355 78.0813 46.8241 91.0048 46.8241C103.928 46.8241 114.417 36.3355 114.417 23.4121C114.417 10.4886 103.928 0 91.0048 0ZM103.554 23.4121C103.554 30.342 97.9348 35.7736 91.1921 35.7736C84.2621 35.7736 78.8305 30.1547 78.8305 23.4121C78.8305 16.6694 84.4494 11.0505 91.1921 11.0505C97.9348 10.8632 103.554 16.4821 103.554 23.4121Z" fill="#00BCF1"/>
</svg>
