<svg width="250" height="55" viewBox="0 0 250 55" fill="none" xmlns="http://www.w3.org/2000/svg">
<path d="M15.7397 11.5569C16.9994 11.5569 17.7853 11.6659 18.0945 11.8813C18.4036 12.098 18.559 12.6391 18.559 13.5032C18.559 14.2651 18.8074 14.646 19.3029 14.646C19.5095 14.646 20.2022 14.2543 21.3797 13.4723C22.2681 12.876 23.3983 12.3753 24.7728 11.9742C26.1472 11.5717 27.3909 11.3712 28.5076 11.3712C31.131 11.3712 33.475 12.277 35.5409 14.0901C37.1112 15.4698 38.3291 17.2102 39.1972 19.31C40.106 21.5134 40.561 23.8298 40.561 26.2608C40.561 31.4497 38.8043 35.7232 35.2938 39.0789C32.5879 41.6941 29.5093 43.0024 26.0595 43.0024C24.3029 43.0024 22.4962 42.5906 20.6371 41.7668C20.2657 41.6027 19.9645 41.5192 19.7378 41.5192C19.1179 41.5192 18.8088 42.1371 18.8088 43.3727C18.8088 44.9986 19.3557 46.1737 20.4507 46.8939C21.4633 47.5736 22.0669 48.0325 22.264 48.2682C22.4598 48.505 22.5584 48.9021 22.5584 49.4567C22.5584 50.6923 21.8657 51.6454 20.4817 52.3143C19.0978 52.9832 17.1453 53.3184 14.6257 53.3184C10.143 53.3184 6.21783 52.4219 2.85034 50.6318C1.13555 49.7245 0.278145 48.602 0.278145 47.2639C0.278145 46.6462 0.406421 46.1778 0.665665 45.8575C0.92356 45.5397 1.42585 45.2045 2.16848 44.8546C3.24191 44.3606 3.89812 43.4655 4.13578 42.1666C4.37341 40.8703 4.55434 37.1432 4.67857 30.9853C4.53409 25.9189 4.34776 23.0775 4.12091 22.4596C4.03721 22.2537 3.91972 22.1205 3.76445 22.0584C3.61052 21.9966 3.09879 21.8835 2.23059 21.7193C1.56897 21.5954 1.03158 21.2926 0.619757 20.8081C0.206586 20.3249 0 19.7421 0 19.0623C0 18.2385 0.288947 17.513 0.868198 16.8844C1.4461 16.2572 2.38721 15.6448 3.68748 15.0471C8.74681 12.7616 12.7651 11.5973 15.7397 11.5569ZM18.8074 23.2322L18.3429 31.7283C18.3214 32.0782 18.3119 32.4175 18.3119 32.7472C18.3119 33.3866 18.5914 33.8994 19.149 34.2911C19.7067 34.6828 20.4507 34.8779 21.3797 34.8779C24.23 34.8779 25.6559 32.5413 25.6559 27.8666C25.6559 24.8394 25.0564 22.7073 23.8586 21.473C23.1147 20.7111 22.2262 20.3302 21.1933 20.3302C19.7269 20.3289 18.9316 21.2967 18.8074 23.2322Z" fill="#FF7B00"/>
<path d="M60.4852 11.3712C64.0795 11.3712 67.1255 12.277 69.6262 14.0901C70.9481 15.0579 71.8729 16.1657 72.3996 17.4108C72.9276 18.6572 73.1895 20.3706 73.1895 22.5538L73.1274 27.1573C73.1274 30.3487 73.3541 32.4175 73.8091 33.3651C74.036 33.8186 74.2534 34.1067 74.46 34.2305C74.6665 34.3544 75.1 34.4689 75.7617 34.5711C76.4219 34.6734 76.7528 35.1055 76.7528 35.8672C76.7528 36.8553 76.3545 37.8862 75.5591 38.9563C74.7638 40.0292 73.7364 40.9243 72.4765 41.6443C70.9278 42.5502 69.3048 43.0038 67.6117 43.0038C65.4431 43.0038 63.7284 42.2622 62.4672 40.7803C62.0338 40.2459 61.6302 39.9766 61.2588 39.9766C60.8457 39.9766 60.2988 40.2337 59.6169 40.7493C57.551 42.2514 55.2057 43.0038 52.5834 43.0038C49.8776 43.0038 47.6876 42.4265 46.0146 41.2742C44.9196 40.5137 44.0514 39.5191 43.4114 38.2941C42.77 37.0693 42.4514 35.7864 42.4514 34.4486C42.4514 32.3058 43.3196 30.4119 45.0546 28.7643C47.7605 26.1692 51.8098 24.8622 57.2014 24.8408C58.399 24.8408 59.1538 24.7223 59.4629 24.4853C59.7722 24.2499 59.9274 23.698 59.9274 22.8324C59.9274 20.6492 59.7007 19.069 59.2455 18.0917C58.7905 17.1133 58.0465 16.6247 57.015 16.6247C56.3952 16.6247 55.8417 16.8104 55.3569 17.1805C54.8722 17.5507 54.2672 18.2304 53.5448 19.2198C51.7059 21.835 49.7845 23.1433 47.7807 23.1433C46.7681 23.1433 45.9417 22.8446 45.3017 22.247C44.6603 21.6506 44.3417 20.8674 44.3417 19.8995C44.3417 18.9116 44.7386 17.9223 45.5353 16.9342C46.3293 15.9463 47.4095 15.0808 48.7731 14.3391C52.5107 12.3591 56.4141 11.3712 60.4852 11.3712ZM58.4084 29.2571C57.4996 29.2571 56.7084 29.6271 56.0374 30.3688C55.3664 31.1104 55.0302 31.9961 55.0302 33.0244C55.0302 34.0125 55.2678 34.8119 55.7431 35.419C56.2184 36.026 56.8476 36.3303 57.6334 36.3303C59.286 36.3303 60.1124 34.9412 60.1124 32.159C60.1124 31.0271 59.9936 30.2665 59.756 29.8748C59.5183 29.4831 59.0688 29.2786 58.4084 29.2571Z" fill="#FF7B00"/>
<path d="M93.7953 11.6188C94.9727 11.6188 95.5615 12.4533 95.5615 14.121C95.5615 14.1426 95.5615 14.3175 95.5615 14.646C95.5398 14.9757 95.5303 15.2436 95.5303 15.4495C95.5303 16.5613 95.8612 17.1172 96.5215 17.1172C96.8726 17.1172 97.4207 16.6744 98.1634 15.7887C99.2786 14.5127 100.683 13.4978 102.377 12.7454C104.071 11.9943 105.807 11.6188 107.583 11.6188C111.032 11.6188 113.429 12.876 114.771 15.3876C115.287 16.3137 115.711 16.7781 116.042 16.7781C116.269 16.7781 116.806 16.3662 117.653 15.5424C120.338 12.9271 123.386 11.6188 126.795 11.6188C129.459 11.6188 131.64 12.3497 133.333 13.8114C135.11 15.3351 136 17.622 136 20.6694C136 21.329 135.978 22.4407 135.936 24.0061C135.894 24.5419 135.876 26.1584 135.876 28.8559C135.876 30.5855 135.862 31.801 135.844 32.5009C135.823 32.933 135.813 33.2425 135.813 33.4269C135.813 34.7447 136.228 35.8982 137.053 36.8861C137.548 37.4825 137.852 37.8795 137.968 38.0748C138.082 38.2712 138.137 38.5351 138.137 38.8635C138.137 41.5003 135.028 42.818 128.812 42.818C126.063 42.818 123.848 42.4884 122.165 41.8301C120.48 41.1718 119.639 40.3064 119.639 39.2349C119.639 38.8231 119.695 38.5095 119.809 38.2941C119.921 38.076 120.319 37.5054 121.001 36.5793C121.641 35.7354 121.961 32.9235 121.961 28.1464C121.961 25.3657 121.764 23.43 121.373 22.3384C120.918 21.0409 120.009 20.3921 118.645 20.3921C117.963 20.3921 117.358 20.6034 116.833 21.0248C116.305 21.4474 115.959 21.9777 115.795 22.6157C115.608 23.3573 115.506 25.3347 115.486 28.5462C115.548 32.0055 115.656 34.1067 115.811 34.8484C115.966 35.59 116.487 36.6183 117.376 37.9375C117.582 38.2456 117.685 38.6387 117.685 39.1112C117.685 41.5609 114.473 42.7857 108.048 42.7857C104.186 42.7857 101.582 42.4976 100.24 41.9203C99.1653 41.4679 98.6293 40.6644 98.6293 39.5122C98.6293 38.9967 98.6953 38.6373 98.8303 38.4301C98.9655 38.2228 99.4245 37.7503 100.209 37.0086C100.663 36.5766 100.957 36.1701 101.092 35.7892C101.226 35.4083 101.324 34.7138 101.386 33.7042C101.531 31.4375 101.604 29.1533 101.604 26.8462C101.604 22.8095 100.571 20.7919 98.505 20.7919C96.9562 20.7919 96.0353 21.6573 95.7477 23.387C95.4993 25.0144 95.3765 27.3402 95.3765 30.3688C95.3765 32.6341 95.4224 34.116 95.5169 34.8174C95.6088 35.5173 95.8626 36.2481 96.2757 37.01C96.7714 37.8957 97.0198 38.6159 97.0198 39.1717C97.0198 40.5109 96.08 41.437 94.2005 41.9513C92.1548 42.5071 89.9026 42.7843 87.4452 42.7843C84.2641 42.7843 81.9295 42.5313 80.4415 42.0265C78.9536 41.5231 78.211 40.7249 78.211 39.6347C78.211 39.2215 78.3083 38.873 78.5053 38.5835C78.7024 38.2969 79.1507 37.8419 79.8541 37.224C80.7831 36.3801 81.3205 35.2172 81.465 33.7337C81.6919 31.1804 81.8053 28.5356 81.8053 25.795C81.8053 23.8392 81.7067 22.4744 81.511 21.7018C81.3138 20.9304 80.8952 20.3074 80.2552 19.8335C79.6355 19.3597 79.2371 18.9989 79.0615 18.7526C78.886 18.5063 78.7983 18.1658 78.7983 17.7337C78.7983 16.3541 79.8826 15.2624 82.0524 14.4589C87.2778 12.5866 91.1921 11.639 93.7953 11.6188Z" fill="#FF7B00"/>
<path d="M154.964 11.5569C156.223 11.5569 157.009 11.6659 157.319 11.8813C157.628 12.098 157.783 12.6391 157.783 13.5032C157.783 14.2651 158.031 14.646 158.527 14.646C158.734 14.646 159.426 14.2543 160.604 13.4723C161.491 12.876 162.622 12.3753 163.997 11.9742C165.371 11.5717 166.615 11.3712 167.732 11.3712C170.354 11.3712 172.7 12.277 174.765 14.0901C176.334 15.4698 177.555 17.2102 178.422 19.31C179.331 21.5134 179.786 23.8298 179.786 26.2608C179.786 31.4497 178.029 35.7232 174.517 39.0789C171.812 41.6941 168.735 43.0024 165.285 43.0024C163.528 43.0024 161.72 42.5906 159.861 41.7668C159.49 41.6027 159.19 41.5192 158.963 41.5192C158.343 41.5192 158.033 42.1371 158.033 43.3727C158.033 44.9986 158.58 46.1737 159.676 46.8939C160.687 47.5736 161.292 48.0325 161.489 48.2682C161.685 48.505 161.784 48.9021 161.784 49.4567C161.784 50.6923 161.091 51.6454 159.708 52.3143C158.324 52.9832 156.371 53.3184 153.851 53.3184C149.368 53.3184 145.442 52.4219 142.076 50.6318C140.36 49.7245 139.505 48.602 139.505 47.2639C139.505 46.6462 139.633 46.1778 139.891 45.8575C140.149 45.5397 140.651 45.2045 141.394 44.8546C142.467 44.3606 143.123 43.4655 143.361 42.1666C143.599 40.8703 143.78 37.1432 143.903 30.9853C143.759 25.9189 143.573 23.0775 143.346 22.4596C143.263 22.2537 143.145 22.1205 142.988 22.0584C142.835 21.9966 142.323 21.8835 141.455 21.7193C140.793 21.5954 140.256 21.2926 139.844 20.8081C139.429 20.3249 139.224 19.7421 139.224 19.0623C139.224 18.2385 139.513 17.513 140.092 16.8844C140.67 16.2572 141.611 15.6448 142.912 15.0471C147.971 12.7616 151.989 11.5973 154.964 11.5569ZM158.03 23.2322L157.566 31.7283C157.544 32.0782 157.535 32.4175 157.535 32.7472C157.535 33.3866 157.814 33.8994 158.372 34.2911C158.929 34.6828 159.673 34.8779 160.602 34.8779C163.453 34.8779 164.878 32.5413 164.878 27.8666C164.878 24.8394 164.279 22.7073 163.081 21.473C162.337 20.7111 161.449 20.3302 160.416 20.3302C158.95 20.3289 158.154 21.2967 158.03 23.2322Z" fill="#FF7B00"/>
<path d="M199.243 13.5328V31.4806C199.243 32.9006 199.372 33.9412 199.631 34.5993C199.888 35.2576 200.41 35.8646 201.197 36.4219C201.836 36.8741 202.264 37.2604 202.481 37.5781C202.697 37.8984 202.807 38.3049 202.807 38.7989C202.807 41.4559 199.428 42.7831 192.672 42.7831C189.036 42.7831 186.155 42.4951 184.028 41.9176C183.305 41.713 182.721 41.3523 182.278 40.8368C181.833 40.3212 181.612 39.7358 181.612 39.0747C181.612 38.5203 181.724 38.0868 181.952 37.7786C182.179 37.4691 182.759 36.9737 183.688 36.2953C184.328 35.8215 184.783 35.0489 185.052 33.9774C185.319 32.906 185.455 31.311 185.455 29.1883C185.455 28.5099 185.407 27.2379 185.314 25.3751C185.221 23.5108 185.153 22.4245 185.114 22.1163C184.99 21.2724 184.41 20.6236 183.378 20.17C182.097 19.6142 181.457 18.7904 181.457 17.6988C181.457 16.4012 182.293 15.4334 183.967 14.7954C186.279 13.9097 188.759 13.1586 191.403 12.5408C194.048 11.923 196.093 11.6148 197.538 11.6148C198.674 11.6188 199.243 12.2568 199.243 13.5328ZM193.109 0.00402832C194.905 0.00402832 196.331 0.339188 197.384 1.00816C198.438 1.67847 198.966 2.57896 198.966 3.71094C198.966 5.29656 198.169 6.5524 196.578 7.4798C194.057 8.94156 191.01 9.67246 187.436 9.67246C185.929 9.67246 184.729 9.38442 183.843 8.80697C182.643 8.06531 182.045 7.03696 182.045 5.71786C182.045 3.94786 183.314 2.55742 185.855 1.54791C188.438 0.51821 190.855 0.00402832 193.109 0.00402832Z" fill="#FF7B00"/>
<path d="M222.578 1.51696L222.297 11.1854C222.276 12.1532 222.266 13.5746 222.266 15.4482C222.266 17.5278 222.297 18.754 222.359 19.1242C222.502 19.9681 222.938 20.3907 223.66 20.3907C224.281 20.3907 225.229 19.9951 226.512 19.2022C227.791 18.4095 228.433 17.8173 228.433 17.4255C228.433 17.1994 228.205 16.7875 227.75 16.1899C227.421 15.7578 227.255 15.3459 227.255 14.9542C227.255 12.7306 230.002 11.6175 235.497 11.6175C238.348 11.6175 240.598 11.9055 242.252 12.483C242.912 12.7091 243.46 13.1008 243.895 13.6567C244.328 14.2126 244.545 14.8102 244.545 15.4482C244.545 16.3743 244.1 17.0231 243.212 17.3946C243.028 17.478 242.428 17.6113 241.417 17.7956C240.507 17.9613 239.329 18.5225 237.883 19.4783C236.438 20.4366 235.716 21.1312 235.716 21.5631C235.716 21.8512 236.588 23.2054 238.333 25.6254C240.079 28.0455 241.705 30.1507 243.212 31.9423C244.184 33.116 244.941 33.9398 245.491 34.4135C246.038 34.8874 246.797 35.3922 247.769 35.9279C249.257 36.73 250 37.6466 250 38.6763C250 39.7693 249.529 40.6227 248.59 41.2405C247.65 41.8584 246.364 42.1666 244.733 42.1666H234.693C233.431 42.1465 232.452 41.6835 231.748 40.7775L226.603 34.1981C225.24 32.4686 224.409 31.4375 224.109 31.109C223.809 30.7794 223.555 30.6151 223.348 30.6151C223.1 30.6151 222.934 30.7995 222.853 31.1697C222.769 31.5398 222.729 32.2424 222.729 33.2709C222.729 34.1981 222.833 34.8726 223.038 35.2952C223.243 35.7165 223.721 36.2266 224.464 36.8242C225 37.2563 225.271 37.8957 225.271 38.7396C225.271 40.1813 224.507 41.2216 222.978 41.8596C221.448 42.4978 218.928 42.8168 215.417 42.8168C211.283 42.8168 208.598 42.6405 207.36 42.2905C206.657 42.0858 206.059 41.6685 205.562 41.0386C205.067 40.4114 204.819 39.7478 204.819 39.0479C204.819 38.2659 205.252 37.5861 206.121 37.0086C206.864 36.535 207.338 36.1756 207.547 35.9279C207.752 35.6802 207.917 35.2885 208.041 34.7528C208.517 31.871 208.743 27.4237 208.724 21.4084V14.6433C208.724 12.3376 208.605 10.865 208.367 10.2257C208.128 9.58767 207.547 9.20674 206.616 9.08291C204.921 8.85679 204.074 8.15684 204.074 6.98177C204.074 6.19974 204.447 5.49443 205.19 4.86585C205.934 4.23725 207.152 3.61405 208.847 2.99623C214.259 0.99874 218.267 0 220.869 0C222.048 0.00403805 222.617 0.508793 222.578 1.51696Z" fill="#FF7B00"/>
</svg>
