<svg width="249" height="79" viewBox="0 0 249 79" fill="none" xmlns="http://www.w3.org/2000/svg">
<path fill-rule="evenodd" clip-rule="evenodd" d="M96.7756 72.7116C94.6592 72.7116 92.9963 71.0563 92.9963 68.9496V22.0763C92.9963 19.9696 94.3568 17.3363 96.0197 16.0572L110.759 5.29817C112.422 4.09436 115.219 4.01912 116.881 5.22293L132.074 15.982C133.737 17.1858 135.173 19.8944 135.173 21.9258V68.8743C135.173 70.9811 133.51 72.6363 131.394 72.6363H96.7756V72.7116ZM113.858 7.1039C112.271 7.1039 110.91 8.38295 110.91 10.0382C110.91 11.6182 112.195 12.9725 113.858 12.9725C115.445 12.9725 116.806 11.6934 116.806 10.0382C116.806 8.45818 115.521 7.1039 113.858 7.1039Z" fill="#7C69E0"/>
<path fill-rule="evenodd" clip-rule="evenodd" d="M49.5276 47.4312C48.6202 49.4627 47.2595 51.1179 45.5216 52.2464C43.7831 53.3749 41.5911 53.9769 39.0208 53.9769C36.3756 53.9769 34.1835 53.4502 32.445 52.4722C30.7065 51.4939 29.3458 49.9141 28.2123 47.8074C27.1538 45.7007 26.6248 42.9921 26.6248 39.7569C26.6248 35.2426 27.6833 31.7817 29.7996 29.2236C31.9161 26.7407 34.8637 25.4617 38.7187 25.4617C42.649 25.4617 45.5972 26.6655 47.7135 29.1483C49.83 31.6312 50.8879 35.0921 50.8879 39.5312C50.9633 42.7664 50.5099 45.3997 49.5276 47.4312ZM15.1929 53.4502V32.6844H7.25641V53.4502H0V25.913H22.3732V53.4502H15.1929ZM38.7187 31.9321C40.2304 31.9321 41.4399 32.534 42.3468 33.7378C43.254 34.9417 43.7075 36.8226 43.6319 39.3807C43.6319 42.4655 43.1786 44.5721 42.3468 45.7759C41.4399 46.9797 40.306 47.5817 38.7187 47.5817C37.2071 47.5817 36.0732 46.9797 35.1665 45.7759C34.3347 44.5721 33.8813 42.5407 33.8813 39.7569C33.8813 36.9731 34.3347 34.9417 35.2421 33.7378C36.0732 32.534 37.2827 31.9321 38.7187 31.9321Z" fill="#FFF200"/>
<path fill-rule="evenodd" clip-rule="evenodd" d="M202.135 66.5419C201.908 68.5734 200.019 70.0781 197.978 69.8524L163.586 66.1659C161.546 65.9401 160.034 64.0591 160.261 62.0276L165.325 15.4553C165.552 13.4239 167.215 10.8658 169.029 9.81245L184.902 0.633402C186.716 -0.419931 189.437 -0.118979 191.024 1.23531L204.856 13.5744C206.443 14.9286 207.502 17.7877 207.275 19.8191L202.135 66.5419ZM187.774 2.74004C186.187 2.58956 184.751 3.71813 184.524 5.29813C184.373 6.87813 185.506 8.30766 187.094 8.53338C188.681 8.68386 190.117 7.55528 190.344 5.97528C190.495 4.39528 189.361 2.89053 187.774 2.74004Z" fill="#89BA21"/>
<path fill-rule="evenodd" clip-rule="evenodd" d="M95.032 66.5419C94.8052 68.5734 92.9158 70.0781 90.8749 69.8524L56.4833 66.1659C54.4425 65.9401 52.9308 64.0591 53.1575 62.0276L58.2218 15.4553C58.4485 13.4239 60.1114 10.8658 61.9255 9.81245L77.7985 0.633402C79.6126 -0.419931 82.3336 -0.118979 83.9209 1.23531L97.7531 13.5744C99.3404 14.9286 100.399 17.7877 100.172 19.8191L95.032 66.5419ZM80.5953 2.74004C79.008 2.58956 77.5719 3.71813 77.3451 5.29813C77.1939 6.87813 78.3277 8.30766 79.915 8.53338C81.5023 8.68386 82.9384 7.55528 83.1652 5.97528C83.392 4.39528 82.2582 2.89053 80.5953 2.74004Z" fill="#D9486D"/>
<path fill-rule="evenodd" clip-rule="evenodd" d="M211.803 72.4106C209.762 72.9371 207.721 71.6581 207.192 69.7021L195.854 24.2581C195.325 22.2268 196.006 19.2925 197.366 17.7125L209.006 3.64294C210.367 2.06294 213.012 1.38579 214.902 2.13818L232.211 8.98483C234.176 9.73723 236.142 11.9944 236.671 14.0258L248.084 59.6201C248.613 61.6516 247.328 63.6829 245.363 64.2096L211.803 72.4106ZM216.036 6.80295C215.658 5.22295 214.071 4.3201 212.483 4.6963C210.896 5.07248 209.989 6.65248 210.367 8.23248C210.745 9.81248 212.332 10.7153 213.92 10.3392C215.507 9.96295 216.414 8.38295 216.036 6.80295Z" fill="#FFF200"/>
<path fill-rule="evenodd" clip-rule="evenodd" d="M135.693 78.1291C133.653 78.4301 131.687 76.9253 131.461 74.8939L125.111 28.3966C124.809 26.3653 125.867 23.5062 127.303 22.0767L140.455 9.36147C141.967 7.93195 144.688 7.55576 146.502 8.53385L162.98 17.1862C164.794 18.1643 166.532 20.6472 166.835 22.6786L173.108 69.2511C173.411 71.2824 171.899 73.2386 169.858 73.4644L135.693 78.1291ZM147.107 13.3491C146.88 11.7691 145.444 10.6405 143.781 10.8662C142.194 11.092 141.06 12.5215 141.287 14.1767C141.513 15.7567 142.949 16.8853 144.612 16.6596C146.2 16.3586 147.333 14.9291 147.107 13.3491Z" fill="#31BCFE"/>
<path fill-rule="evenodd" clip-rule="evenodd" d="M176.359 49.2381C174.697 48.0342 173.336 46.3789 172.429 44.1971C171.522 41.9399 171.22 39.3066 171.522 36.1466C171.975 31.7076 173.412 28.3971 175.906 26.1399C178.4 23.9581 181.65 22.98 185.656 23.3561C189.814 23.7323 192.837 25.2371 194.802 27.8704C196.768 30.5037 197.523 33.9647 197.07 38.3285C196.692 41.4885 196.012 43.9714 194.802 45.9274C193.593 47.8837 192.081 49.3132 190.116 50.2914C188.151 51.2694 185.808 51.5704 183.087 51.3447C180.366 51.0437 178.098 50.3666 176.359 49.2381ZM185.052 29.6761C183.54 29.5256 182.255 29.9771 181.197 31.1056C180.139 32.159 179.458 34.1152 179.156 36.9742C178.854 39.6828 179.081 41.7142 179.912 42.9933C180.744 44.2724 181.953 44.9494 183.54 45.0999C185.203 45.2504 186.564 44.7237 187.546 43.6704C188.529 42.5418 189.209 40.5104 189.511 37.5009C189.738 34.9428 189.511 33.0618 188.68 31.7828C187.848 30.5037 186.639 29.8266 185.052 29.6761Z" fill="black"/>
<path d="M113.254 41.4876L110.004 30.1266H102.143L110.004 50.0647C109.626 51.4942 108.643 52.2467 106.98 52.2467C106.451 52.2467 105.544 52.1714 104.335 52.0209V57.7391C106.376 58.0399 107.887 58.1904 108.719 58.1904C110.306 58.1904 111.591 57.8894 112.498 57.3629C113.405 56.8362 114.085 56.0839 114.614 55.2562C115.068 54.4286 115.597 53.1494 116.277 51.4191L123.836 30.1266H116.504L113.254 41.4876Z" fill="black"/>
<path d="M82.8554 25.01C81.4948 25.2357 80.5122 25.6119 79.8319 26.289C79.1517 26.9662 78.4714 28.0948 77.7155 29.75C76.6573 31.9319 75.977 33.2862 75.5235 33.7376C75.07 34.189 74.5409 34.4148 73.8606 34.3395L74.9944 23.9567L67.4359 23.2043L64.5636 50.2148L72.1222 50.9671L73.256 40.2833C73.9362 40.3586 74.4653 40.5843 74.8433 41.0357C75.2212 41.4871 75.5991 42.5405 76.1282 44.271L78.3202 51.4938L86.8614 52.3215L84.2915 44.6471C83.6112 42.5405 82.8554 40.9605 82.1751 39.9071C81.4948 38.8538 80.5878 38.1014 79.5296 37.5748C80.361 37.2738 81.0413 36.8976 81.5704 36.2957C82.0995 35.769 82.6286 34.8662 83.1577 33.7376C83.6868 32.5338 84.2915 31.7062 84.9717 31.2548C85.6521 30.8033 86.6346 30.5776 87.9195 30.7281H88.2975L88.9023 25.01C86.2566 24.8595 84.2159 24.7843 82.8554 25.01Z" fill="black"/>
<path d="M229.204 20.7968L221.721 22.7529L224.064 32.0825L215.901 34.1139L213.558 24.8596L206.151 26.7406L212.727 53.2995L220.21 51.4187L217.564 40.6595L225.652 38.5529L228.373 49.312L235.856 47.3558L229.204 20.7968Z" fill="black"/>
<path d="M134.564 32.6095L138.041 59.5447L145.599 58.4914L142.954 38.1771L151.268 37.0485L153.914 57.3627L161.472 56.3095L157.995 29.3742L134.564 32.6095Z" fill="black"/>
</svg>
