<svg width="250" height="41" viewBox="0 0 250 41" fill="none" xmlns="http://www.w3.org/2000/svg">
<path d="M42.2893 20.5878C42.2291 31.905 32.711 41.0583 21.0545 40.9997C9.36774 40.9704 -0.0599538 31.7296 0.000287093 20.4122C0.0605279 9.09501 9.57859 -0.0582084 21.2352 0.000278736C32.9219 0.0587658 42.3497 9.27048 42.2893 20.5878Z" fill="#221F1F"/>
<path d="M11.1149 15.7625C11.8377 15.9088 12.6209 15.0607 12.892 13.8617C13.163 12.6627 12.8016 11.5514 12.0788 11.4053C11.5968 11.2883 11.0848 11.6685 10.6932 12.2826C11.0245 12.458 11.1751 12.8382 11.0245 13.1891C10.8739 13.4815 10.5426 13.657 10.2414 13.5986C10.0908 14.6513 10.4522 15.6164 11.1149 15.7625ZM7.65101 13.2476C8.22331 10.2648 10.0004 8.10076 11.5968 8.39319C13.2233 8.68562 14.0366 11.3467 13.4643 14.3296C12.9221 17.3124 11.145 19.4765 9.5486 19.1841C7.9221 18.8916 7.07872 16.2305 7.65101 13.2476ZM35.6329 15.7625C17.5907 27.4599 5.15101 21.5236 5.15101 21.5236C4.9703 25.5884 12.139 38.1045 20.7534 38.28C29.3076 38.4264 35.6329 15.7625 35.6329 15.7625ZM9.42811 19.652C11.3257 20.0029 13.3739 17.6635 14.0065 14.4173C14.639 11.1714 13.6149 8.24697 11.7474 7.89604C9.8498 7.54512 7.80161 9.8846 7.16908 13.1307C6.50643 16.4059 7.53053 19.3303 9.42811 19.652ZM15.9041 17.985C16.5366 17.3124 17.2595 16.6398 18.0728 16.0258C21.8076 13.2476 25.8738 12.5458 27.1991 14.4759C27.7112 15.2362 27.7414 16.2597 27.3498 17.4002C28.6752 15.2654 29.0967 13.3061 28.2836 12.224C26.8981 10.411 22.651 11.6685 18.7353 15.0022C17.6209 15.938 16.6872 16.9908 15.9041 17.985ZM20.0607 9.12429C23.0426 7.16496 28.1931 6.08296 30.9341 10.177C29.2474 0.760619 22.1088 6.17068 20.0607 9.12429ZM41.7474 20.5878C41.6871 31.6125 32.4402 40.5025 21.0546 40.4441C9.6992 40.3857 0.572708 31.4079 0.572708 20.383C0.572708 13.2476 4.24741 8.10074 7.74137 5.35186C12.0184 1.98885 14.9402 4.56228 15.9643 6.52161C15.8437 5.70278 15.4823 3.30481 14.5486 1.57944C16.657 0.877594 18.916 0.497428 21.2653 0.526671C32.6209 0.614403 41.7774 9.56293 41.7474 20.5878ZM28.7653 30.6769C26.5365 34.5662 23.7653 37.7536 20.6631 37.6952C18.7353 37.666 16.898 36.9348 15.2113 35.8236C15.7534 34.8877 19.1269 30.1212 28.7653 30.6769Z" fill="#00A046"/>
<path d="M232.469 22.6933L235.662 15.1485L238.855 22.6933H232.469ZM240.302 10.528H231.053L221.355 30.7061H229.097L230.783 26.7581H240.572L242.229 30.7061H250L240.302 10.528Z" fill="black"/>
<path d="M169.428 15.704H178.043V30.6767H185.121V15.704H193.766V10.528H169.428V15.704Z" fill="black"/>
<path d="M152.922 22.6347H165.091V18.5991H152.922V15.6163H167.169V10.528H146.084V30.6767H167.681V25.7053H152.922V22.6347Z" fill="black"/>
<path d="M143.043 14.1249V10.528H120.091V15.704H132.44L119.909 27.109V30.6767H143.102V25.5006H130.663L143.043 14.1249Z" fill="black"/>
<path d="M104.006 25.9393C99.4881 25.9393 96.7169 24.448 96.7169 20.617C96.7169 16.7861 99.4579 15.324 104.006 15.324C108.494 15.324 111.325 16.7861 111.325 20.617C111.325 24.448 108.524 25.9393 104.006 25.9393ZM104.006 10.0309C94.9398 10.0309 89.2772 13.4231 89.2772 20.617C89.2772 27.7818 94.9398 31.2324 104.006 31.2324C113.102 31.2324 118.766 27.811 118.766 20.617C118.766 13.4231 113.102 10.0309 104.006 10.0309Z" fill="black"/>
<path d="M70.1809 15.2654H77.0483C79.1869 15.2654 80.0002 16.3767 80.0002 17.8095C80.0002 18.7746 79.3978 20.5 76.9279 20.5H70.1809V15.2654ZM87.199 17.8095C87.199 13.54 84.3978 10.4988 77.6809 10.4988H63.1931V30.6769H70.1809V24.9743H74.699L79.7291 30.6769H88.4641L82.6207 24.1263C85.5122 22.9272 87.199 20.2953 87.199 17.8095Z" fill="black"/>
<path d="M211.867 10.528L203.253 17.8974V10.528H196.266V30.6767H203.253V25.1205L205.903 22.9566L211.898 30.6767H220.633L210.964 18.7746L220.964 10.528H211.867Z" fill="black"/>
</svg>
