<svg width="249" height="53" viewBox="0 0 249 53" fill="none" xmlns="http://www.w3.org/2000/svg">
<path d="M35.5016 53H3.53333C1.68254 53 0 51.4857 0 49.4666V3.70156C0 1.85076 1.51429 0.168213 3.53333 0.168213H35.6698C37.5206 0.168213 39.2032 1.68251 39.2032 3.70156V49.4666C39.0349 51.4857 37.5206 53 35.5016 53Z" fill="#00BBD4"/>
<path d="M76.8921 53H44.7556C42.9048 53 41.2222 51.4857 41.2222 49.4666V3.70156C41.2222 1.85076 42.7365 0.168213 44.7556 0.168213H76.8921C78.7429 0.168213 80.4254 1.68251 80.4254 3.70156V49.4666C80.4254 51.4857 78.7429 53 76.8921 53Z" fill="#466ADE"/>
<path d="M119.124 53H87.1556C85.3048 53 83.6223 51.4857 83.6223 49.4667V3.53333C83.6223 1.68254 85.1365 0 87.1556 0H119.292C121.143 0 122.825 1.51428 122.825 3.53333V49.2984C122.657 51.3175 121.143 53 119.124 53Z" fill="#F29804"/>
<path d="M160.514 53H128.378C126.527 53 124.844 51.4857 124.844 49.4667V3.53333C124.844 1.68254 126.359 0 128.378 0H160.514C162.365 0 164.048 1.51428 164.048 3.53333V49.2984C164.048 51.3175 162.533 53 160.514 53Z" fill="#73A220"/>
<path d="M202.914 53H170.778C168.927 53 167.244 51.4857 167.244 49.4667V3.53333C167.244 1.68254 168.759 0 170.778 0H202.914C204.765 0 206.448 1.51428 206.448 3.53333V49.2984C206.448 51.3175 204.765 53 202.914 53Z" fill="#0D9BD5"/>
<path d="M245.314 53H213.178C211.327 53 209.644 51.4857 209.644 49.4666V3.70156C209.644 1.85076 211.159 0.168213 213.178 0.168213H245.314C247.165 0.168213 248.848 1.68251 248.848 3.70156V49.4666C248.848 51.4857 247.165 53 245.314 53Z" fill="#D42187"/>
<path d="M138.473 26.7523C138.473 23.219 138.473 19.5174 138.473 15.9841C138.473 13.7968 138.473 11.946 141.67 11.946C144.867 11.946 145.371 13.4603 145.371 16.1523C145.203 20.8634 145.708 25.7428 145.203 30.4539C144.867 35.3333 146.044 37.6888 151.26 36.8476C152.606 36.6793 154.457 36.1746 155.467 37.5206C155.971 38.3619 155.971 39.7079 155.803 40.7174C155.635 42.2317 154.457 42.2317 153.279 42.2317C149.41 42.2317 145.708 42.0634 141.838 42.2317C139.146 42.4 138.137 41.3904 138.137 38.5301C138.641 34.8285 138.473 30.7904 138.473 26.7523Z" fill="#FBFBF8"/>
<path d="M56.5334 30.1174C56.5334 27.7619 56.3651 25.238 56.5334 22.8825C57.0381 19.0127 55.8603 17.1619 51.654 17.6666C49.6349 18.0031 47.9524 17.4984 48.1207 14.6381C48.2889 12.1142 49.8032 11.946 51.654 11.946C57.3746 11.946 63.0953 11.946 68.8159 11.946C70.8349 11.946 72.0127 12.619 72.0127 14.8063C72.0127 17.3301 70.6667 17.8349 68.6476 17.4984C63.4318 16.6571 63.0953 19.5174 63.2635 23.3873C63.4318 28.0984 63.2635 32.8095 63.2635 37.6888C63.2635 40.3809 63.4318 42.5682 59.5619 42.4C55.8603 42.4 56.3651 40.0444 56.3651 37.8571C56.7016 35.3333 56.5334 32.6412 56.5334 30.1174Z" fill="#F7F8FC"/>
<path d="M90.8571 12.2825C101.794 9.08569 99.7746 19.5174 104.149 23.5555C105.495 20.6952 106.841 17.6666 108.019 14.6381C108.86 12.2825 110.206 11.4412 112.73 11.6095C115.59 11.7777 116.768 12.2825 115.086 15.3111C113.571 18.1714 112.394 21.2 110.711 23.892C108.019 28.6031 106 33.4825 106.841 39.0349C107.178 41.3905 106 42.5682 103.476 42.2317C101.794 42.0635 99.6063 42.5682 99.9429 39.8762C101.289 30.1174 95.4 22.8825 91.8667 14.9746C91.5302 14.3016 91.1936 13.4603 90.8571 12.2825Z" fill="#FDFBF9"/>
<path d="M9.42222 35.165C12.1143 35.8381 14.3016 37.3523 17.1619 37.0158C19.0127 36.8476 21.2 37.0158 21.7048 34.6603C22.2095 32.473 20.527 31.6317 18.8444 30.7904C17.1619 29.9492 15.3111 29.2762 13.6286 28.2666C9.75873 26.2476 8.24445 23.0508 8.74921 18.8444C9.25397 14.9746 12.1143 12.9555 15.4794 11.946C18.5079 11.1047 21.5365 11.4412 24.5651 11.6095C27.7619 11.7777 27.4254 13.965 27.4254 15.9841C27.4254 19.5174 25.2381 17.1619 23.8921 17.3301C22.546 17.3301 21.2 16.9936 19.854 16.9936C18.1714 17.1619 16.3206 17.4984 15.8159 19.5174C15.3111 21.5365 17.1619 22.0412 18.3397 22.8825C20.527 24.2285 23.0508 25.2381 25.2381 26.7523C28.2667 28.7714 29.1079 31.6317 28.4349 35.165C27.7619 39.0349 25.5746 41.3904 21.873 42.0635C19.3492 42.5682 16.4889 42.4 13.9651 42.4C9.25397 42.7365 7.90794 40.0444 9.42222 35.165Z" fill="#FBFDFD"/>
<path d="M237.911 18.1714C235.387 17.8349 232.695 17.4984 230.171 17.4984C228.657 17.4984 227.143 18.0032 226.806 20.0222C226.638 21.5365 227.648 22.546 228.825 23.219C231.013 24.3968 233.368 25.4063 235.387 26.5841C238.921 28.6032 240.267 31.8 239.594 35.8381C238.921 39.7079 236.229 41.727 232.695 42.5682C229.162 43.4095 225.46 43.2413 221.927 42.4C218.898 41.5587 218.73 39.0349 219.403 36.8476C220.413 33.4825 221.927 36.6794 223.273 36.8476C224.619 36.8476 225.965 37.3524 227.143 37.3524C228.994 37.3524 231.517 37.5206 232.19 35.5016C233.032 32.9778 230.508 31.9682 228.825 30.9587C227.816 30.454 226.806 30.1174 225.629 29.6127C221.254 27.5936 218.394 24.3968 219.403 19.3492C220.413 14.1333 224.451 12.619 229.162 12.1143C237.07 10.9365 238.584 12.1143 237.911 18.1714Z" fill="#FDFAFB"/>
<path d="M199.717 23.892C199.717 25.9111 199.717 28.0984 199.717 30.1174C199.381 38.3619 195.511 42.5682 188.108 42.7365C179.863 43.073 175.825 39.5396 175.152 30.9587C174.648 25.9111 174.816 20.6952 174.648 15.4793C174.479 12.4507 175.825 11.6095 178.686 11.6095C181.546 11.6095 182.219 12.9555 182.051 15.4793C181.883 20.3587 182.051 25.4063 182.051 30.2857C182.051 33.819 183.397 36.3428 187.267 36.5111C191.305 36.6793 192.483 33.6507 192.651 30.4539C192.987 25.238 192.819 20.1904 192.819 14.9746C192.819 12.619 193.324 11.4412 196.016 11.4412C198.54 11.4412 200.054 11.946 199.886 14.8063C199.717 18.1714 199.717 21.0317 199.717 23.892Z" fill="#F9FBFD"/>
</svg>
