<svg width="250" height="59" viewBox="0 0 250 59" fill="none" xmlns="http://www.w3.org/2000/svg">
<g clip-path="url(#clip0)">
<path d="M38.9103 16.1767C39.4103 16.7154 39.6495 17.535 39.3859 18.3723L30.913 45.2751C30.3668 47.014 28.1712 47.2481 27.3179 45.6586L25.3424 40.884C24.2174 38.788 22.8478 36.8705 21.2717 35.1755C19.6956 33.4806 17.9158 32.0022 15.9728 30.7903L11.5408 28.6621C10.0679 27.7429 10.2826 25.3805 11.8967 24.7921L36.8696 15.6644C37.6494 15.3775 38.4103 15.6381 38.9103 16.1767ZM72 14.2681L66.9266 15.5708V22.1193H64.6821V26.8178H66.9266V39.3734C66.9266 44.6135 69.5679 46.3729 73.2989 46.3729C75.1848 46.3729 76.6114 45.922 77.8696 45.1521V40.682C76.8641 41.2236 75.856 41.4958 74.7255 41.4958C73.0054 41.4958 72 40.6381 72 38.5157V26.8178H77.9538V22.1193H72V14.2681V14.2681ZM83.3587 45.9689H88.4321V22.5555H83.3587V45.9689ZM105.535 41.7681C101.636 41.7681 98.9103 38.3342 98.9103 34.0895C98.9103 29.8448 101.592 26.4109 105.283 26.4109C107.84 26.4109 109.476 27.6316 111.027 29.391L114.171 25.7318C112.117 23.2932 109.516 21.6217 105.326 21.6217C98.7011 21.6217 93.837 27.3126 93.837 34.0866C93.837 40.9513 98.7011 46.5075 105.283 46.5075C109.601 46.5075 112.158 44.6545 114.34 42.0374L111.28 38.785C109.688 40.5473 107.927 41.7681 105.535 41.7681ZM139.41 22.1193H133.247L124.065 32.6873V14.2681L118.992 15.5708V45.9659H124.065V39.1451L127.168 35.6674L133.834 45.9659H139.704L130.606 31.8295L139.41 22.1193ZM162.552 34.4496C162.552 34.8096 162.511 35.7142 162.467 35.9864H146.201C146.747 39.8711 149.304 42.0374 152.573 42.0374C155.046 42.0374 156.807 41.045 158.568 39.1919L161.543 42.0374C159.448 44.7481 156.554 46.5075 152.486 46.5075C146.073 46.5075 141.125 41.4929 141.125 34.0426C141.125 27.2218 145.611 21.6217 151.943 21.6217C158.989 21.6246 162.552 27.5848 162.552 34.4496ZM157.519 32.374C157.185 28.8524 155.255 26.0948 151.902 26.0948C148.799 26.0948 146.62 28.6679 146.158 32.374H157.519ZM172.663 14.2681L167.59 15.5708V22.1193H165.353V26.8178H167.59V39.3734C167.59 44.6135 170.231 46.3729 173.962 46.3729C175.848 46.3729 177.274 45.922 178.533 45.1521V40.682C177.527 41.2236 176.519 41.4958 175.389 41.4958C173.668 41.4958 172.663 40.6381 172.663 38.5157V26.8178H178.617V22.1193H172.663V14.2681ZM192.658 31.8764C192.533 31.8325 192.364 31.7856 192.239 31.7417C189.807 30.884 187.668 30.1609 187.668 28.5362C187.668 27.0462 188.802 26.0508 190.772 26.0508C192.617 26.0508 194.88 26.9086 197.019 28.3079L199.033 24.4232C196.685 22.7517 193.666 21.7124 190.899 21.7124C186.497 21.7124 183.016 24.4671 183.016 28.9841C183.016 33.6357 186.663 35.0819 189.935 36.1211C190.06 36.165 190.188 36.2118 190.313 36.2558C192.745 37.0227 194.883 37.6551 194.883 39.4174C194.883 41.0889 193.625 42.0813 191.446 42.0813C189.182 42.0813 186.582 41.0889 184.193 39.1451L181.929 42.8483C184.696 45.196 188.177 46.4168 191.321 46.4168C195.932 46.4168 199.538 43.9314 199.538 38.9197C199.535 34.5403 195.886 32.9595 192.658 31.8764ZM85.8342 14.1041C84.2744 14.1041 83.0081 15.4683 83.0081 17.1486C83.0081 18.8289 84.2744 20.1931 85.8342 20.1931C87.394 20.1931 88.6603 18.8289 88.6603 17.1486C88.6576 15.4683 87.394 14.1041 85.8342 14.1041Z" fill="#1B1464"/>
<path d="M28.2337 0.0212217C12.7418 -0.611097 0 12.7291 0 29.2747C0 29.6992 0.013587 30.1208 0.0298913 30.5394H0.0271739V54.3099C0.0271739 56.6518 1.78804 58.5487 3.96196 58.5487H27.1739C42.5326 58.5487 54.9158 44.8222 54.3288 28.133C53.7935 12.9633 42.3179 0.597919 28.2337 0.0212217ZM27.1739 52.3807C15.3288 52.3807 5.72554 42.0353 5.72554 29.2747C5.72554 16.5142 15.3288 6.16876 27.1739 6.16876C39.019 6.16876 48.6223 16.5142 48.6223 29.2747C48.6223 42.0353 39.019 52.3807 27.1739 52.3807ZM219.147 22.5124H224.079V45.6945H219.147V42.0967C217.761 44.2923 215.764 46.1805 212.421 46.1805C207.571 46.1805 204.758 42.6676 204.758 37.2665V22.5124H209.69V35.6857C209.69 39.2864 211.361 41.3532 214.293 41.3532C217.149 41.3532 219.144 39.2015 219.144 35.6008V22.5124H219.147ZM238.872 22.1611C235.367 22.1611 233.043 22.9515 230.679 24.0932L232.024 28.3526C233.981 27.4744 235.774 26.9035 238.179 26.9035C241.603 26.9035 243.478 28.66 243.478 31.8655V32.3046C241.807 31.7337 240.139 31.3385 237.53 31.3385C232.514 31.3385 228.807 33.7976 228.807 38.9352C228.807 43.6775 232.391 46.1805 236.467 46.1805C239.728 46.1805 241.97 44.7314 243.437 42.8432V45.6974H248.329V31.9562C248.332 25.7619 245.231 22.1611 238.872 22.1611ZM243.562 37.3104C243.562 40.2056 241.117 42.1816 237.853 42.1816C235.533 42.1816 233.698 40.9521 233.698 38.7566C233.698 36.4293 235.533 35.0681 238.628 35.0681C240.543 35.0681 242.299 35.4662 243.56 35.9902V37.3104H243.562Z" fill="#B41E8E"/>
</g>
<defs>
<clipPath id="clip0">
<rect width="250" height="58.548" fill="white"/>
</clipPath>
</defs>
</svg>
