<svg width="250" height="57" viewBox="0 0 250 57" fill="none" xmlns="http://www.w3.org/2000/svg">
<path d="M48.3004 13.7315C51.9861 13.7315 54.9741 10.7436 54.9741 7.0578C54.9741 3.37202 51.9861 0.384094 48.3004 0.384094C44.6146 0.384094 41.6266 3.37202 41.6266 7.0578C41.6266 10.7436 44.6146 13.7315 48.3004 13.7315Z" fill="#EA0D8D"/>
<path d="M11.3309 20.2132C4.70521 22.9979 0 29.6236 0 37.2576C0 47.4842 8.30613 55.7903 18.5327 55.7903C28.7594 55.7903 37.0655 47.4842 37.0655 37.2576C37.0655 32.4083 35.193 27.9912 32.1202 24.6783L20.3572 12.3392L31.112 12.3872C34.4248 12.3872 37.1615 9.6985 37.1615 6.33763C37.1615 3.02479 34.4728 0.288086 31.112 0.288086H6.33762C3.02477 0.288086 0.288074 2.97677 0.288074 6.33763C0.288074 7.778 0.816209 9.12235 1.68043 10.1786L11.3309 20.2132ZM18.5808 44.1233C14.7878 44.1233 11.715 41.0505 11.715 37.2576C11.715 33.4646 14.7878 30.3918 18.5808 30.3918C22.3737 30.3918 25.4465 33.4646 25.4465 37.2576C25.4465 41.0505 22.3257 44.1233 18.5808 44.1233Z" fill="#EA0D8D"/>
<path d="M48.3003 17.7165C44.9875 17.7165 42.2508 20.4052 42.2508 23.7661V49.5487C42.2508 52.8615 44.9395 55.5982 48.3003 55.5982C51.6132 55.5982 54.3499 52.9095 54.3499 49.5487V23.7181C54.3499 20.4052 51.6612 17.7165 48.3003 17.7165Z" fill="#EA0D8D"/>
<path d="M78.9802 23.9101V0.528137H96.9848V6.38564H86.2301V8.25812H89.687C92.5197 8.25812 94.8243 8.9783 96.5047 10.4187C98.2332 11.859 99.0494 13.7795 99.0494 16.0841C99.0494 18.3887 98.1851 20.2612 96.4567 21.7496C94.7283 23.238 92.5197 23.9581 89.687 23.9581H78.9802V23.9101ZM86.1821 17.9566H89.1108C90.6952 17.9566 91.8475 17.0444 91.8475 15.7C91.8475 14.3077 90.6952 13.3474 89.1108 13.3474H86.1821V17.9566Z" fill="#EA0D8D"/>
<path d="M101.066 23.43V17.3805C101.978 17.8606 103.082 18.1006 104.331 18.1006C105.771 18.1006 106.827 17.4765 107.452 16.3242L99.0974 0.480133H106.971L111.004 9.45843L114.653 0.480133H122.191L113.837 18.6768C112.733 21.0774 111.1 22.8058 109.468 23.478C107.884 24.1502 106.779 24.3422 105.627 24.3422C103.659 24.3903 102.17 24.0542 101.066 23.43Z" fill="#EA0D8D"/>
<path d="M120.079 28.2312V17.7165H122.431C123.92 15.0279 124.688 10.7548 124.688 5.0413V0.480133H142.885V17.7165H145.813V28.2312H139.044V23.9101H126.8V28.2312H120.079ZM135.779 17.7165V6.67372H131.458C131.458 8.49819 131.314 10.4667 130.978 12.6753C130.689 14.8358 130.257 16.4682 129.633 17.7165H135.779Z" fill="#EA0D8D"/>
<path d="M148.31 23.9101V0.528137H155.272V12.1471L164.298 0.528137H170.204V23.9101H163.338V12.3872L154.456 23.9101H148.31Z" fill="#EA0D8D"/>
<path d="M173.757 23.9101V0.528137H180.958V8.45017H188.112V0.528137H195.314V23.9101H188.112V14.6918H180.958V23.9101H173.757V23.9101Z" fill="#EA0D8D"/>
<path d="M201.7 3.60092C204.052 1.24832 207.077 0 210.678 0C214.279 0 217.256 1.20031 219.656 3.60092C222.009 5.95352 223.209 8.83426 223.209 12.1951C223.209 15.556 222.057 18.4367 219.656 20.8373C217.304 23.1899 214.327 24.3902 210.678 24.3902C207.029 24.3902 204.1 23.1899 201.7 20.7893C199.347 18.4367 198.147 15.556 198.147 12.1951C198.195 8.83426 199.347 6.00154 201.7 3.60092ZM210.726 17.8126C212.214 17.8126 213.463 17.2844 214.423 16.2282C215.383 15.1719 215.911 13.8275 215.911 12.1951C215.911 10.5627 215.431 9.21836 214.423 8.16209C213.463 7.10582 212.214 6.57768 210.726 6.57768C209.238 6.57768 207.989 7.10582 207.029 8.16209C206.069 9.21836 205.541 10.5147 205.541 12.1951C205.541 13.8756 206.021 15.1719 207.029 16.2282C207.989 17.2844 209.19 17.8126 210.726 17.8126Z" fill="#EA0D8D"/>
<path d="M226.138 23.9101V0.528137H233.34V9.26637L239.917 0.528137H248.368L240.061 11.3789L250 23.9101H241.166L233.292 13.8275V23.9101H226.138Z" fill="#EA0D8D"/>
<path d="M79.1243 55.5982V32.2162H86.3261V55.5982H79.1243Z" fill="#EA0D8D"/>
<path d="M91.2714 55.5982V32.2162H109.276V38.4098H98.4732V55.6462H91.2714V55.5982Z" fill="#EA0D8D"/>
<path d="M124.208 32.1682C126.897 32.1682 129.009 32.8884 130.641 34.3288C132.274 35.7692 133.09 37.5936 133.09 39.8022C133.09 42.0108 132.274 43.8352 130.641 45.2756C129.057 46.716 126.897 47.4362 124.208 47.4362H120.607V55.5982H113.405V32.2163H124.208V32.1682ZM123.248 42.2028C124.736 42.2028 125.744 41.3386 125.744 40.0903C125.744 38.842 124.688 38.0257 123.248 38.0257H120.655V42.2028H123.248V42.2028Z" fill="#EA0D8D"/>
<path d="M132.034 55.5982L141.684 32.0722H148.55L158.201 55.5982H150.471L148.79 51.2291H141.156L139.428 55.5982H132.034ZM143.269 45.8037H146.726L144.997 40.2343L143.269 45.8037Z" fill="#EA0D8D"/>
<path d="M161.321 55.5982V32.2162H168.523V49.4527H173.372V32.2162H180.526V49.4527H185.375V32.2162H192.529V55.5982H161.321V55.5982Z" fill="#EA0D8D"/>
<path d="M200.259 35.289C202.612 32.9364 205.637 31.6881 209.238 31.6881C212.839 31.6881 215.815 32.8884 218.216 35.289C220.568 37.6416 221.769 40.5224 221.769 43.8832C221.769 47.2441 220.617 50.1248 218.216 52.5254C215.863 54.878 212.887 56.0784 209.238 56.0784C205.589 56.0784 202.612 54.8781 200.259 52.4774C197.907 50.1248 196.706 47.2441 196.706 43.8832C196.706 40.5224 197.859 37.6416 200.259 35.289ZM209.238 49.5007C210.726 49.5007 211.974 48.9725 212.935 47.9163C213.895 46.86 214.423 45.5156 214.423 43.8832C214.423 42.2508 213.943 40.9065 212.935 39.8502C211.974 38.7939 210.726 38.2658 209.238 38.2658C207.749 38.2658 206.501 38.7939 205.541 39.8502C204.58 40.9065 204.052 42.2028 204.052 43.8832C204.052 45.5637 204.532 46.86 205.541 47.9163C206.501 48.9725 207.749 49.5007 209.238 49.5007Z" fill="#EA0D8D"/>
<path d="M225.994 55.5982V32.2162H233.196V40.9545L239.773 32.2162H248.224L239.917 43.067L249.856 55.5982H241.07L233.196 45.5157V55.5982H225.994Z" fill="#EA0D8D"/>
</svg>
