<svg width="250" height="68" viewBox="0 0 250 68" fill="none" xmlns="http://www.w3.org/2000/svg">
<path d="M0 34C0 15.3 15.2256 0 33.8346 0H216.165C234.774 0 250 15.3 250 34C250 52.7 234.774 68 216.165 68H0V34Z" fill="#FF680A"/>
<path d="M100.376 24.5555H112.218V48.9222H117.669V24.5555H129.511V19.8333H100.376V24.5555Z" fill="white"/>
<path d="M57.7068 44.0111H55.4511V19.6444H49.812V44.0111H32.3308V19.6444H26.6917V46.0889C26.6917 47.6 28.0075 48.9222 29.5113 48.9222H55.2632V53.2667H60.5263V47.0333C60.5263 47.0333 60.5263 47.0333 60.5263 46.8444C60.5263 46.8444 60.5263 46.8444 60.5263 46.6556C60.3384 45.1444 59.0226 44.0111 57.7068 44.0111Z" fill="white"/>
<path d="M92.8572 19.8333C92.8572 19.8333 90.9775 19.4556 89.4737 21.1556L71.2406 39.8556V19.6444H65.6015V46.6556C65.6015 48.1667 67.2933 49.4889 68.4211 49.4889C69.5489 49.4889 69.7369 49.3 70.3008 48.7333C70.4888 48.7333 70.4887 48.5444 70.6767 48.3555L90.2256 28.5222V48.7333H95.8647V22.4778C95.6767 20.9667 94.3609 19.8333 92.8572 19.8333Z" fill="white"/>
<path d="M216.165 39.4778C215.789 40.2333 215.226 40.9889 214.662 41.5556C213.722 42.5 212.782 43.2556 211.654 43.6333C210.526 44.2 209.399 44.3889 207.895 44.3889C206.579 44.3889 205.263 44.2 204.135 43.6333C203.008 43.0667 202.068 42.5 201.128 41.5556C200.188 40.6111 199.436 39.4778 199.06 38.3444C198.496 37.2111 198.308 35.8889 198.496 34.1889C198.496 32.6778 198.684 31.3556 199.248 30.2222C199.624 29.0889 200.376 27.9556 201.316 27.0111C202.256 26.0667 203.195 25.3111 204.323 24.9333C205.451 24.3667 206.579 24.1778 208.083 24.1778C209.399 24.1778 210.714 24.3667 211.842 24.9333C212.97 25.5 213.91 26.0667 214.85 27.0111L219.173 23.6111V23.4222C217.669 21.9111 216.165 20.7778 214.286 20.0222C212.406 19.2667 210.526 18.8889 208.271 18.8889C206.203 18.8889 204.135 19.2667 202.256 20.0222C200.376 20.7778 198.872 21.9111 197.368 23.4222C195.865 24.9333 194.925 26.4444 194.173 28.3333C193.421 30.2222 193.045 32.1111 193.045 34.3778C193.045 36.6444 193.421 38.5333 194.173 40.4222C194.925 42.3111 196.053 44.0111 197.368 45.5222C198.872 47.0333 200.376 48.1667 202.256 48.9222C204.135 49.6778 206.015 50.0555 208.271 50.0555C210.338 50.0555 212.406 49.6778 214.286 48.9222C216.165 48.1667 217.669 47.0333 219.173 45.5222C219.925 44.7667 220.489 44.0111 221.053 43.2555L216.165 39.4778Z" fill="white"/>
<path d="M186.842 19.6444L179.511 35.5111L170.301 19.6444H164.098L176.692 41.1778C175.564 43.2556 173.496 44.5778 171.053 44.5778C169.549 44.5778 168.233 44.2 166.917 43.8222V48.9222C168.045 49.4889 169.737 49.6778 171.993 49.6778C176.128 49.6778 179.699 47.0333 182.143 41.7444L192.857 19.8333H186.842V19.6444Z" fill="white"/>
<path d="M149.812 19.6444H137.218C135.714 19.6444 134.398 20.9667 134.398 22.4778V48.9222H140.038V39.6667H149.624C153.383 39.6667 156.203 38.7222 158.271 36.8333C160.338 34.9444 161.466 32.4889 161.466 29.4667C161.466 26.4444 160.338 24.1778 158.271 22.2889C156.391 20.5889 153.383 19.6444 149.812 19.6444ZM149.248 34.7556H140.038V24.5556H149.248C153.571 24.5556 156.015 26.4444 156.015 29.6556C156.015 32.8667 153.571 34.7556 149.248 34.7556Z" fill="white"/>
</svg>
