<svg xmlns="http://www.w3.org/2000/svg" width="38.438" height="38.438" viewBox="0 0 38.438 38.438">
  <metadata><?xpacket begin="﻿" id="W5M0MpCehiHzreSzNTczkc9d"?>
<x:xmpmeta xmlns:x="adobe:ns:meta/" x:xmptk="Adobe XMP Core 5.6-c142 79.160924, 2017/07/13-01:06:39        ">
   <rdf:RDF xmlns:rdf="http://www.w3.org/1999/02/22-rdf-syntax-ns#">
      <rdf:Description rdf:about=""/>
   </rdf:RDF>
</x:xmpmeta>
                                                                                                    
                                                                                                    
                                                                                                    
                                                                                                    
                                                                                                    
                                                                                                    
                                                                                                    
                                                                                                    
                                                                                                    
                                                                                                    
                                                                                                    
                                                                                                    
                                                                                                    
                                                                                                    
                                                                                                    
                                                                                                    
                                                                                                    
                                                                                                    
                                                                                                    
                                                                                                    
                           
<?xpacket end="w"?></metadata>
<defs>
    <style>
      .cls-1 {
        fill: #a3acb5;
        fill-rule: evenodd;
      }
    </style>
  </defs>
  <path id="Forma_1_copy" data-name="Forma 1 copy" class="cls-1" d="M18.287,25.59h0a11.264,11.264,0,0,0,2.774-1.363,11.528,11.528,0,1,0-12,.5h0a11.235,11.235,0,0,0,2.875,1.122h0.005a11.244,11.244,0,0,0,2.708.328A11.361,11.361,0,0,0,18.287,25.59Zm-6.04-.982a9.942,9.942,0,0,1-2.557-1,10.248,10.248,0,1,1,10.66-.447,9.981,9.981,0,0,1-2.462,1.21h0a10.254,10.254,0,0,1-5.63.236H12.248ZM28.226,10.9A14.086,14.086,0,1,0,7.058,26.512a8.96,8.96,0,0,0,15.987,8.02A12.157,12.157,0,1,0,28.226,10.9ZM1.842,14.649A12.811,12.811,0,0,1,27.1,11.636a12.559,12.559,0,0,1,.361,3.014,12.81,12.81,0,0,1-5.459,10.483,12.117,12.117,0,0,1-2.118,1.21,12.589,12.589,0,0,1-2.635.853q-0.445.09-.894,0.148l-0.024,0a12.093,12.093,0,0,1-1.681.113A12.811,12.811,0,0,1,1.842,14.649ZM15.294,37.708A7.662,7.662,0,0,1,8.177,27.147a13.519,13.519,0,0,0,6.477,1.6,13.79,13.79,0,0,0,1.422-.081A12.224,12.224,0,0,0,20.1,33.116c0.247,0.165.5,0.317,0.756,0.462l0.2,0.112c0.226,0.12.454,0.236,0.684,0.343,0.028,0.012.056,0.03,0.084,0.042A7.64,7.64,0,0,1,15.294,37.708Zm11.53-3.843h0a10.7,10.7,0,0,1-3.863-.709,10.472,10.472,0,0,1-3.051-1.782c-0.05-.042-0.1-0.079-0.15-0.122-0.272-.233-0.532-0.48-0.779-0.737-0.049-.052-0.1-0.1-0.143-0.155a10.554,10.554,0,0,1-.7-0.837c-0.021-.027-0.04-0.057-0.06-0.084q-0.317-.432-0.591-0.891c-0.017-.028-0.034-0.056-0.051-0.083l0.045-.011c0.064-.012.122-0.028,0.184-0.041,0.237-.052.474-0.11,0.709-0.173l0.288-.084c0.21-.06.419-0.131,0.627-0.2,0.089-.032.179-0.061,0.268-0.094,0.289-.109.577-0.221,0.86-0.348a13.547,13.547,0,0,0,2.335-1.335h0a14.066,14.066,0,0,0,5.785-13.942A10.883,10.883,0,0,1,26.824,33.864Zm-11.53,1.282a5.131,5.131,0,0,1-5.125-5.125H8.888a6.412,6.412,0,0,0,6.406,6.406,6.329,6.329,0,0,0,2.849-.669l-0.571-1.147A5.06,5.06,0,0,1,15.294,35.146Zm10.89-5.125h1.281v2.564H26.184V30.021Zm-3.61,1.6-1.11-.642,1.281-2.219,1.11,0.642Zm8.5,0L29.793,29.4l1.11-.64,1.281,2.22Zm3.75-3.283-2.219-1.28,0.64-1.109,2.219,1.281Zm-0.954-6h2.562v1.282H33.87V22.335Zm0.953-4.716,0.64,1.108-2.219,1.282L32.6,18.9ZM30.9,17.2l-1.11-.64,1.281-2.22,1.11,0.64Zm-13.045,3.86a0.641,0.641,0,0,0-.641-0.641H15.294V8.246A0.64,0.64,0,0,0,14.2,7.792l-2.882,2.882a0.641,0.641,0,0,0,.906.907l1.789-1.789V20.415H12.091a0.64,0.64,0,1,0,0,1.279h5.124A0.64,0.64,0,0,0,17.856,21.056Z" transform="translate(-0.563 -0.563)"/>
</svg>
