<svg xmlns="http://www.w3.org/2000/svg" width="26" height="41" viewBox="0 0 26 41">
  <metadata><?xpacket begin="﻿" id="W5M0MpCehiHzreSzNTczkc9d"?>
<x:xmpmeta xmlns:x="adobe:ns:meta/" x:xmptk="Adobe XMP Core 5.6-c142 79.160924, 2017/07/13-01:06:39        ">
   <rdf:RDF xmlns:rdf="http://www.w3.org/1999/02/22-rdf-syntax-ns#">
      <rdf:Description rdf:about=""/>
   </rdf:RDF>
</x:xmpmeta>
                                                                                                    
                                                                                                    
                                                                                                    
                                                                                                    
                                                                                                    
                                                                                                    
                                                                                                    
                                                                                                    
                                                                                                    
                                                                                                    
                                                                                                    
                                                                                                    
                                                                                                    
                                                                                                    
                                                                                                    
                                                                                                    
                                                                                                    
                                                                                                    
                                                                                                    
                                                                                                    
                           
<?xpacket end="w"?></metadata>
<defs>
    <style>
      .cls-1 {
        fill: #a3acb5;
        fill-rule: evenodd;
      }
    </style>
  </defs>
  <path id="Forma_1_copy_2" data-name="Forma 1 copy 2" class="cls-1" d="M22,25.515L13.2,22.5a0.61,0.61,0,0,0-.4,0L6.469,24.668a0.6,0.6,0,0,0-.376.765,0.613,0.613,0,0,0,.777.37L13,23.7l8.163,2.8a17.607,17.607,0,0,1-1.121,4.594A17.8,17.8,0,0,1,13,39.688a17.8,17.8,0,0,1-7.043-8.595,16.605,16.605,0,0,1-1.151-5.026,0.606,0.606,0,0,0-.61-0.585H4.184a0.6,0.6,0,0,0-.6.612A17.435,17.435,0,0,0,4.8,31.476a18.994,18.994,0,0,0,7.878,9.432,0.615,0.615,0,0,0,.645,0A18.992,18.992,0,0,0,21.2,31.476a17.44,17.44,0,0,0,1.213-5.382A0.6,0.6,0,0,0,22,25.515Zm-5.032,3.391a0.619,0.619,0,0,0-.863,0l-3.779,3.72-2.248-2.212a0.616,0.616,0,0,0-.863,0,0.594,0.594,0,0,0,0,.85L11.9,33.9a0.616,0.616,0,0,0,.863,0l4.21-4.145A0.6,0.6,0,0,0,16.972,28.906Zm6.889-8.546-4.941-2.432a1.316,1.316,0,0,1-.744-1.184V14.414a6.984,6.984,0,0,0,1.956-4.826V5.737C20.131,2.572,16.932,0,13,0S5.869,2.572,5.869,5.737V9.587a6.985,6.985,0,0,0,1.956,4.826v2.329a1.316,1.316,0,0,1-.744,1.184L2.14,20.36A3.784,3.784,0,0,0,0,23.768v3.794a1.9,1.9,0,0,0,1.914,1.884,0.6,0.6,0,1,0,0-1.2,0.69,0.69,0,0,1-.694-0.684V23.768a2.592,2.592,0,0,1,1.465-2.334L7.627,19a2.506,2.506,0,0,0,1.419-2.257V15.429c0.126,0.084.254,0.162,0.386,0.236a0.612,0.612,0,0,0,.834-0.219,0.6,0.6,0,0,0-.222-0.82A5.825,5.825,0,0,1,7.089,9.587V5.737C7.089,3.236,9.741,1.2,13,1.2s5.911,2.034,5.911,4.535V9.587a5.828,5.828,0,0,1-2.956,5.04,0.6,0.6,0,0,0-.223.82,0.613,0.613,0,0,0,.834.219q0.2-.113.388-0.238v1.314A2.506,2.506,0,0,0,18.373,19l4.941,2.434a2.592,2.592,0,0,1,1.465,2.334v3.794a0.69,0.69,0,0,1-.694.684,0.6,0.6,0,1,0,0,1.2A1.9,1.9,0,0,0,26,27.561V23.768A3.784,3.784,0,0,0,23.861,20.36Z"/>
</svg>
